<?xml version="1.0" encoding="UTF-8"?>
<!DOCTYPE svg PUBLIC "-//W3C//DTD SVG 1.1//EN" "http://www.w3.org/Graphics/SVG/1.1/DTD/svg11.dtd">
<svg xmlns="http://www.w3.org/2000/svg" version="1.1" width="210px" height="123px" style="shape-rendering:geometricPrecision; text-rendering:geometricPrecision; image-rendering:optimizeQuality; fill-rule:evenodd; clip-rule:evenodd" xmlns:xlink="http://www.w3.org/1999/xlink">
<g><path style="opacity:1" fill="#504d4b" d="M 148.5,42.5 C 148.062,42.4346 147.728,42.6012 147.5,43C 149.119,43.2355 150.119,44.0689 150.5,45.5C 151.5,46.8333 152.5,48.1667 153.5,49.5C 153.5,50.1667 153.167,50.5 152.5,50.5C 142.014,41.5139 132.014,32.0139 122.5,22C 117.24,21.4698 112.073,21.9698 107,23.5C 103.729,23.2785 100.563,22.6119 97.5,21.5C 94.2904,22.3543 91.1238,23.3543 88,24.5C 83.769,22.611 79.769,20.2777 76,17.5C 73.0735,18.717 70.5735,20.5503 68.5,23C 66.1667,23.6667 63.8333,23.6667 61.5,23C 59.9458,21.108 58.1124,19.608 56,18.5C 49.7369,21.0959 45.0702,25.4292 42,31.5C 38.5444,41.5679 36.3778,51.9012 35.5,62.5C 33.9261,60.8984 33.2594,58.8984 33.5,56.5C 33.9055,45.9716 36.4055,35.9716 41,26.5C 44.3088,20.5242 49.3088,16.8576 56,15.5C 59.4817,16.3185 62.4817,17.9851 65,20.5C 68.0922,19.076 70.9255,17.2426 73.5,15C 75.5,14.3333 77.5,14.3333 79.5,15C 82.3603,17.3603 85.3603,19.527 88.5,21.5C 91.1377,19.3967 94.1377,18.0634 97.5,17.5C 100.848,18.5109 104.182,19.5109 107.5,20.5C 112.103,19.0122 116.77,18.1789 121.5,18C 123.246,18.4709 124.913,19.1376 126.5,20C 133.366,28.0313 140.699,35.5313 148.5,42.5 Z"/></g>
<g><path style="opacity:1" fill="#f5d0b2" d="M 58.5,24.5 C 59.6443,26.9272 61.6443,27.9272 64.5,27.5C 68.0161,27.0733 71.3495,26.0733 74.5,24.5C 73.0582,25.8195 72.3915,27.4862 72.5,29.5C 74.604,29.2011 76.604,29.5344 78.5,30.5C 75.7948,33.3319 76.1281,35.6653 79.5,37.5C 78.2521,38.3339 77.5854,39.6672 77.5,41.5C 75.908,53.6858 73.408,65.6858 70,77.5C 69.0811,82.6559 69.9144,87.4892 72.5,92C 66.1277,94.6288 60.461,93.6288 55.5,89C 64.8333,88 64.8333,87 55.5,86C 54.244,85.5831 53.5774,84.7498 53.5,83.5C 54.7777,83.2178 55.7777,82.5511 56.5,81.5C 58.451,81.2267 59.951,81.8934 61,83.5C 61.1816,80.7737 61.6816,78.1071 62.5,75.5C 63.2432,76.9079 64.0766,78.2412 65,79.5C 65.1177,76.6287 65.7844,73.962 67,71.5C 67.3333,72.5 67.6667,73.5 68,74.5C 67.6743,70.5305 67.6743,66.5305 68,62.5C 68.9799,64.0589 69.8133,65.7256 70.5,67.5C 73.6924,58.116 74.859,48.4493 74,38.5C 71.9379,35.908 70.6046,32.908 70,29.5C 69.6667,29.8333 69.3333,30.1667 69,30.5C 65.1817,29.3349 61.3483,28.1682 57.5,27C 58.2524,26.3292 58.5858,25.4959 58.5,24.5 Z"/></g>
<g><path style="opacity:1" fill="#efdccc" d="M 152.5,50.5 C 154.535,53.702 157.535,55.3686 161.5,55.5C 162.127,56.4168 162.461,57.4168 162.5,58.5C 162.5,59.1667 162.5,59.8333 162.5,60.5C 161.833,60.1667 161.167,59.8333 160.5,59.5C 158.88,57.0158 156.547,55.5158 153.5,55C 151.5,52.6667 149.5,50.3333 147.5,48C 146.207,47.51 144.873,47.3433 143.5,47.5C 143.843,45.5168 143.176,44.1834 141.5,43.5C 136.444,38.1143 131.444,32.7809 126.5,27.5C 123.05,23.7053 118.716,22.5386 113.5,24C 112.584,24.2784 111.918,24.7784 111.5,25.5C 109.052,26.4731 106.385,26.8064 103.5,26.5C 101.801,26.3796 100.135,26.0463 98.5,25.5C 94.1469,27.9196 89.4803,28.753 84.5,28C 81.807,24.3698 78.4737,23.2031 74.5,24.5C 71.3495,26.0733 68.0161,27.0733 64.5,27.5C 61.6443,27.9272 59.6443,26.9272 58.5,24.5C 51.942,23.2883 47.6086,25.955 45.5,32.5C 44.5255,33.635 43.3588,34.635 42,35.5C 39.2179,46.8524 37.0512,58.1858 35.5,69.5C 35.5,67.1667 35.5,64.8333 35.5,62.5C 36.3778,51.9012 38.5444,41.5679 42,31.5C 45.0702,25.4292 49.7369,21.0959 56,18.5C 58.1124,19.608 59.9458,21.108 61.5,23C 63.8333,23.6667 66.1667,23.6667 68.5,23C 70.5735,20.5503 73.0735,18.717 76,17.5C 79.769,20.2777 83.769,22.611 88,24.5C 91.1238,23.3543 94.2904,22.3543 97.5,21.5C 100.563,22.6119 103.729,23.2785 107,23.5C 112.073,21.9698 117.24,21.4698 122.5,22C 132.014,32.0139 142.014,41.5139 152.5,50.5 Z"/></g>
<g><path style="opacity:1" fill="#fdd5b3" d="M 103.5,26.5 C 105.948,27.4731 108.615,27.8064 111.5,27.5C 111.5,28.5 111.5,29.5 111.5,30.5C 106.87,29.7705 102.203,29.4372 97.5,29.5C 97.1348,32.0787 97.1348,34.412 97.5,36.5C 97.5842,40.3309 96.9175,43.9975 95.5,47.5C 90.8468,46.9992 86.5135,47.6658 82.5,49.5C 82.6653,45.8183 82.4986,42.1516 82,38.5C 81.3292,37.7476 80.4959,37.4142 79.5,37.5C 76.1281,35.6653 75.7948,33.3319 78.5,30.5C 76.604,29.5344 74.604,29.2011 72.5,29.5C 72.3915,27.4862 73.0582,25.8195 74.5,24.5C 78.4737,23.2031 81.807,24.3698 84.5,28C 89.4803,28.753 94.1469,27.9196 98.5,25.5C 100.135,26.0463 101.801,26.3796 103.5,26.5 Z"/></g>
<g><path style="opacity:1" fill="#624d40" d="M 126.5,27.5 C 131.444,32.7809 136.444,38.1143 141.5,43.5C 140.448,43.6495 139.448,43.4828 138.5,43C 133.946,38.4459 129.446,33.9459 125,29.5C 124.472,28.184 124.972,27.5173 126.5,27.5 Z"/></g>
<g><path style="opacity:1" fill="#fdd6b3" d="M 120.5,26.5 C 121.452,28.1123 121.786,29.6123 121.5,31C 120.833,31.3333 120.167,31.6667 119.5,32C 122.833,33.3333 126.167,34.6667 129.5,36C 130.191,37.0674 130.691,38.2341 131,39.5C 134.305,40.9722 136.805,43.3055 138.5,46.5C 137.833,46.8333 137.167,47.1667 136.5,47.5C 134.734,46.9091 133.067,46.0758 131.5,45C 129.899,41.9331 127.732,39.4331 125,37.5C 119.119,38.2598 116.952,41.5932 118.5,47.5C 117.448,47.6495 116.448,47.4828 115.5,47C 114.687,45.197 113.52,43.697 112,42.5C 111.228,42.6448 110.561,42.9781 110,43.5C 110.017,39.5246 110.184,35.5246 110.5,31.5C 111.833,31.5 113.167,31.5 114.5,31.5C 114.488,27.5541 116.488,25.8874 120.5,26.5 Z"/></g>
<g><path style="opacity:1" fill="#fad4b4" d="M 58.5,24.5 C 58.5858,25.4959 58.2524,26.3292 57.5,27C 61.3483,28.1682 65.1817,29.3349 69,30.5C 69.3333,30.1667 69.6667,29.8333 70,29.5C 70.6046,32.908 71.9379,35.908 74,38.5C 74.859,48.4493 73.6924,58.116 70.5,67.5C 69.8133,65.7256 68.9799,64.0589 68,62.5C 67.6743,66.5305 67.6743,70.5305 68,74.5C 67.6667,73.5 67.3333,72.5 67,71.5C 65.7844,73.962 65.1177,76.6287 65,79.5C 64.0766,78.2412 63.2432,76.9079 62.5,75.5C 61.6816,78.1071 61.1816,80.7737 61,83.5C 59.951,81.8934 58.451,81.2267 56.5,81.5C 57.3271,70.1985 59.4937,59.1985 63,48.5C 63.4986,44.8484 63.6653,41.1817 63.5,37.5C 61.901,37.2322 60.5676,37.5655 59.5,38.5C 58.9448,42.3968 57.9448,46.0635 56.5,49.5C 54.0618,52.8415 52.0618,56.5082 50.5,60.5C 50.1667,59.3333 49.8333,58.1667 49.5,57C 50.929,53.5478 52.2623,50.0478 53.5,46.5C 53.1667,45.8333 52.8333,45.1667 52.5,44.5C 51.1585,46.0049 49.4918,46.6715 47.5,46.5C 47.6602,44.8008 47.4935,43.1341 47,41.5C 44.4112,38.9635 43.9112,35.9635 45.5,32.5C 47.6086,25.955 51.942,23.2883 58.5,24.5 Z"/></g>
<g><path style="opacity:1" fill="#fbd5b5" d="M 111.5,25.5 C 114.713,25.19 117.713,25.5233 120.5,26.5C 116.488,25.8874 114.488,27.5541 114.5,31.5C 113.167,31.5 111.833,31.5 110.5,31.5C 110.184,35.5246 110.017,39.5246 110,43.5C 110.561,42.9781 111.228,42.6448 112,42.5C 113.52,43.697 114.687,45.197 115.5,47C 116.448,47.4828 117.448,47.6495 118.5,47.5C 118.396,50.7399 117.062,53.7399 114.5,56.5C 113.883,56.6107 113.383,56.944 113,57.5C 112.626,55.5087 111.793,53.842 110.5,52.5C 109.833,52.5 109.167,52.5 108.5,52.5C 108.363,49.2158 108.029,45.8825 107.5,42.5C 106.205,45.0119 105.539,47.6786 105.5,50.5C 104.833,50.5 104.5,50.8333 104.5,51.5C 104.388,47.7123 104.221,43.7123 104,39.5C 103.329,38.7476 102.496,38.4142 101.5,38.5C 101.042,35.6909 99.7089,35.0242 97.5,36.5C 97.1348,34.412 97.1348,32.0787 97.5,29.5C 102.203,29.4372 106.87,29.7705 111.5,30.5C 111.5,29.5 111.5,28.5 111.5,27.5C 108.615,27.8064 105.948,27.4731 103.5,26.5C 106.385,26.8064 109.052,26.4731 111.5,25.5 Z"/></g>
<g><path style="opacity:1" fill="#4b4e4d" d="M 148.5,42.5 C 180.502,41.3514 192.336,56.3514 184,87.5C 172.794,112.346 154.628,119.512 129.5,109C 127.63,106.96 125.63,105.127 123.5,103.5C 124.926,102.659 126.26,101.659 127.5,100.5C 128.612,104.779 131.279,107.613 135.5,109C 153.868,114.307 167.868,108.807 177.5,92.5C 178.674,91.4863 179.34,90.153 179.5,88.5C 185.52,76.0665 184.687,64.0665 177,52.5C 169.189,46.5049 160.356,44.1716 150.5,45.5C 150.119,44.0689 149.119,43.2355 147.5,43C 147.728,42.6012 148.062,42.4346 148.5,42.5 Z"/></g>
<g><path style="opacity:1" fill="#f7d4b9" d="M 126.5,27.5 C 124.972,27.5173 124.472,28.184 125,29.5C 129.446,33.9459 133.946,38.4459 138.5,43C 139.448,43.4828 140.448,43.6495 141.5,43.5C 143.176,44.1834 143.843,45.5168 143.5,47.5C 144.873,47.3433 146.207,47.51 147.5,48C 149.5,50.3333 151.5,52.6667 153.5,55C 156.547,55.5158 158.88,57.0158 160.5,59.5C 155.633,58.0694 150.967,56.0694 146.5,53.5C 145.5,53.8333 144.5,54.1667 143.5,54.5C 144.96,56.4224 146.627,57.0891 148.5,56.5C 149.415,57.3279 150.081,58.3279 150.5,59.5C 148.564,59.362 146.564,59.6953 144.5,60.5C 143.733,59.828 143.066,58.9947 142.5,58C 137.68,58.4292 135.014,56.2625 134.5,51.5C 132.087,54.3772 130.253,54.0439 129,50.5C 126.404,54.3126 127.237,56.8126 131.5,58C 127.855,58.7189 124.188,59.2189 120.5,59.5C 120.337,57.1432 120.503,54.8098 121,52.5C 123.361,49.1122 125.194,45.4456 126.5,41.5C 125.833,40.1667 125.167,40.1667 124.5,41.5C 123.319,45.2243 121.486,48.5577 119,51.5C 118.963,56.5825 117.797,61.2492 115.5,65.5C 115.296,62.4824 114.963,59.4824 114.5,56.5C 117.062,53.7399 118.396,50.7399 118.5,47.5C 116.952,41.5932 119.119,38.2598 125,37.5C 127.732,39.4331 129.899,41.9331 131.5,45C 133.067,46.0758 134.734,46.9091 136.5,47.5C 137.167,47.1667 137.833,46.8333 138.5,46.5C 136.805,43.3055 134.305,40.9722 131,39.5C 130.691,38.2341 130.191,37.0674 129.5,36C 126.167,34.6667 122.833,33.3333 119.5,32C 120.167,31.6667 120.833,31.3333 121.5,31C 121.786,29.6123 121.452,28.1123 120.5,26.5C 117.713,25.5233 114.713,25.19 111.5,25.5C 111.918,24.7784 112.584,24.2784 113.5,24C 118.716,22.5386 123.05,23.7053 126.5,27.5 Z"/></g>
<g><path style="opacity:1" fill="#eef5f3" d="M 150.5,45.5 C 160.356,44.1716 169.189,46.5049 177,52.5C 184.687,64.0665 185.52,76.0665 179.5,88.5C 180.517,81.1948 180.683,73.8615 180,66.5C 175.427,55.1146 166.927,49.4479 154.5,49.5C 154.167,49.5 153.833,49.5 153.5,49.5C 152.5,48.1667 151.5,46.8333 150.5,45.5 Z"/></g>
<g><path style="opacity:1" fill="#faceab" d="M 144.5,60.5 C 145.509,61.9391 145.176,63.2724 143.5,64.5C 141.5,65.3333 139.5,66.1667 137.5,67C 138.056,67.3826 138.389,67.8826 138.5,68.5C 132.871,69.0822 127.538,67.7488 122.5,64.5C 121.476,65.8532 120.143,66.5198 118.5,66.5C 118.721,63.9327 119.388,61.5994 120.5,59.5C 124.188,59.2189 127.855,58.7189 131.5,58C 127.237,56.8126 126.404,54.3126 129,50.5C 130.253,54.0439 132.087,54.3772 134.5,51.5C 135.014,56.2625 137.68,58.4292 142.5,58C 143.066,58.9947 143.733,59.828 144.5,60.5 Z"/></g>
<g><path style="opacity:1" fill="#6d4d33" d="M 105.5,50.5 C 106.757,51.6226 106.424,52.2893 104.5,52.5C 104.5,52.1667 104.5,51.8333 104.5,51.5C 104.5,50.8333 104.833,50.5 105.5,50.5 Z"/></g>
<g><path style="opacity:1" fill="#654424" d="M 62.5,52.5 C 64.337,52.6395 64.6704,53.3061 63.5,54.5C 62.7025,54.0431 62.3691,53.3764 62.5,52.5 Z"/></g>
<g><path style="opacity:1" fill="#e8b993" d="M 101.5,38.5 C 102.496,38.4142 103.329,38.7476 104,39.5C 104.221,43.7123 104.388,47.7123 104.5,51.5C 104.5,51.8333 104.5,52.1667 104.5,52.5C 102.334,55.0605 100.834,58.7272 100,63.5C 98.3613,71.9026 97.1946,80.2359 96.5,88.5C 95.2353,87.4855 94.5687,85.9855 94.5,84C 94.2541,70.7448 96.4207,57.9115 101,45.5C 101.497,43.1902 101.663,40.8568 101.5,38.5 Z"/></g>
<g><path style="opacity:1" fill="#f8d4b7" d="M 160.5,59.5 C 161.167,59.8333 161.833,60.1667 162.5,60.5C 162.81,63.7131 162.477,66.7131 161.5,69.5C 161.225,67.1582 160.392,67.1582 159,69.5C 158.667,70.8333 158.333,72.1667 158,73.5C 157.683,71.6992 157.016,71.3659 156,72.5C 155.506,70.8659 155.34,69.1992 155.5,67.5C 151.783,68.6885 148.116,70.1885 144.5,72C 142.866,72.4935 141.199,72.6602 139.5,72.5C 139.851,75.2377 140.518,77.9044 141.5,80.5C 140.167,81.5 138.833,82.5 137.5,83.5C 138.833,85.1667 138.833,86.8333 137.5,88.5C 136.099,89.5207 134.765,90.5207 133.5,91.5C 132.5,91.5 131.5,91.5 130.5,91.5C 136.093,87.2657 137.926,81.599 136,74.5C 135.626,73.5838 135.126,72.7504 134.5,72C 138.005,71.3426 141.005,69.8426 143.5,67.5C 141.808,66.7992 140.142,67.1325 138.5,68.5C 138.389,67.8826 138.056,67.3826 137.5,67C 139.5,66.1667 141.5,65.3333 143.5,64.5C 145.176,63.2724 145.509,61.9391 144.5,60.5C 146.564,59.6953 148.564,59.362 150.5,59.5C 150.081,58.3279 149.415,57.3279 148.5,56.5C 146.627,57.0891 144.96,56.4224 143.5,54.5C 144.5,54.1667 145.5,53.8333 146.5,53.5C 150.967,56.0694 155.633,58.0694 160.5,59.5 Z"/></g>
<g><path style="opacity:1" fill="#f6d1b5" d="M 101.5,38.5 C 100.271,44.0202 98.2707,49.3536 95.5,54.5C 94.8813,51.4046 93.8813,51.0712 92.5,53.5C 91.914,53.2907 91.414,52.9574 91,52.5C 90.5829,55.422 89.5829,58.0887 88,60.5C 87.6068,62.1992 88.1068,63.6992 89.5,65C 86.9801,83.1204 85.4801,82.9537 85,64.5C 83.5295,63.7334 82.0295,63.0668 80.5,62.5C 80.7564,60.2075 80.4231,58.0408 79.5,56C 80.1319,53.5848 81.1319,51.4181 82.5,49.5C 86.5135,47.6658 90.8468,46.9992 95.5,47.5C 96.9175,43.9975 97.5842,40.3309 97.5,36.5C 99.7089,35.0242 101.042,35.6909 101.5,38.5 Z"/></g>
<g><path style="opacity:1" fill="#f5d0b2" d="M 45.5,32.5 C 43.9112,35.9635 44.4112,38.9635 47,41.5C 47.4935,43.1341 47.6602,44.8008 47.5,46.5C 49.4918,46.6715 51.1585,46.0049 52.5,44.5C 52.8333,45.1667 53.1667,45.8333 53.5,46.5C 52.2623,50.0478 50.929,53.5478 49.5,57C 49.8333,58.1667 50.1667,59.3333 50.5,60.5C 52.0618,56.5082 54.0618,52.8415 56.5,49.5C 55.1085,54.844 53.6085,60.1774 52,65.5C 51.1625,71.6466 50.3291,77.6466 49.5,83.5C 45.5617,83.3645 42.2283,81.8645 39.5,79C 44.5626,77.6715 44.2293,76.6715 38.5,76C 36.5494,74.2658 35.5494,72.0991 35.5,69.5C 37.0512,58.1858 39.2179,46.8524 42,35.5C 43.3588,34.635 44.5255,33.635 45.5,32.5 Z"/></g>
<g><path style="opacity:1" fill="#f9d4b6" d="M 108.5,52.5 C 109.167,55.1667 109.833,55.1667 110.5,52.5C 111.793,53.842 112.626,55.5087 113,57.5C 113.383,56.944 113.883,56.6107 114.5,56.5C 114.963,59.4824 115.296,62.4824 115.5,65.5C 115.08,67.0936 114.414,68.5936 113.5,70C 113.646,71.7271 114.313,71.8938 115.5,70.5C 116.251,71.376 116.751,72.376 117,73.5C 117.123,76.614 117.29,79.614 117.5,82.5C 118.775,78.1488 118.775,73.8155 117.5,69.5C 122.307,67.8444 126.641,68.5111 130.5,71.5C 119.849,68.7868 117.516,72.1201 123.5,81.5C 120.485,83.6714 117.485,85.8381 114.5,88C 112.717,88.2323 111.05,87.7323 109.5,86.5C 107.075,87.8996 107.408,89.0662 110.5,90C 108.75,91.3186 106.75,91.8186 104.5,91.5C 103.587,89.4383 102.087,89.105 100,90.5C 98.3009,90.6134 97.1342,89.9468 96.5,88.5C 97.1946,80.2359 98.3613,71.9026 100,63.5C 100.834,58.7272 102.334,55.0605 104.5,52.5C 106.424,52.2893 106.757,51.6226 105.5,50.5C 105.539,47.6786 106.205,45.0119 107.5,42.5C 108.029,45.8825 108.363,49.2158 108.5,52.5 Z"/></g>
<g><path style="opacity:1" fill="#725238" d="M 107.5,56.5 C 109.337,56.6395 109.67,57.3061 108.5,58.5C 107.702,58.0431 107.369,57.3764 107.5,56.5 Z"/></g>
<g><path style="opacity:1" fill="#77533a" d="M 108.5,52.5 C 109.167,52.5 109.833,52.5 110.5,52.5C 109.833,55.1667 109.167,55.1667 108.5,52.5 Z"/></g>
<g><path style="opacity:1" fill="#3c906c" d="M 176.5,90.5 C 175.396,92.3885 174.063,94.0552 172.5,95.5C 169.835,99.1607 166.502,102.161 162.5,104.5C 160.679,103.272 159.679,101.606 159.5,99.5C 157.194,99.9926 154.861,100.326 152.5,100.5C 154.45,97.8764 155.95,94.8764 157,91.5C 158.512,90.7433 159.846,89.7433 161,88.5C 162.131,85.5547 162.964,82.5547 163.5,79.5C 164.5,79.5 165.5,79.5 166.5,79.5C 167.034,71.5009 167.7,63.5009 168.5,55.5C 173.693,57.8636 176.86,61.8636 178,67.5C 180.181,75.3639 179.681,83.0306 176.5,90.5 Z"/></g>
<g><path style="opacity:1" fill="#f0bf96" d="M 59.5,38.5 C 60.5676,37.5655 61.901,37.2322 63.5,37.5C 63.6653,41.1817 63.4986,44.8484 63,48.5C 59.4937,59.1985 57.3271,70.1985 56.5,81.5C 55.7777,82.5511 54.7777,83.2178 53.5,83.5C 53.1667,83.5 52.8333,83.5 52.5,83.5C 52.5,82.8333 52.5,82.1667 52.5,81.5C 53.7467,67.5066 56.7467,53.8399 61.5,40.5C 61.2528,39.2867 60.5862,38.62 59.5,38.5 Z"/></g>
<g><path style="opacity:1" fill="#5d4535" d="M 120.5,59.5 C 119.388,61.5994 118.721,63.9327 118.5,66.5C 120.143,66.5198 121.476,65.8532 122.5,64.5C 127.538,67.7488 132.871,69.0822 138.5,68.5C 140.142,67.1325 141.808,66.7992 143.5,67.5C 141.005,69.8426 138.005,71.3426 134.5,72C 135.126,72.7504 135.626,73.5838 136,74.5C 137.926,81.599 136.093,87.2657 130.5,91.5C 125.317,90.5347 120.984,91.868 117.5,95.5C 117.158,94.6618 116.492,94.3284 115.5,94.5C 118.498,92.4969 120.831,89.8303 122.5,86.5C 123.386,87.325 123.719,88.325 123.5,89.5C 132.992,89.5559 136.492,84.8893 134,75.5C 133.34,73.6763 132.173,72.343 130.5,71.5C 126.641,68.5111 122.307,67.8444 117.5,69.5C 118.775,73.8155 118.775,78.1488 117.5,82.5C 117.29,79.614 117.123,76.614 117,73.5C 116.751,72.376 116.251,71.376 115.5,70.5C 114.313,71.8938 113.646,71.7271 113.5,70C 114.414,68.5936 115.08,67.0936 115.5,65.5C 117.797,61.2492 118.963,56.5825 119,51.5C 121.486,48.5577 123.319,45.2243 124.5,41.5C 125.167,40.1667 125.833,40.1667 126.5,41.5C 125.194,45.4456 123.361,49.1122 121,52.5C 120.503,54.8098 120.337,57.1432 120.5,59.5 Z"/></g>
<g><path style="opacity:1" fill="#624531" d="M 59.5,38.5 C 60.5862,38.62 61.2528,39.2867 61.5,40.5C 56.7467,53.8399 53.7467,67.5066 52.5,81.5C 51.8423,82.3984 51.1757,83.3984 50.5,84.5C 49.8933,84.3764 49.56,84.0431 49.5,83.5C 50.3291,77.6466 51.1625,71.6466 52,65.5C 53.6085,60.1774 55.1085,54.844 56.5,49.5C 57.9448,46.0635 58.9448,42.3968 59.5,38.5 Z"/></g>
<g><path style="opacity:1" fill="#508b73" d="M 154.5,49.5 C 166.927,49.4479 175.427,55.1146 180,66.5C 180.683,73.8615 180.517,81.1948 179.5,88.5C 179.34,90.153 178.674,91.4863 177.5,92.5C 177.672,91.5084 177.338,90.8417 176.5,90.5C 179.681,83.0306 180.181,75.3639 178,67.5C 176.86,61.8636 173.693,57.8636 168.5,55.5C 167.7,63.5009 167.034,71.5009 166.5,79.5C 165.5,79.5 164.5,79.5 163.5,79.5C 165.249,72.5982 165.749,65.5982 165,58.5C 163.761,53.6032 160.594,51.4365 155.5,52C 154.748,51.3292 154.414,50.4959 154.5,49.5 Z"/></g>
<g><path style="opacity:1" fill="#fdd4b4" d="M 161.5,69.5 C 159.582,76.3141 156.915,82.6475 153.5,88.5C 149.859,90.2299 146.026,91.5632 142,92.5C 139.281,91.5562 136.448,91.2229 133.5,91.5C 134.765,90.5207 136.099,89.5207 137.5,88.5C 138.833,86.8333 138.833,85.1667 137.5,83.5C 138.833,82.5 140.167,81.5 141.5,80.5C 140.518,77.9044 139.851,75.2377 139.5,72.5C 141.199,72.6602 142.866,72.4935 144.5,72C 148.116,70.1885 151.783,68.6885 155.5,67.5C 155.34,69.1992 155.506,70.8659 156,72.5C 157.016,71.3659 157.683,71.6992 158,73.5C 158.333,72.1667 158.667,70.8333 159,69.5C 160.392,67.1582 161.225,67.1582 161.5,69.5 Z"/></g>
<g><path style="opacity:1" fill="#f0caa9" d="M 79.5,37.5 C 80.4959,37.4142 81.3292,37.7476 82,38.5C 82.4986,42.1516 82.6653,45.8183 82.5,49.5C 81.1319,51.4181 80.1319,53.5848 79.5,56C 80.4231,58.0408 80.7564,60.2075 80.5,62.5C 79.8643,69.7274 77.8643,76.3941 74.5,82.5C 80.1009,81.3091 85.6009,80.6424 91,80.5C 92.1434,74.0714 92.9767,67.5714 93.5,61C 91.8645,58.4392 92.5311,56.9392 95.5,56.5C 93.9004,65.9045 92.9004,75.4045 92.5,85C 92.3349,87.9165 93.0015,90.5832 94.5,93C 89.8041,95.3995 84.8041,96.0662 79.5,95C 71.2916,90.4413 71.625,89.608 80.5,92.5C 81.5,92.1667 82.5,91.8333 83.5,91.5C 79.7762,90.6044 76.1096,89.6044 72.5,88.5C 72.1729,86.5122 71.8396,84.5122 71.5,82.5C 75.2805,67.7085 77.9471,52.7085 79.5,37.5 Z"/></g>
<g><path style="opacity:1" fill="#f6cfad" d="M 130.5,71.5 C 132.173,72.343 133.34,73.6763 134,75.5C 136.492,84.8893 132.992,89.5559 123.5,89.5C 123.719,88.325 123.386,87.325 122.5,86.5C 120.831,89.8303 118.498,92.4969 115.5,94.5C 110.689,96.4075 105.689,96.9075 100.5,96C 98.5448,95.0467 96.8782,93.7134 95.5,92C 98.5484,92.5781 101.548,92.4114 104.5,91.5C 106.75,91.8186 108.75,91.3186 110.5,90C 107.408,89.0662 107.075,87.8996 109.5,86.5C 111.05,87.7323 112.717,88.2323 114.5,88C 117.485,85.8381 120.485,83.6714 123.5,81.5C 117.516,72.1201 119.849,68.7868 130.5,71.5 Z"/></g>
<g><path style="opacity:1" fill="#464d37" d="M 153.5,49.5 C 153.833,49.5 154.167,49.5 154.5,49.5C 154.414,50.4959 154.748,51.3292 155.5,52C 160.594,51.4365 163.761,53.6032 165,58.5C 165.749,65.5982 165.249,72.5982 163.5,79.5C 160.264,84.2775 156.764,88.9441 153,93.5C 150.178,96.1549 147.011,98.1549 143.5,99.5C 140.193,98.9492 136.86,98.6159 133.5,98.5C 135.607,97.5318 137.941,97.1984 140.5,97.5C 143.39,97.722 146.057,97.0553 148.5,95.5C 155.359,89.117 160.192,81.4504 163,72.5C 163.815,67.6478 163.648,62.9811 162.5,58.5C 162.461,57.4168 162.127,56.4168 161.5,55.5C 157.535,55.3686 154.535,53.702 152.5,50.5C 153.167,50.5 153.5,50.1667 153.5,49.5 Z"/></g>
<g><path style="opacity:1" fill="#5e4330" d="M 79.5,37.5 C 77.9471,52.7085 75.2805,67.7085 71.5,82.5C 71.8396,84.5122 72.1729,86.5122 72.5,88.5C 76.1096,89.6044 79.7762,90.6044 83.5,91.5C 82.5,91.8333 81.5,92.1667 80.5,92.5C 71.625,89.608 71.2916,90.4413 79.5,95C 84.8041,96.0662 89.8041,95.3995 94.5,93C 93.0015,90.5832 92.3349,87.9165 92.5,85C 92.9004,75.4045 93.9004,65.9045 95.5,56.5C 95.5,55.8333 95.5,55.1667 95.5,54.5C 98.2707,49.3536 100.271,44.0202 101.5,38.5C 101.663,40.8568 101.497,43.1902 101,45.5C 96.4207,57.9115 94.2541,70.7448 94.5,84C 94.5687,85.9855 95.2353,87.4855 96.5,88.5C 97.1342,89.9468 98.3009,90.6134 100,90.5C 102.087,89.105 103.587,89.4383 104.5,91.5C 101.548,92.4114 98.5484,92.5781 95.5,92C 96.8782,93.7134 98.5448,95.0467 100.5,96C 105.689,96.9075 110.689,96.4075 115.5,94.5C 116.492,94.3284 117.158,94.6618 117.5,95.5C 113.565,96.0644 112.232,98.0644 113.5,101.5C 112.391,101.557 111.391,101.89 110.5,102.5C 110.5,101.167 110.5,99.8333 110.5,98.5C 105.103,99.1334 100.103,98.1334 95.5,95.5C 87.9597,98.4182 80.6263,98.0848 73.5,94.5C 67.683,96.0306 62.0164,95.6972 56.5,93.5C 54.147,90.7522 51.8137,88.0855 49.5,85.5C 51.1788,85.7148 52.1788,85.0481 52.5,83.5C 52.8333,83.5 53.1667,83.5 53.5,83.5C 53.5774,84.7498 54.244,85.5831 55.5,86C 64.8333,87 64.8333,88 55.5,89C 60.461,93.6288 66.1277,94.6288 72.5,92C 69.9144,87.4892 69.0811,82.6559 70,77.5C 73.408,65.6858 75.908,53.6858 77.5,41.5C 77.5854,39.6672 78.2521,38.3339 79.5,37.5 Z"/></g>
<g><path style="opacity:1" fill="#5a4638" d="M 75.5,85.5 C 77.9599,85.6985 80.2933,86.3652 82.5,87.5C 80.9255,88.6309 79.2588,88.7975 77.5,88C 76.244,87.5831 75.5774,86.7498 75.5,85.5 Z"/></g>
<g><path style="opacity:1" fill="#fdd5b4" d="M 95.5,54.5 C 95.5,55.1667 95.5,55.8333 95.5,56.5C 92.5311,56.9392 91.8645,58.4392 93.5,61C 92.9767,67.5714 92.1434,74.0714 91,80.5C 85.6009,80.6424 80.1009,81.3091 74.5,82.5C 77.8643,76.3941 79.8643,69.7274 80.5,62.5C 82.0295,63.0668 83.5295,63.7334 85,64.5C 85.4801,82.9537 86.9801,83.1204 89.5,65C 88.1068,63.6992 87.6068,62.1992 88,60.5C 89.5829,58.0887 90.5829,55.422 91,52.5C 91.414,52.9574 91.914,53.2907 92.5,53.5C 93.8813,51.0712 94.8813,51.4046 95.5,54.5 Z"/></g>
<g><path style="opacity:1" fill="#ebbf97" d="M 49.5,85.5 C 51.8137,88.0855 54.147,90.7522 56.5,93.5C 54.7175,94.427 53.0508,95.2603 51.5,96C 48.3475,93.1954 46.6808,89.6954 46.5,85.5C 47.5,85.5 48.5,85.5 49.5,85.5 Z"/></g>
<g><path style="opacity:1" fill="#edc29d" d="M 162.5,58.5 C 163.648,62.9811 163.815,67.6478 163,72.5C 160.192,81.4504 155.359,89.117 148.5,95.5C 146.057,97.0553 143.39,97.722 140.5,97.5C 138.034,96.3659 135.367,96.1993 132.5,97C 126.494,99.9182 120.161,101.418 113.5,101.5C 112.232,98.0644 113.565,96.0644 117.5,95.5C 120.984,91.868 125.317,90.5347 130.5,91.5C 131.5,91.5 132.5,91.5 133.5,91.5C 136.448,91.2229 139.281,91.5562 142,92.5C 146.026,91.5632 149.859,90.2299 153.5,88.5C 156.915,82.6475 159.582,76.3141 161.5,69.5C 162.477,66.7131 162.81,63.7131 162.5,60.5C 162.5,59.8333 162.5,59.1667 162.5,58.5 Z"/></g>
<g><path style="opacity:1" fill="#ebbb95" d="M 56.5,93.5 C 62.0164,95.6972 67.683,96.0306 73.5,94.5C 80.6263,98.0848 87.9597,98.4182 95.5,95.5C 100.103,98.1334 105.103,99.1334 110.5,98.5C 110.5,99.8333 110.5,101.167 110.5,102.5C 109.856,105.144 108.189,106.811 105.5,107.5C 104.902,104.813 103.569,102.646 101.5,101C 94.4089,102.619 87.0755,103.285 79.5,103C 72.2718,101.11 64.9384,99.7768 57.5,99C 56.5939,97.3005 56.2606,95.4672 56.5,93.5 Z"/></g>
<g><path style="opacity:1" fill="#5a4c43" d="M 33.5,56.5 C 33.2594,58.8984 33.9261,60.8984 35.5,62.5C 35.5,64.8333 35.5,67.1667 35.5,69.5C 35.5494,72.0991 36.5494,74.2658 38.5,76C 44.2293,76.6715 44.5626,77.6715 39.5,79C 42.2283,81.8645 45.5617,83.3645 49.5,83.5C 49.56,84.0431 49.8933,84.3764 50.5,84.5C 51.1757,83.3984 51.8423,82.3984 52.5,81.5C 52.5,82.1667 52.5,82.8333 52.5,83.5C 52.1788,85.0481 51.1788,85.7148 49.5,85.5C 48.5,85.5 47.5,85.5 46.5,85.5C 46.6808,89.6954 48.3475,93.1954 51.5,96C 53.0508,95.2603 54.7175,94.427 56.5,93.5C 56.2606,95.4672 56.5939,97.3005 57.5,99C 64.9384,99.7768 72.2718,101.11 79.5,103C 87.0755,103.285 94.4089,102.619 101.5,101C 103.569,102.646 104.902,104.813 105.5,107.5C 108.189,106.811 109.856,105.144 110.5,102.5C 111.391,101.89 112.391,101.557 113.5,101.5C 120.161,101.418 126.494,99.9182 132.5,97C 135.367,96.1993 138.034,96.3659 140.5,97.5C 137.941,97.1984 135.607,97.5318 133.5,98.5C 131.302,98.8751 129.302,99.5418 127.5,100.5C 126.26,101.659 124.926,102.659 123.5,103.5C 117.907,103.335 113.241,105.168 109.5,109C 107.634,109.985 105.634,110.485 103.5,110.5C 86.1141,107.324 68.7808,103.824 51.5,100C 46.7502,96.5103 43.7502,91.8436 42.5,86C 38.0508,83.2926 34.8841,79.4593 33,74.5C 32.1808,68.3188 32.3475,62.3188 33.5,56.5 Z M 93.5,102.5 C 95.8568,102.337 98.1902,102.503 100.5,103C 102.497,104.153 102.83,105.653 101.5,107.5C 98.0605,106.795 95.3938,105.129 93.5,102.5 Z"/></g>
<g><path style="opacity:1" fill="#3c8364" d="M 163.5,79.5 C 162.964,82.5547 162.131,85.5547 161,88.5C 159.846,89.7433 158.512,90.7433 157,91.5C 155.95,94.8764 154.45,97.8764 152.5,100.5C 154.861,100.326 157.194,99.9926 159.5,99.5C 159.679,101.606 160.679,103.272 162.5,104.5C 166.502,102.161 169.835,99.1607 172.5,95.5C 171.523,98.9892 169.523,101.823 166.5,104C 156.542,109.413 146.209,110.413 135.5,107C 134.506,105.671 133.506,104.338 132.5,103C 132.645,102.228 132.978,101.561 133.5,101C 137.025,100.821 140.359,100.321 143.5,99.5C 147.011,98.1549 150.178,96.1549 153,93.5C 156.764,88.9441 160.264,84.2775 163.5,79.5 Z"/></g>
<g><path style="opacity:1" fill="#477761" d="M 176.5,90.5 C 177.338,90.8417 177.672,91.5084 177.5,92.5C 167.868,108.807 153.868,114.307 135.5,109C 131.279,107.613 128.612,104.779 127.5,100.5C 129.302,99.5418 131.302,98.8751 133.5,98.5C 136.86,98.6159 140.193,98.9492 143.5,99.5C 140.359,100.321 137.025,100.821 133.5,101C 132.978,101.561 132.645,102.228 132.5,103C 133.506,104.338 134.506,105.671 135.5,107C 146.209,110.413 156.542,109.413 166.5,104C 169.523,101.823 171.523,98.9892 172.5,95.5C 174.063,94.0552 175.396,92.3885 176.5,90.5 Z"/></g>
</svg>
