<?xml version="1.0" encoding="UTF-8"?>
<!DOCTYPE svg PUBLIC "-//W3C//DTD SVG 1.1//EN" "http://www.w3.org/Graphics/SVG/1.1/DTD/svg11.dtd">
<svg xmlns="http://www.w3.org/2000/svg" version="1.1" width="210px" height="123px" style="shape-rendering:geometricPrecision; text-rendering:geometricPrecision; image-rendering:optimizeQuality; fill-rule:evenodd; clip-rule:evenodd" xmlns:xlink="http://www.w3.org/1999/xlink">
<g><path style="opacity:1" fill="#504f4d" d="M 170.5,82.5 C 170.675,80.3792 170.341,78.3792 169.5,76.5C 171.144,75.6836 172.31,74.3502 173,72.5C 173.815,67.6478 173.648,62.9811 172.5,58.5C 172.098,49.2221 170.264,40.2221 167,31.5C 163.881,25.2123 159.048,20.8789 152.5,18.5C 150.71,19.7863 149.043,21.2863 147.5,23C 145.167,23.6667 142.833,23.6667 140.5,23C 138.427,20.5503 135.927,18.717 133,17.5C 129.949,18.5461 127.449,20.3794 125.5,23C 123.966,23.923 122.299,24.423 120.5,24.5C 117.634,23.2407 114.634,22.2407 111.5,21.5C 108.437,22.6119 105.271,23.2785 102,23.5C 96.8799,22.2578 91.7132,21.7578 86.5,22C 76.9861,32.0139 66.9861,41.5139 56.5,50.5C 56.5,49.8333 56.5,49.1667 56.5,48.5C 56.9528,47.5416 57.6195,46.7083 58.5,46C 44.2424,43.1773 33.7424,48.0106 27,60.5C 24.5355,70.2715 25.3689,79.6048 29.5,88.5C 39.663,109.942 55.663,116.108 77.5,107C 79.4388,105.568 80.7721,103.735 81.5,101.5C 82.5,101.5 83.5,101.5 84.5,101.5C 84.8333,102.167 85.1667,102.833 85.5,103.5C 69.6435,117.519 53.3102,118.019 36.5,105C 23.4138,91.4078 19.5805,75.5745 25,57.5C 29.0541,49.3885 35.5541,44.5551 44.5,43C 49.8333,42.6667 55.1667,42.3333 60.5,42C 68.5,35.3333 75.8333,28 82.5,20C 84.7249,18.8694 87.0583,18.0361 89.5,17.5C 93.5059,18.5025 97.5059,19.5025 101.5,20.5C 104.818,19.5109 108.152,18.5109 111.5,17.5C 114.862,18.0634 117.862,19.3967 120.5,21.5C 123.264,20.2388 125.597,18.4054 127.5,16C 129.034,15.077 130.701,14.577 132.5,14.5C 136.664,15.8213 140.497,17.8213 144,20.5C 146.112,19.392 147.946,17.892 149.5,16C 159.534,15.9993 166.368,20.8327 170,30.5C 175.117,44.7508 177.117,59.4175 176,74.5C 174.884,77.7556 173.051,80.4223 170.5,82.5 Z"/></g>
<g><path style="opacity:1" fill="#fcd5b6" d="M 105.5,26.5 C 102.642,27.166 99.6417,27.8326 96.5,28.5C 97.1667,28.8333 97.8333,29.1667 98.5,29.5C 104.095,30.3929 109.762,30.7263 115.5,30.5C 113.308,30.9274 110.808,31.594 108,32.5C 107.586,32.0426 107.086,31.7093 106.5,31.5C 105.833,32.5 105.167,33.5 104.5,34.5C 103.189,38.9838 103.189,43.3171 104.5,47.5C 104.5,48.5 104.5,49.5 104.5,50.5C 101.833,51.1667 101.833,51.8333 104.5,52.5C 104.65,54.1433 104.983,55.81 105.5,57.5C 105.119,58.9311 104.119,59.7645 102.5,60C 103.991,62.0217 103.658,63.6883 101.5,65C 102.448,65.4828 103.448,65.6495 104.5,65.5C 105.338,68.6864 106.338,71.8531 107.5,75C 107,76.5 106.5,78 106,79.5C 105.683,77.6992 105.016,77.3659 104,78.5C 103.348,76.2769 101.848,75.1102 99.5,75C 101.927,73.4455 101.927,72.2789 99.5,71.5C 98.8112,70.2928 98.6446,68.9594 99,67.5C 97.6439,66.6198 96.1439,66.2865 94.5,66.5C 93.3369,63.2638 93.6703,60.0971 95.5,57C 94.7282,55.779 93.7282,54.779 92.5,54C 93.3468,51.2824 94.3468,48.6157 95.5,46C 94.5,45.3333 93.5,45.3333 92.5,46C 91.7894,47.2547 90.956,48.4214 90,49.5C 88.698,46.6249 87.8647,43.6249 87.5,40.5C 86.5,40.5 85.5,40.5 84.5,40.5C 84.1583,39.6618 83.4916,39.3284 82.5,39.5C 79.7978,41.221 77.1311,42.8876 74.5,44.5C 74.4457,41.033 75.9457,38.3663 79,36.5C 79.4828,35.552 79.6495,34.552 79.5,33.5C 84.0308,33.3028 86.6974,30.9695 87.5,26.5C 93.4537,25.9574 99.4537,25.9574 105.5,26.5 Z"/></g>
<g><path style="opacity:1" fill="#eeded0" d="M 172.5,58.5 C 172.167,59.8333 171.833,59.8333 171.5,58.5C 170.558,49.0298 168.225,40.0298 164.5,31.5C 164.249,29.8297 163.582,28.3297 162.5,27C 159.853,25.7011 157.186,24.3678 154.5,23C 151.053,21.8907 148.386,22.8907 146.5,26C 145.5,26.1667 144.5,26.3333 143.5,26.5C 138.977,24.6574 134.477,22.6574 130,20.5C 127.068,23.7137 123.568,26.0471 119.5,27.5C 117.15,27.2921 115.484,26.1254 114.5,24C 113.333,23.8333 112.167,23.6667 111,23.5C 107.734,24.464 104.401,25.1307 101,25.5C 96.1804,24.634 91.3471,24.4674 86.5,25C 85.4293,25.8518 84.4293,26.6851 83.5,27.5C 78.0886,32.4086 72.7552,37.5753 67.5,43C 68.9285,43.5791 70.2618,43.4124 71.5,42.5C 71.6107,43.1174 71.944,43.6174 72.5,44C 66.5959,44.9802 61.9293,47.9802 58.5,53C 57.2068,53.49 55.8734,53.6567 54.5,53.5C 55.1667,52.5 55.8333,51.5 56.5,50.5C 66.9861,41.5139 76.9861,32.0139 86.5,22C 91.7132,21.7578 96.8799,22.2578 102,23.5C 105.271,23.2785 108.437,22.6119 111.5,21.5C 114.634,22.2407 117.634,23.2407 120.5,24.5C 122.299,24.423 123.966,23.923 125.5,23C 127.449,20.3794 129.949,18.5461 133,17.5C 135.927,18.717 138.427,20.5503 140.5,23C 142.833,23.6667 145.167,23.6667 147.5,23C 149.043,21.2863 150.71,19.7863 152.5,18.5C 159.048,20.8789 163.881,25.2123 167,31.5C 170.264,40.2221 172.098,49.2221 172.5,58.5 Z"/></g>
<g><path style="opacity:1" fill="#fdd4b3" d="M 129.5,37.5 C 128.542,37.9528 127.708,38.6195 127,39.5C 126.503,42.146 126.336,44.8127 126.5,47.5C 122.486,47.3345 118.486,47.5012 114.5,48C 114,48.5 113.5,49 113,49.5C 111.407,45.8387 110.241,42.172 109.5,38.5C 108.833,38.5 108.167,38.5 107.5,38.5C 106.175,37.0474 105.342,37.3808 105,39.5C 104.503,42.146 104.336,44.8127 104.5,47.5C 103.189,43.3171 103.189,38.9838 104.5,34.5C 105.167,33.5 105.833,32.5 106.5,31.5C 107.086,31.7093 107.586,32.0426 108,32.5C 110.808,31.594 113.308,30.9274 115.5,30.5C 109.762,30.7263 104.095,30.3929 98.5,29.5C 97.8333,29.1667 97.1667,28.8333 96.5,28.5C 99.6417,27.8326 102.642,27.166 105.5,26.5C 107.126,26.0617 108.793,25.7284 110.5,25.5C 113.402,27.2117 116.569,28.2117 120,28.5C 121.5,28.3333 123,28.1667 124.5,28C 126.224,27.5518 126.891,26.7185 126.5,25.5C 127.293,25.9312 128.127,26.2645 129,26.5C 132.91,23.7464 136.41,24.2464 139.5,28C 138,29.1145 136.333,29.9479 134.5,30.5C 133.548,32.0453 133.215,33.712 133.5,35.5C 131.517,35.1568 130.183,35.8235 129.5,37.5 Z"/></g>
<g><path style="opacity:1" fill="#f9d4b7" d="M 164.5,31.5 C 160.783,28.313 156.617,25.6463 152,23.5C 149.844,24.9851 147.677,26.4851 145.5,28C 148.702,28.5468 151.702,29.5468 154.5,31C 152.527,31.4955 150.527,31.6621 148.5,31.5C 148.993,33.8056 149.326,36.139 149.5,38.5C 148.833,38.5 148.167,38.5 147.5,38.5C 146.223,39.6936 145.556,41.3603 145.5,43.5C 145.962,47.5459 146.628,51.5459 147.5,55.5C 146.563,58.2695 145.396,60.9361 144,63.5C 143.667,61.1667 143.333,58.8333 143,56.5C 140.881,53.5226 139.714,53.856 139.5,57.5C 139.761,59.9498 140.428,62.2831 141.5,64.5C 139.669,68.2408 139.003,72.2408 139.5,76.5C 135.197,63.6124 131.863,50.6124 129.5,37.5C 130.183,35.8235 131.517,35.1568 133.5,35.5C 133.215,33.712 133.548,32.0453 134.5,30.5C 136.333,29.9479 138,29.1145 139.5,28C 136.41,24.2464 132.91,23.7464 129,26.5C 128.127,26.2645 127.293,25.9312 126.5,25.5C 126.891,26.7185 126.224,27.5518 124.5,28C 123,28.1667 121.5,28.3333 120,28.5C 116.569,28.2117 113.402,27.2117 110.5,25.5C 108.793,25.7284 107.126,26.0617 105.5,26.5C 99.4537,25.9574 93.4537,25.9574 87.5,26.5C 86.6974,30.9695 84.0308,33.3028 79.5,33.5C 80.8333,32.0665 82.3333,30.7332 84,29.5C 84.6917,28.5632 84.525,27.8966 83.5,27.5C 84.4293,26.6851 85.4293,25.8518 86.5,25C 91.3471,24.4674 96.1804,24.634 101,25.5C 104.401,25.1307 107.734,24.464 111,23.5C 112.167,23.6667 113.333,23.8333 114.5,24C 115.484,26.1254 117.15,27.2921 119.5,27.5C 123.568,26.0471 127.068,23.7137 130,20.5C 134.477,22.6574 138.977,24.6574 143.5,26.5C 144.5,26.3333 145.5,26.1667 146.5,26C 148.386,22.8907 151.053,21.8907 154.5,23C 157.186,24.3678 159.853,25.7011 162.5,27C 163.582,28.3297 164.249,29.8297 164.5,31.5 Z"/></g>
<g><path style="opacity:1" fill="#fbd5b6" d="M 164.5,31.5 C 168.225,40.0298 170.558,49.0298 171.5,58.5C 169.908,57.3984 169.075,58.065 169,60.5C 167.121,58.4732 165.954,56.1398 165.5,53.5C 166.338,53.1583 166.672,52.4916 166.5,51.5C 166.082,50.7784 165.416,50.2784 164.5,50C 165.747,48.5064 165.747,47.0064 164.5,45.5C 162.714,45.0429 160.714,45.0429 158.5,45.5C 160.113,46.4274 161.779,47.2607 163.5,48C 161.153,48.7119 159.153,49.8786 157.5,51.5C 158.75,54.0486 160.75,55.382 163.5,55.5C 163.665,58.5184 163.498,61.5184 163,64.5C 162.5,65 162,65.5 161.5,66C 163.25,67.3186 165.25,67.8186 167.5,67.5C 167.238,66.0222 167.571,64.6888 168.5,63.5C 168.833,63.8333 169.167,64.1667 169.5,64.5C 168.691,66.0709 168.357,67.7376 168.5,69.5C 165.167,69.5 161.833,69.5 158.5,69.5C 159.01,66.6122 158.344,64.2789 156.5,62.5C 153.549,54.6967 151.215,46.6967 149.5,38.5C 149.326,36.139 148.993,33.8056 148.5,31.5C 150.527,31.6621 152.527,31.4955 154.5,31C 151.702,29.5468 148.702,28.5468 145.5,28C 147.677,26.4851 149.844,24.9851 152,23.5C 156.617,25.6463 160.783,28.313 164.5,31.5 Z"/></g>
<g><path style="opacity:1" fill="#584438" d="M 83.5,27.5 C 84.525,27.8966 84.6917,28.5632 84,29.5C 82.3333,30.7332 80.8333,32.0665 79.5,33.5C 76.8621,36.4744 74.1954,39.4744 71.5,42.5C 70.2618,43.4124 68.9285,43.5791 67.5,43C 72.7552,37.5753 78.0886,32.4086 83.5,27.5 Z"/></g>
<g><path style="opacity:1" fill="#eebd97" d="M 129.5,37.5 C 130.407,51.1302 132.907,64.4635 137,77.5C 137.805,80.6965 137.638,83.6965 136.5,86.5C 133.894,84.5789 133.894,82.5789 136.5,80.5C 135.855,79.354 135.022,78.354 134,77.5C 133.022,71.59 131.522,65.9233 129.5,60.5C 128.972,55.6867 127.972,51.3533 126.5,47.5C 126.336,44.8127 126.503,42.146 127,39.5C 127.708,38.6195 128.542,37.9528 129.5,37.5 Z"/></g>
<g><path style="opacity:1" fill="#f8d4b6" d="M 79.5,33.5 C 79.6495,34.552 79.4828,35.552 79,36.5C 75.9457,38.3663 74.4457,41.033 74.5,44.5C 77.1311,42.8876 79.7978,41.221 82.5,39.5C 83.2294,44.2931 85.0627,48.6264 88,52.5C 88.4966,54.8098 88.6633,57.1432 88.5,59.5C 87.3702,59.4685 86.0369,59.8019 84.5,60.5C 82.173,57.9371 80.673,54.9371 80,51.5C 79.2613,52.5742 78.2613,53.2409 77,53.5C 75.2341,52.7665 73.4008,52.4332 71.5,52.5C 70.2288,56.6223 67.7288,58.9557 64,59.5C 63.3333,60.5 63.3333,61.5 64,62.5C 65.3876,61.4464 66.8876,61.2797 68.5,62C 66.1144,62.2835 65.4477,63.2835 66.5,65C 70.3776,66.4698 74.3776,67.3031 78.5,67.5C 77.376,68.8086 75.876,69.4753 74,69.5C 71.3432,68.9226 68.8432,67.9226 66.5,66.5C 66.1667,66.8333 65.8333,67.1667 65.5,67.5C 67.9169,70.0419 70.9169,71.5419 74.5,72C 69.1833,85.1039 73.5167,91.7706 87.5,92C 89.645,94.574 92.3117,96.4074 95.5,97.5C 96.3857,98.325 96.719,99.325 96.5,100.5C 95.8333,100.5 95.1667,100.5 94.5,100.5C 94.5858,99.5041 94.2524,98.6708 93.5,98C 87.7993,95.2155 81.7993,93.3821 75.5,92.5C 72.6343,89.4207 70.801,85.754 70,81.5C 69.8771,78.386 69.7104,75.386 69.5,72.5C 67.5708,71.6198 65.7374,70.6198 64,69.5C 62.8382,70.1868 61.6716,70.3534 60.5,70C 58.981,68.6487 57.6477,67.1487 56.5,65.5C 55.0633,68.0409 53.8966,70.7076 53,73.5C 52.3992,71.6412 51.5659,71.3079 50.5,72.5C 49.603,71.4019 48.7697,71.4019 48,72.5C 46.6908,67.9342 46.1908,63.2675 46.5,58.5C 46.33,57.1779 46.6634,56.0113 47.5,55C 49.9204,54.7096 52.2537,54.2096 54.5,53.5C 55.8734,53.6567 57.2068,53.49 58.5,53C 61.9293,47.9802 66.5959,44.9802 72.5,44C 71.944,43.6174 71.6107,43.1174 71.5,42.5C 74.1954,39.4744 76.8621,36.4744 79.5,33.5 Z"/></g>
<g><path style="opacity:1" fill="#ebf3f0" d="M 56.5,48.5 C 55.8333,48.8333 55.1667,49.1667 54.5,49.5C 47.9095,49.4798 41.9095,51.3131 36.5,55C 34.5359,56.451 33.2026,58.2843 32.5,60.5C 30.5905,61.9746 29.4238,63.9746 29,66.5C 28.3167,73.8615 28.4833,81.1948 29.5,88.5C 25.3689,79.6048 24.5355,70.2715 27,60.5C 33.7424,48.0106 44.2424,43.1773 58.5,46C 57.6195,46.7083 56.9528,47.5416 56.5,48.5 Z"/></g>
<g><path style="opacity:1" fill="#fbceab" d="M 88.5,59.5 C 89.6118,61.5994 90.2785,63.9327 90.5,66.5C 88.857,66.5198 87.5237,65.8532 86.5,64.5C 84.0207,66.0761 81.354,67.0761 78.5,67.5C 74.3776,67.3031 70.3776,66.4698 66.5,65C 65.4477,63.2835 66.1144,62.2835 68.5,62C 66.8876,61.2797 65.3876,61.4464 64,62.5C 63.3333,61.5 63.3333,60.5 64,59.5C 67.7288,58.9557 70.2288,56.6223 71.5,52.5C 73.4008,52.4332 75.2341,52.7665 77,53.5C 78.2613,53.2409 79.2613,52.5742 80,51.5C 80.673,54.9371 82.173,57.9371 84.5,60.5C 86.0369,59.8019 87.3702,59.4685 88.5,59.5 Z"/></g>
<g><path style="opacity:1" fill="#704a2c" d="M 166.5,51.5 C 166.672,52.4916 166.338,53.1583 165.5,53.5C 164.243,52.3774 164.576,51.7107 166.5,51.5 Z"/></g>
<g><path style="opacity:1" fill="#f4cdae" d="M 166.5,51.5 C 164.576,51.7107 164.243,52.3774 165.5,53.5C 165.954,56.1398 167.121,58.4732 169,60.5C 169.075,58.065 169.908,57.3984 171.5,58.5C 171.833,59.8333 172.167,59.8333 172.5,58.5C 173.648,62.9811 173.815,67.6478 173,72.5C 172.31,74.3502 171.144,75.6836 169.5,76.5C 164.203,77.0325 164.203,77.8658 169.5,79C 167.408,81.036 165.074,82.536 162.5,83.5C 161.167,83.5 159.833,83.5 158.5,83.5C 158.659,76.4107 157.993,69.4107 156.5,62.5C 158.344,64.2789 159.01,66.6122 158.5,69.5C 161.833,69.5 165.167,69.5 168.5,69.5C 168.357,67.7376 168.691,66.0709 169.5,64.5C 169.167,64.1667 168.833,63.8333 168.5,63.5C 167.571,64.6888 167.238,66.0222 167.5,67.5C 165.25,67.8186 163.25,67.3186 161.5,66C 162,65.5 162.5,65 163,64.5C 163.498,61.5184 163.665,58.5184 163.5,55.5C 160.75,55.382 158.75,54.0486 157.5,51.5C 159.153,49.8786 161.153,48.7119 163.5,48C 161.779,47.2607 160.113,46.4274 158.5,45.5C 160.714,45.0429 162.714,45.0429 164.5,45.5C 165.747,47.0064 165.747,48.5064 164.5,50C 165.416,50.2784 166.082,50.7784 166.5,51.5 Z"/></g>
<g><path style="opacity:1" fill="#f9d0af" d="M 129.5,60.5 C 131.522,65.9233 133.022,71.59 134,77.5C 135.022,78.354 135.855,79.354 136.5,80.5C 133.894,82.5789 133.894,84.5789 136.5,86.5C 136.53,87.4972 136.03,88.1639 135,88.5C 131.847,89.5633 128.68,90.5633 125.5,91.5C 128.34,92.1873 131.007,92.5206 133.5,92.5C 127.282,96.2537 120.949,96.4204 114.5,93C 115.085,91.6976 115.751,90.531 116.5,89.5C 117.518,88.7079 117.851,87.0412 117.5,84.5C 119.674,84.9202 121.674,84.9202 123.5,84.5C 121.922,83.7022 120.256,83.2022 118.5,83C 117.978,82.4387 117.645,81.772 117.5,81C 119.376,74.3414 120.043,67.5081 119.5,60.5C 116.879,60.5228 115.545,59.1895 115.5,56.5C 116.909,51.3513 118.909,51.1847 121.5,56C 121.167,56.3333 120.833,56.6667 120.5,57C 121.191,58.0674 121.691,59.2341 122,60.5C 123.84,59.1669 124.34,59.3335 123.5,61C 125.23,64.8515 126.063,69.0182 126,73.5C 126.473,71.221 127.473,69.221 129,67.5C 129.497,65.1902 129.663,62.8568 129.5,60.5 Z"/></g>
<g><path style="opacity:1" fill="#fdd4b5" d="M 75.5,92.5 C 70.1563,92.666 64.8229,92.4994 59.5,92C 59.8333,91.6667 60.1667,91.3333 60.5,91C 57.4082,87.154 54.4082,83.3206 51.5,79.5C 50.5258,77.2573 50.1924,74.924 50.5,72.5C 51.5659,71.3079 52.3992,71.6412 53,73.5C 53.8966,70.7076 55.0633,68.0409 56.5,65.5C 57.6477,67.1487 58.981,68.6487 60.5,70C 61.6716,70.3534 62.8382,70.1868 64,69.5C 65.7374,70.6198 67.5708,71.6198 69.5,72.5C 69.7104,75.386 69.8771,78.386 70,81.5C 70.801,85.754 72.6343,89.4207 75.5,92.5 Z"/></g>
<g><path style="opacity:1" fill="#f4cfb5" d="M 109.5,38.5 C 110.241,42.172 111.407,45.8387 113,49.5C 113.5,49 114,48.5 114.5,48C 118.486,47.5012 122.486,47.3345 126.5,47.5C 127.972,51.3533 128.972,55.6867 129.5,60.5C 129.663,62.8568 129.497,65.1902 129,67.5C 127.473,69.221 126.473,71.221 126,73.5C 126.063,69.0182 125.23,64.8515 123.5,61C 124.34,59.3335 123.84,59.1669 122,60.5C 121.691,59.2341 121.191,58.0674 120.5,57C 120.833,56.6667 121.167,56.3333 121.5,56C 118.909,51.1847 116.909,51.3513 115.5,56.5C 115.545,59.1895 116.879,60.5228 119.5,60.5C 120.043,67.5081 119.376,74.3414 117.5,81C 117.645,81.772 117.978,82.4387 118.5,83C 120.256,83.2022 121.922,83.7022 123.5,84.5C 121.674,84.9202 119.674,84.9202 117.5,84.5C 117.851,87.0412 117.518,88.7079 116.5,89.5C 116.083,80.8327 115.583,72.1661 115,63.5C 114.259,57.8683 112.593,52.535 110,47.5C 109.502,44.5184 109.335,41.5184 109.5,38.5 Z"/></g>
<g><path style="opacity:1" fill="#5d4534" d="M 107.5,38.5 C 108.167,38.5 108.833,38.5 109.5,38.5C 109.335,41.5184 109.502,44.5184 110,47.5C 112.593,52.535 114.259,57.8683 115,63.5C 115.583,72.1661 116.083,80.8327 116.5,89.5C 115.751,90.531 115.085,91.6976 114.5,93C 120.949,96.4204 127.282,96.2537 133.5,92.5C 133.5,93.1667 133.5,93.8333 133.5,94.5C 132.319,96.0672 130.653,96.9005 128.5,97C 123.342,97.91 118.342,97.41 113.5,95.5C 108.861,98.1337 103.861,99.1337 98.5,98.5C 98.5,100.167 98.5,101.833 98.5,103.5C 97.8333,102.5 97.1667,101.5 96.5,100.5C 96.719,99.325 96.3857,98.325 95.5,97.5C 92.3117,96.4074 89.645,94.574 87.5,92C 73.5167,91.7706 69.1833,85.1039 74.5,72C 70.9169,71.5419 67.9169,70.0419 65.5,67.5C 65.8333,67.1667 66.1667,66.8333 66.5,66.5C 68.8432,67.9226 71.3432,68.9226 74,69.5C 75.876,69.4753 77.376,68.8086 78.5,67.5C 81.354,67.0761 84.0207,66.0761 86.5,64.5C 87.5237,65.8532 88.857,66.5198 90.5,66.5C 90.2785,63.9327 89.6118,61.5994 88.5,59.5C 88.6633,57.1432 88.4966,54.8098 88,52.5C 85.0627,48.6264 83.2294,44.2931 82.5,39.5C 83.4916,39.3284 84.1583,39.6618 84.5,40.5C 85.4783,44.6064 87.3117,48.2731 90,51.5C 90.2274,58.1788 92.0607,64.3455 95.5,70C 95.3535,71.7271 94.6869,71.8938 93.5,70.5C 92.7492,71.376 92.2492,72.376 92,73.5C 91.8771,76.614 91.7104,79.614 91.5,82.5C 90.2251,78.1488 90.2251,73.8155 91.5,69.5C 79.1536,67.0141 73.6536,72.0141 75,84.5C 77.703,89.7683 81.5363,90.7683 86.5,87.5C 87.84,88.8665 89.1733,90.1999 90.5,91.5C 92.4101,93.5617 94.7435,95.0617 97.5,96C 103.7,97.6346 109.033,96.3013 113.5,92C 101.533,91.8486 101.533,90.682 113.5,88.5C 114.803,85.3553 114.803,82.3553 113.5,79.5C 114.564,68.3203 112.73,57.6537 108,47.5C 107.502,44.5184 107.335,41.5184 107.5,38.5 Z"/></g>
<g><path style="opacity:1" fill="#f9cfab" d="M 105.5,57.5 C 107.626,60.8653 109.126,64.532 110,68.5C 110.928,74.8161 111.761,81.1494 112.5,87.5C 113.48,84.9135 113.813,82.2469 113.5,79.5C 114.803,82.3553 114.803,85.3553 113.5,88.5C 101.533,90.682 101.533,91.8486 113.5,92C 109.033,96.3013 103.7,97.6346 97.5,96C 94.7435,95.0617 92.4101,93.5617 90.5,91.5C 89.7784,88.0988 88.6117,85.0988 87,82.5C 89.418,83.5472 91.918,85.2139 94.5,87.5C 98.7783,86.4533 103.112,85.6199 107.5,85C 106.809,83.9326 106.309,82.7659 106,81.5C 105.667,81.8333 105.333,82.1667 105,82.5C 101.871,81.8702 98.7041,81.2036 95.5,80.5C 96.2634,79.2807 97.2634,78.2807 98.5,77.5C 98.1667,76.8333 97.8333,76.1667 97.5,75.5C 98.6302,74.3777 99.2969,73.0443 99.5,71.5C 101.927,72.2789 101.927,73.4455 99.5,75C 101.848,75.1102 103.348,76.2769 104,78.5C 105.016,77.3659 105.683,77.6992 106,79.5C 106.5,78 107,76.5 107.5,75C 106.338,71.8531 105.338,68.6864 104.5,65.5C 103.448,65.6495 102.448,65.4828 101.5,65C 103.658,63.6883 103.991,62.0217 102.5,60C 104.119,59.7645 105.119,58.9311 105.5,57.5 Z"/></g>
<g><path style="opacity:1" fill="#f6d3b5" d="M 84.5,40.5 C 85.5,40.5 86.5,40.5 87.5,40.5C 87.8647,43.6249 88.698,46.6249 90,49.5C 90.956,48.4214 91.7894,47.2547 92.5,46C 93.5,45.3333 94.5,45.3333 95.5,46C 94.3468,48.6157 93.3468,51.2824 92.5,54C 93.7282,54.779 94.7282,55.779 95.5,57C 93.6703,60.0971 93.3369,63.2638 94.5,66.5C 96.1439,66.2865 97.6439,66.6198 99,67.5C 98.6446,68.9594 98.8112,70.2928 99.5,71.5C 99.2969,73.0443 98.6302,74.3777 97.5,75.5C 97.8333,76.1667 98.1667,76.8333 98.5,77.5C 97.2634,78.2807 96.2634,79.2807 95.5,80.5C 98.7041,81.2036 101.871,81.8702 105,82.5C 105.333,82.1667 105.667,81.8333 106,81.5C 106.309,82.7659 106.809,83.9326 107.5,85C 103.112,85.6199 98.7783,86.4533 94.5,87.5C 91.918,85.2139 89.418,83.5472 87,82.5C 88.6117,85.0988 89.7784,88.0988 90.5,91.5C 89.1733,90.1999 87.84,88.8665 86.5,87.5C 81.5363,90.7683 77.703,89.7683 75,84.5C 73.6536,72.0141 79.1536,67.0141 91.5,69.5C 90.2251,73.8155 90.2251,78.1488 91.5,82.5C 91.7104,79.614 91.8771,76.614 92,73.5C 92.2492,72.376 92.7492,71.376 93.5,70.5C 94.6869,71.8938 95.3535,71.7271 95.5,70C 92.0607,64.3455 90.2274,58.1788 90,51.5C 87.3117,48.2731 85.4783,44.6064 84.5,40.5 Z"/></g>
<g><path style="opacity:1" fill="#704f33" d="M 99.5,56.5 C 101.337,56.6395 101.67,57.3061 100.5,58.5C 99.7025,58.0431 99.3691,57.3764 99.5,56.5 Z"/></g>
<g><path style="opacity:1" fill="#78563c" d="M 98.5,52.5 C 100.337,52.6395 100.67,53.3061 99.5,54.5C 98.7025,54.0431 98.3691,53.3764 98.5,52.5 Z"/></g>
<g><path style="opacity:1" fill="#5f3d28" d="M 104.5,50.5 C 104.5,51.1667 104.5,51.8333 104.5,52.5C 101.833,51.8333 101.833,51.1667 104.5,50.5 Z"/></g>
<g><path style="opacity:1" fill="#474b39" d="M 56.5,48.5 C 56.5,49.1667 56.5,49.8333 56.5,50.5C 55.8333,51.5 55.1667,52.5 54.5,53.5C 52.2537,54.2096 49.9204,54.7096 47.5,55C 46.6634,56.0113 46.33,57.1779 46.5,58.5C 44.9542,65.1882 45.4542,71.8549 48,78.5C 51.2519,84.2518 55.0853,89.5851 59.5,94.5C 61.3488,96.1742 63.5155,97.1742 66,97.5C 73.7928,95.8285 80.9594,97.1619 87.5,101.5C 86.5,101.5 85.5,101.5 84.5,101.5C 83.5,101.5 82.5,101.5 81.5,101.5C 80.3192,99.9328 78.6526,99.0995 76.5,99C 71.1667,98.6667 65.8333,98.3333 60.5,98C 48.3518,87.5426 42.8518,74.376 44,58.5C 44.9409,53.3485 48.1076,51.0151 53.5,51.5C 53.8627,50.8165 54.1961,50.1499 54.5,49.5C 55.1667,49.1667 55.8333,48.8333 56.5,48.5 Z"/></g>
<g><path style="opacity:1" fill="#f0be93" d="M 107.5,38.5 C 107.335,41.5184 107.502,44.5184 108,47.5C 112.73,57.6537 114.564,68.3203 113.5,79.5C 113.813,82.2469 113.48,84.9135 112.5,87.5C 111.761,81.1494 110.928,74.8161 110,68.5C 109.126,64.532 107.626,60.8653 105.5,57.5C 104.983,55.81 104.65,54.1433 104.5,52.5C 104.5,51.8333 104.5,51.1667 104.5,50.5C 104.5,49.5 104.5,48.5 104.5,47.5C 104.336,44.8127 104.503,42.146 105,39.5C 105.342,37.3808 106.175,37.0474 107.5,38.5 Z"/></g>
<g><path style="opacity:1" fill="#5e4736" d="M 129.5,37.5 C 131.863,50.6124 135.197,63.6124 139.5,76.5C 139.985,81.9955 138.985,87.1621 136.5,92C 142.767,94.6045 148.434,93.6045 153.5,89C 144.167,88 144.167,87 153.5,86C 154.756,85.5831 155.423,84.7498 155.5,83.5C 156.645,79.6888 156.812,75.6888 156,71.5C 153.005,60.5174 150.171,49.5174 147.5,38.5C 148.167,38.5 148.833,38.5 149.5,38.5C 151.215,46.6967 153.549,54.6967 156.5,62.5C 157.993,69.4107 158.659,76.4107 158.5,83.5C 159.833,83.5 161.167,83.5 162.5,83.5C 162.167,84.1667 161.833,84.8333 161.5,85.5C 160.078,85.7086 158.745,86.2086 157.5,87C 155.443,90.7229 152.443,93.3896 148.5,95C 143.472,95.5883 138.472,95.4216 133.5,94.5C 133.5,93.8333 133.5,93.1667 133.5,92.5C 131.007,92.5206 128.34,92.1873 125.5,91.5C 128.68,90.5633 131.847,89.5633 135,88.5C 136.03,88.1639 136.53,87.4972 136.5,86.5C 137.638,83.6965 137.805,80.6965 137,77.5C 132.907,64.4635 130.407,51.1302 129.5,37.5 Z"/></g>
<g><path style="opacity:1" fill="#fad1af" d="M 147.5,55.5 C 150.48,64.1767 152.313,73.1767 153,82.5C 153.671,83.2524 154.504,83.5858 155.5,83.5C 155.423,84.7498 154.756,85.5831 153.5,86C 144.167,87 144.167,88 153.5,89C 148.434,93.6045 142.767,94.6045 136.5,92C 138.985,87.1621 139.985,81.9955 139.5,76.5C 139.003,72.2408 139.669,68.2408 141.5,64.5C 140.428,62.2831 139.761,59.9498 139.5,57.5C 139.714,53.856 140.881,53.5226 143,56.5C 143.333,58.8333 143.667,61.1667 144,63.5C 145.396,60.9361 146.563,58.2695 147.5,55.5 Z"/></g>
<g><path style="opacity:1" fill="#f2bf95" d="M 147.5,38.5 C 150.171,49.5174 153.005,60.5174 156,71.5C 156.812,75.6888 156.645,79.6888 155.5,83.5C 154.504,83.5858 153.671,83.2524 153,82.5C 152.313,73.1767 150.48,64.1767 147.5,55.5C 146.628,51.5459 145.962,47.5459 145.5,43.5C 145.556,41.3603 146.223,39.6936 147.5,38.5 Z"/></g>
<g><path style="opacity:1" fill="#755237" d="M 144.5,52.5 C 146.337,52.6395 146.67,53.3061 145.5,54.5C 144.702,54.0431 144.369,53.3764 144.5,52.5 Z"/></g>
<g><path style="opacity:1" fill="#6c533a" d="M 141.5,47.5 C 143.337,47.6395 143.67,48.3061 142.5,49.5C 141.702,49.0431 141.369,48.3764 141.5,47.5 Z"/></g>
<g><path style="opacity:1" fill="#5c453a" d="M 130.5,85.5 C 131.675,85.281 132.675,85.6143 133.5,86.5C 131.401,88.5202 129.067,88.8535 126.5,87.5C 127.949,86.8281 129.282,86.1614 130.5,85.5 Z"/></g>
<g><path style="opacity:1" fill="#efc097" d="M 46.5,58.5 C 46.1908,63.2675 46.6908,67.9342 48,72.5C 48.7697,71.4019 49.603,71.4019 50.5,72.5C 50.1924,74.924 50.5258,77.2573 51.5,79.5C 54.4082,83.3206 57.4082,87.154 60.5,91C 60.1667,91.3333 59.8333,91.6667 59.5,92C 64.8229,92.4994 70.1563,92.666 75.5,92.5C 81.7993,93.3821 87.7993,95.2155 93.5,98C 94.2524,98.6708 94.5858,99.5041 94.5,100.5C 92.3926,101.468 90.0593,101.802 87.5,101.5C 80.9594,97.1619 73.7928,95.8285 66,97.5C 63.5155,97.1742 61.3488,96.1742 59.5,94.5C 55.0853,89.5851 51.2519,84.2518 48,78.5C 45.4542,71.8549 44.9542,65.1882 46.5,58.5 Z"/></g>
<g><path style="opacity:1" fill="#eebc95" d="M 161.5,85.5 C 162.124,85.9169 162.457,86.5836 162.5,87.5C 161.59,91.2377 159.59,94.2377 156.5,96.5C 153.674,92.5988 152.341,93.2654 152.5,98.5C 142.917,99.7677 133.417,101.434 124,103.5C 121.022,103.852 118.522,103.018 116.5,101C 109.703,98.6907 105.37,100.857 103.5,107.5C 101.185,106.84 99.5186,105.507 98.5,103.5C 98.5,101.833 98.5,100.167 98.5,98.5C 103.861,99.1337 108.861,98.1337 113.5,95.5C 118.342,97.41 123.342,97.91 128.5,97C 130.653,96.9005 132.319,96.0672 133.5,94.5C 138.472,95.4216 143.472,95.5883 148.5,95C 152.443,93.3896 155.443,90.7229 157.5,87C 158.745,86.2086 160.078,85.7086 161.5,85.5 Z"/></g>
<g><path style="opacity:1" fill="#5c4f47" d="M 169.5,76.5 C 170.341,78.3792 170.675,80.3792 170.5,82.5C 168.978,83.4312 167.645,84.5979 166.5,86C 164.83,94.0372 160.163,99.3705 152.5,102C 136.744,104.565 121.077,107.399 105.5,110.5C 101.473,110.654 98.4726,108.987 96.5,105.5C 92.8384,104.687 89.1718,104.021 85.5,103.5C 85.1667,102.833 84.8333,102.167 84.5,101.5C 85.5,101.5 86.5,101.5 87.5,101.5C 90.0593,101.802 92.3926,101.468 94.5,100.5C 95.1667,100.5 95.8333,100.5 96.5,100.5C 97.1667,101.5 97.8333,102.5 98.5,103.5C 99.5186,105.507 101.185,106.84 103.5,107.5C 105.37,100.857 109.703,98.6907 116.5,101C 118.522,103.018 121.022,103.852 124,103.5C 133.417,101.434 142.917,99.7677 152.5,98.5C 152.341,93.2654 153.674,92.5988 156.5,96.5C 159.59,94.2377 161.59,91.2377 162.5,87.5C 162.457,86.5836 162.124,85.9169 161.5,85.5C 161.833,84.8333 162.167,84.1667 162.5,83.5C 165.074,82.536 167.408,81.036 169.5,79C 164.203,77.8658 164.203,77.0325 169.5,76.5 Z M 108.5,102.5 C 110.924,102.192 113.257,102.526 115.5,103.5C 113.112,105.361 110.446,106.694 107.5,107.5C 106.316,105.533 106.649,103.866 108.5,102.5 Z"/></g>
<g><path style="opacity:1" fill="#408266" d="M 54.5,49.5 C 54.1961,50.1499 53.8627,50.8165 53.5,51.5C 48.1076,51.0151 44.9409,53.3485 44,58.5C 42.8518,74.376 48.3518,87.5426 60.5,98C 65.8333,98.3333 71.1667,98.6667 76.5,99C 78.6526,99.0995 80.3192,99.9328 81.5,101.5C 80.7721,103.735 79.4388,105.568 77.5,107C 55.663,116.108 39.663,109.942 29.5,88.5C 28.4833,81.1948 28.3167,73.8615 29,66.5C 29.4238,63.9746 30.5905,61.9746 32.5,60.5C 33.2026,58.2843 34.5359,56.451 36.5,55C 41.9095,51.3131 47.9095,49.4798 54.5,49.5 Z"/></g>
<g><path style="opacity:1" fill="#3d906d" d="M 32.5,60.5 C 33.9616,59.5423 35.2949,58.3756 36.5,57C 39.8061,56.0694 40.4727,57.0694 38.5,60C 38.7692,61.6075 39.6026,62.7741 41,63.5C 40.4983,71.3523 41.9983,78.6856 45.5,85.5C 46.9019,85.8655 47.9019,86.6988 48.5,88C 47.0474,89.7131 47.2141,91.2131 49,92.5C 49.3333,91.8333 49.6667,91.1667 50,90.5C 53.1738,94.178 56.6738,97.5114 60.5,100.5C 60.2907,101.086 59.9574,101.586 59.5,102C 53.3672,102.645 47.3672,101.979 41.5,100C 37.8184,97.6567 35.8184,94.3234 35.5,90C 29.7924,83.6268 27.959,76.1268 30,67.5C 31.9028,65.559 32.7361,63.2257 32.5,60.5 Z"/></g>
</svg>
