<?xml version="1.0" encoding="UTF-8"?>
<!DOCTYPE svg PUBLIC "-//W3C//DTD SVG 1.1//EN" "http://www.w3.org/Graphics/SVG/1.1/DTD/svg11.dtd">
<svg xmlns="http://www.w3.org/2000/svg" version="1.1" width="200px" height="150px" style="shape-rendering:geometricPrecision; text-rendering:geometricPrecision; image-rendering:optimizeQuality; fill-rule:evenodd; clip-rule:evenodd" xmlns:xlink="http://www.w3.org/1999/xlink">
<g><path style="opacity:1" fill="#5f4536" d="M 149.5,25.5 C 148.171,28.4799 145.837,29.8132 142.5,29.5C 140.324,28.2867 139.991,26.62 141.5,24.5C 142.833,23.1667 144.167,23.1667 145.5,24.5C 144.5,25.1667 143.5,25.8333 142.5,26.5C 144.259,27.754 145.759,27.4206 147,25.5C 147.165,21.0233 144.998,19.5233 140.5,21C 138.578,22.4196 137.245,24.2529 136.5,26.5C 135.893,26.3764 135.56,26.0431 135.5,25.5C 135.433,24.0413 135.766,22.7079 136.5,21.5C 139.246,18.6946 142.579,17.8613 146.5,19C 148.451,20.7342 149.451,22.9009 149.5,25.5 Z"/></g>
<g><path style="opacity:1" fill="#6b6a6a" d="M 136.5,10.5 C 137.514,11.6737 138.847,12.3404 140.5,12.5C 138.131,13.69 136.131,15.3567 134.5,17.5C 133.833,17.5 133.5,17.8333 133.5,18.5C 132.167,18.5 131.5,19.1667 131.5,20.5C 130.833,20.5 130.5,20.8333 130.5,21.5C 129.833,21.5 129.5,21.8333 129.5,22.5C 128.662,22.8417 128.328,23.5084 128.5,24.5C 127.833,24.5 127.5,24.8333 127.5,25.5C 126.833,25.5 126.5,25.8333 126.5,26.5C 125.662,26.8417 125.328,27.5084 125.5,28.5C 124.833,28.5 124.5,28.8333 124.5,29.5C 123.662,29.8417 123.328,30.5084 123.5,31.5C 123.167,31.5 122.833,31.5 122.5,31.5C 122.068,30.2905 121.401,29.2905 120.5,28.5C 124.063,20.9363 129.396,14.9363 136.5,10.5 Z"/></g>
<g><path style="opacity:0.941" fill="#f4e0cd" d="M 150.5,13.5 C 150.973,14.9063 151.973,15.573 153.5,15.5C 153.5,16.1667 153.833,16.5 154.5,16.5C 154.5,17.1667 154.833,17.5 155.5,17.5C 155.5,18.1667 155.833,18.5 156.5,18.5C 157.167,18.5 157.5,18.8333 157.5,19.5C 158.434,20.5676 158.768,21.901 158.5,23.5C 156.418,23.528 154.584,22.8613 153,21.5C 152.527,23.779 151.527,25.779 150,27.5C 149.536,26.9056 149.369,26.2389 149.5,25.5C 149.451,22.9009 148.451,20.7342 146.5,19C 142.579,17.8613 139.246,18.6946 136.5,21.5C 132.761,22.0393 130.094,24.0393 128.5,27.5C 127.566,28.5676 127.232,29.901 127.5,31.5C 126.5,31.5 125.5,31.5 124.5,31.5C 124.5,30.8333 124.5,30.1667 124.5,29.5C 125.167,29.5 125.5,29.1667 125.5,28.5C 126.338,28.1583 126.672,27.4916 126.5,26.5C 127.167,26.5 127.5,26.1667 127.5,25.5C 128.167,25.5 128.5,25.1667 128.5,24.5C 129.338,24.1583 129.672,23.4916 129.5,22.5C 130.167,22.5 130.5,22.1667 130.5,21.5C 131.167,21.5 131.5,21.1667 131.5,20.5C 132.5,20.1667 133.167,19.5 133.5,18.5C 134.167,18.5 134.5,18.1667 134.5,17.5C 136.78,16.3599 139.114,15.1932 141.5,14C 144.482,13.502 147.482,13.3354 150.5,13.5 Z"/></g>
<g><path style="opacity:0.941" fill="#625e5c" d="M 147.5,37.5 C 149.135,35.1901 150.801,32.8567 152.5,30.5C 155.19,28.8065 157.19,26.4732 158.5,23.5C 158.768,21.901 158.434,20.5676 157.5,19.5C 157.5,18.8333 157.167,18.5 156.5,18.5C 155.833,18.5 155.5,18.1667 155.5,17.5C 154.833,17.5 154.5,17.1667 154.5,16.5C 153.833,16.5 153.5,16.1667 153.5,15.5C 153.027,14.0937 152.027,13.427 150.5,13.5C 147.476,11.2243 144.143,10.8909 140.5,12.5C 138.847,12.3404 137.514,11.6737 136.5,10.5C 146.002,5.83403 153.836,7.83403 160,16.5C 162.19,21.0277 161.856,25.3611 159,29.5C 155.544,32.802 151.711,35.4687 147.5,37.5 Z"/></g>
<g><path style="opacity:1" fill="#f7d4b4" d="M 142.5,29.5 C 142.918,30.2216 143.584,30.7216 144.5,31C 139.816,34.9411 135.482,39.1077 131.5,43.5C 133.267,40.2233 135.267,37.0566 137.5,34C 136.101,33.4054 134.768,33.5721 133.5,34.5C 131.164,33.4061 131.164,32.0728 133.5,30.5C 133.023,29.5224 132.357,28.6891 131.5,28C 132.893,26.8289 133.727,25.3289 134,23.5C 134.278,24.4158 134.778,25.0825 135.5,25.5C 135.56,26.0431 135.893,26.3764 136.5,26.5C 137.245,24.2529 138.578,22.4196 140.5,21C 144.998,19.5233 147.165,21.0233 147,25.5C 145.759,27.4206 144.259,27.754 142.5,26.5C 143.5,25.8333 144.5,25.1667 145.5,24.5C 144.167,23.1667 142.833,23.1667 141.5,24.5C 139.991,26.62 140.324,28.2867 142.5,29.5 Z"/></g>
<g><path style="opacity:1" fill="#f3dbc6" d="M 128.5,27.5 C 128.357,29.2624 128.691,30.9291 129.5,32.5C 128.284,33.0959 126.951,33.2626 125.5,33C 125.833,33.3333 126.167,33.6667 126.5,34C 124.821,36.2007 122.821,38.034 120.5,39.5C 119.754,40.7362 119.421,42.0695 119.5,43.5C 117.255,44.2919 116.922,45.6253 118.5,47.5C 112.567,50.6518 107.567,54.9851 103.5,60.5C 99.4202,61.8644 96.0869,64.1977 93.5,67.5C 91.396,67.2011 89.396,67.5344 87.5,68.5C 86.0412,72.0631 85.0412,75.7298 84.5,79.5C 83.8333,79.5 83.1667,79.5 82.5,79.5C 83.8216,74.5721 84.8216,69.5721 85.5,64.5C 88.6275,65.6181 91.6275,65.4514 94.5,64C 97.1667,62.3333 99.8333,60.6667 102.5,59C 104.79,57.2228 106.457,55.0562 107.5,52.5C 108.338,52.1583 108.672,51.4916 108.5,50.5C 109.167,50.5 109.5,50.1667 109.5,49.5C 110.167,49.5 110.5,49.1667 110.5,48.5C 111.167,48.5 111.5,48.1667 111.5,47.5C 112.167,47.5 112.5,47.1667 112.5,46.5C 113.167,46.5 113.5,46.1667 113.5,45.5C 114.167,45.5 114.5,45.1667 114.5,44.5C 115.167,44.5 115.5,44.1667 115.5,43.5C 116.906,43.0269 117.573,42.0269 117.5,40.5C 118.167,40.5 118.5,40.1667 118.5,39.5C 119.833,39.1667 119.833,38.8333 118.5,38.5C 118.5,37.8333 118.833,37.5 119.5,37.5C 120.167,37.5 120.5,37.1667 120.5,36.5C 121.338,36.1583 121.672,35.4916 121.5,34.5C 122.167,34.5 122.5,34.1667 122.5,33.5C 123.338,33.1583 123.672,32.4916 123.5,31.5C 123.833,31.5 124.167,31.5 124.5,31.5C 125.5,31.5 126.5,31.5 127.5,31.5C 127.232,29.901 127.566,28.5676 128.5,27.5 Z"/></g>
<g><path style="opacity:1" fill="#fbd6b8" d="M 136.5,21.5 C 135.766,22.7079 135.433,24.0413 135.5,25.5C 134.778,25.0825 134.278,24.4158 134,23.5C 133.727,25.3289 132.893,26.8289 131.5,28C 132.357,28.6891 133.023,29.5224 133.5,30.5C 131.164,32.0728 131.164,33.4061 133.5,34.5C 134.768,33.5721 136.101,33.4054 137.5,34C 135.267,37.0566 133.267,40.2233 131.5,43.5C 129.453,45.5496 127.786,47.883 126.5,50.5C 125.833,50.1667 125.167,49.8333 124.5,49.5C 122.11,48.1092 120.443,46.1092 119.5,43.5C 119.421,42.0695 119.754,40.7362 120.5,39.5C 122.821,38.034 124.821,36.2007 126.5,34C 126.167,33.6667 125.833,33.3333 125.5,33C 126.951,33.2626 128.284,33.0959 129.5,32.5C 128.691,30.9291 128.357,29.2624 128.5,27.5C 130.094,24.0393 132.761,22.0393 136.5,21.5 Z"/></g>
<g><path style="opacity:1" fill="#5a4534" d="M 152.5,30.5 C 150.801,32.8567 149.135,35.1901 147.5,37.5C 145.567,37.7286 143.9,38.5619 142.5,40C 138.992,43.1754 135.825,46.6754 133,50.5C 132.617,49.944 132.117,49.6107 131.5,49.5C 137.578,42.0859 144.578,35.7526 152.5,30.5 Z"/></g>
<g><path style="opacity:1" fill="#eec098" d="M 158.5,23.5 C 157.19,26.4732 155.19,28.8065 152.5,30.5C 144.578,35.7526 137.578,42.0859 131.5,49.5C 130.833,49.8333 130.167,50.1667 129.5,50.5C 128.5,50.5 127.5,50.5 126.5,50.5C 127.786,47.883 129.453,45.5496 131.5,43.5C 135.482,39.1077 139.816,34.9411 144.5,31C 143.584,30.7216 142.918,30.2216 142.5,29.5C 145.837,29.8132 148.171,28.4799 149.5,25.5C 149.369,26.2389 149.536,26.9056 150,27.5C 151.527,25.779 152.527,23.779 153,21.5C 154.584,22.8613 156.418,23.528 158.5,23.5 Z"/></g>
<g><path style="opacity:1" fill="#5f472f" d="M 119.5,43.5 C 120.443,46.1092 122.11,48.1092 124.5,49.5C 124.672,50.4916 124.338,51.1583 123.5,51.5C 121.833,50.1667 120.167,48.8333 118.5,47.5C 116.922,45.6253 117.255,44.2919 119.5,43.5 Z"/></g>
<g><path style="opacity:0.902" fill="#626565" d="M 88.5,58.5 C 86.6505,59.8725 85.3172,59.3725 84.5,57C 83.5632,56.3083 82.8966,56.475 82.5,57.5C 76.9993,50.0568 69.9993,48.2235 61.5,52C 52.6466,56.2157 46.9799,63.049 44.5,72.5C 43.8333,72.5 43.5,72.8333 43.5,73.5C 42.5316,78.3939 41.1983,83.0606 39.5,87.5C 38.8826,87.3893 38.3826,87.056 38,86.5C 36.9914,88.0249 36.4914,89.6916 36.5,91.5C 36.1667,91.5 35.8333,91.5 35.5,91.5C 35.1583,90.6618 34.4916,90.3284 33.5,90.5C 33.5,89.5 33.5,88.5 33.5,87.5C 39.3339,83.3204 38.6672,81.6538 31.5,82.5C 29.847,82.3404 28.5137,81.6737 27.5,80.5C 31.0834,79.4822 34.7501,78.6489 38.5,78C 41.6797,60.3211 52.013,49.8211 69.5,46.5C 73.4499,46.761 77.1166,47.9277 80.5,50C 83.0762,53.0448 85.7429,55.8781 88.5,58.5 Z"/></g>
<g><path style="opacity:0.993" fill="#686766" d="M 120.5,28.5 C 121.401,29.2905 122.068,30.2905 122.5,31.5C 122.5,32.1667 122.5,32.8333 122.5,33.5C 121.833,33.5 121.5,33.8333 121.5,34.5C 120.662,34.8417 120.328,35.5084 120.5,36.5C 119.833,36.5 119.5,36.8333 119.5,37.5C 118.833,37.5 118.5,37.8333 118.5,38.5C 118.5,38.8333 118.5,39.1667 118.5,39.5C 117.833,39.5 117.5,39.8333 117.5,40.5C 116.094,40.9731 115.427,41.9731 115.5,43.5C 114.833,43.5 114.5,43.8333 114.5,44.5C 113.833,44.5 113.5,44.8333 113.5,45.5C 112.833,45.5 112.5,45.8333 112.5,46.5C 111.833,46.5 111.5,46.8333 111.5,47.5C 110.833,47.5 110.5,47.8333 110.5,48.5C 109.833,48.5 109.5,48.8333 109.5,49.5C 108.833,49.5 108.5,49.8333 108.5,50.5C 107.5,50.8333 106.833,51.5 106.5,52.5C 105.833,52.5 105.5,52.8333 105.5,53.5C 104.833,53.5 104.5,53.8333 104.5,54.5C 102.251,55.0798 100.585,56.4131 99.5,58.5C 97.9731,58.427 96.9731,59.0937 96.5,60.5C 96.1667,60.5 95.8333,60.5 95.5,60.5C 94.8333,60.5 94.5,60.8333 94.5,61.5C 93.8333,61.5 93.5,61.8333 93.5,62.5C 93.1667,62.5 92.8333,62.5 92.5,62.5C 91.8238,60.812 91.8238,59.4787 92.5,58.5C 103.866,50.4648 113.2,40.4648 120.5,28.5 Z"/></g>
<g><path style="opacity:1" fill="#fcd4b4" d="M 118.5,47.5 C 120.167,48.8333 121.833,50.1667 123.5,51.5C 120.349,55.0383 117.183,58.7049 114,62.5C 111.459,65.7232 109.959,69.3899 109.5,73.5C 108.817,73.8627 108.15,74.1961 107.5,74.5C 106.596,74.4654 105.93,73.9654 105.5,73C 107.562,70.5993 109.229,67.9326 110.5,65C 110.095,64.0546 109.428,63.3879 108.5,63C 109.849,61.3646 109.682,59.8646 108,58.5C 106.951,60.1066 105.451,60.7733 103.5,60.5C 107.567,54.9851 112.567,50.6518 118.5,47.5 Z"/></g>
<g><path style="opacity:1" fill="#eabc96" d="M 124.5,49.5 C 125.167,49.8333 125.833,50.1667 126.5,50.5C 127.5,50.5 128.5,50.5 129.5,50.5C 128.925,52.4113 127.925,54.078 126.5,55.5C 119.297,60.6996 113.964,67.3662 110.5,75.5C 109.209,75.7373 108.209,75.404 107.5,74.5C 108.15,74.1961 108.817,73.8627 109.5,73.5C 109.959,69.3899 111.459,65.7232 114,62.5C 117.183,58.7049 120.349,55.0383 123.5,51.5C 124.338,51.1583 124.672,50.4916 124.5,49.5 Z"/></g>
<g><path style="opacity:1" fill="#716963" d="M 147.5,37.5 C 138.388,47.401 129.055,57.0676 119.5,66.5C 119.351,65.448 119.517,64.448 120,63.5C 122.782,61.2295 124.949,58.5628 126.5,55.5C 127.925,54.078 128.925,52.4113 129.5,50.5C 130.167,50.1667 130.833,49.8333 131.5,49.5C 132.117,49.6107 132.617,49.944 133,50.5C 135.825,46.6754 138.992,43.1754 142.5,40C 143.9,38.5619 145.567,37.7286 147.5,37.5 Z"/></g>
<g><path style="opacity:1" fill="#636362" d="M 185.5,74.5 C 185.88,72.302 185.213,70.6354 183.5,69.5C 183.634,67.7085 183.301,66.0418 182.5,64.5C 182.5,63.8333 182.167,63.5 181.5,63.5C 181.5,62.8333 181.167,62.5 180.5,62.5C 180.489,60.9826 179.823,59.8159 178.5,59C 176.649,58.1628 174.816,57.3295 173,56.5C 171.185,57.2444 169.352,57.9111 167.5,58.5C 166.71,57.5987 165.71,56.9321 164.5,56.5C 171.699,52.0036 178.199,53.0036 184,59.5C 186.495,64.4483 186.995,69.4483 185.5,74.5 Z"/></g>
<g><path style="opacity:1" fill="#424343" d="M 88.5,58.5 C 89.8333,58.5 91.1667,58.5 92.5,58.5C 91.8238,59.4787 91.8238,60.812 92.5,62.5C 91.391,62.4431 90.391,62.1098 89.5,61.5C 87.6112,60.2584 85.6112,60.2584 83.5,61.5C 83.7373,60.209 83.404,59.209 82.5,58.5C 82.5,58.1667 82.5,57.8333 82.5,57.5C 82.8966,56.475 83.5632,56.3083 84.5,57C 85.3172,59.3725 86.6505,59.8725 88.5,58.5 Z"/></g>
<g><path style="opacity:1" fill="#fad4b7" d="M 79.5,58.5 C 80.4584,58.9528 81.2917,59.6195 82,60.5C 82.4643,59.9056 82.631,59.2389 82.5,58.5C 83.404,59.209 83.7373,60.209 83.5,61.5C 83.0627,68.5829 81.396,75.2495 78.5,81.5C 76.1431,79.933 73.4764,78.933 70.5,78.5C 69.7022,76.9223 69.2022,75.2556 69,73.5C 66.833,74.4881 64.9997,75.8214 63.5,77.5C 63.5,76.5 63.5,75.5 63.5,74.5C 63.2493,71.091 63.5827,67.7577 64.5,64.5C 63.8333,63.1667 63.1667,63.1667 62.5,64.5C 61.8108,66.444 61.3108,68.444 61,70.5C 60.2635,68.404 59.0968,66.7373 57.5,65.5C 57.9175,64.7784 58.5842,64.2784 59.5,64C 58.4477,62.2835 59.1144,61.2835 61.5,61C 64.3442,56.0045 68.6776,54.3379 74.5,56C 75.9101,57.3717 77.5767,58.205 79.5,58.5 Z"/></g>
<g><path style="opacity:1" fill="#fad5b7" d="M 107.5,74.5 C 108.209,75.404 109.209,75.7373 110.5,75.5C 110.489,77.0174 109.823,78.1841 108.5,79C 109.094,79.4643 109.761,79.631 110.5,79.5C 104.873,82.1464 105.206,83.4797 111.5,83.5C 110.329,84.3446 108.995,85.0113 107.5,85.5C 103.665,84.5558 99.9987,83.2225 96.5,81.5C 97.9526,80.1751 97.6192,79.3418 95.5,79C 100.862,74.201 100.196,70.3677 93.5,67.5C 96.0869,64.1977 99.4202,61.8644 103.5,60.5C 105.451,60.7733 106.951,60.1066 108,58.5C 109.682,59.8646 109.849,61.3646 108.5,63C 109.428,63.3879 110.095,64.0546 110.5,65C 109.229,67.9326 107.562,70.5993 105.5,73C 105.93,73.9654 106.596,74.4654 107.5,74.5 Z"/></g>
<g><path style="opacity:0.984" fill="#5c5a5a" d="M 164.5,56.5 C 165.71,56.9321 166.71,57.5987 167.5,58.5C 159.27,62.9472 150.604,66.2806 141.5,68.5C 139.821,68.7148 138.821,68.0481 138.5,66.5C 147.384,63.7244 156.051,60.3911 164.5,56.5 Z"/></g>
<g><path style="opacity:0.184" fill="#f9f5ed" d="M 106.5,52.5 C 106.833,52.5 107.167,52.5 107.5,52.5C 106.457,55.0562 104.79,57.2228 102.5,59C 99.8333,60.6667 97.1667,62.3333 94.5,64C 91.6275,65.4514 88.6275,65.6181 85.5,64.5C 85.5,64.1667 85.5,63.8333 85.5,63.5C 87.4832,63.8432 88.8166,63.1765 89.5,61.5C 90.391,62.1098 91.391,62.4431 92.5,62.5C 92.8333,63.8333 93.1667,63.8333 93.5,62.5C 94.1667,62.5 94.5,62.1667 94.5,61.5C 94.5,60.8333 94.8333,60.5 95.5,60.5C 95.8333,61.8333 96.1667,61.8333 96.5,60.5C 98.0269,60.573 99.0269,59.9063 99.5,58.5C 101.749,57.9202 103.415,56.5869 104.5,54.5C 105.167,54.5 105.5,54.1667 105.5,53.5C 106.167,53.5 106.5,53.1667 106.5,52.5 Z"/></g>
<g><path style="opacity:1" fill="#f4d8c3" d="M 79.5,58.5 C 77.5767,58.205 75.9101,57.3717 74.5,56C 68.6776,54.3379 64.3442,56.0045 61.5,61C 59.1144,61.2835 58.4477,62.2835 59.5,64C 58.5842,64.2784 57.9175,64.7784 57.5,65.5C 57.3773,68.5879 58.3773,71.2546 60.5,73.5C 59.7255,75.3964 58.7255,77.063 57.5,78.5C 57.2797,74.0555 56.4464,69.7222 55,65.5C 54.586,65.0426 54.086,64.7093 53.5,64.5C 52.3405,66.7106 51.0072,68.7106 49.5,70.5C 49.4003,67.8915 50.0669,65.5582 51.5,63.5C 57.6098,55.2765 65.6098,52.4431 75.5,55C 77.3237,55.66 78.657,56.8267 79.5,58.5 Z"/></g>
<g><path style="opacity:1" fill="#624d3d" d="M 171.5,64.5 C 175.089,69.9844 173.755,73.651 167.5,75.5C 166,75.5472 165,74.8805 164.5,73.5C 166.631,72.8313 168.631,72.1646 170.5,71.5C 166.5,72.1667 164.833,70.5 165.5,66.5C 166.99,64.7202 168.99,64.0535 171.5,64.5 Z"/></g>
<g><path style="opacity:1" fill="#f3e0ce" d="M 180.5,62.5 C 181.167,62.5 181.5,62.8333 181.5,63.5C 182.167,63.5 182.5,63.8333 182.5,64.5C 183.301,66.0418 183.634,67.7085 183.5,69.5C 183.5,69.8333 183.5,70.1667 183.5,70.5C 182.272,69.6935 181.272,68.6935 180.5,67.5C 179.415,64.3324 177.249,62.3324 174,61.5C 173.148,62.5707 172.315,63.5707 171.5,64.5C 168.99,64.0535 166.99,64.7202 165.5,66.5C 162.123,66.0679 159.123,66.7345 156.5,68.5C 152.567,68.1963 149.567,69.6963 147.5,73C 146.207,73.49 144.873,73.6567 143.5,73.5C 141.5,73.5 139.5,73.5 137.5,73.5C 148.193,69.3278 158.859,64.8278 169.5,60C 173.599,59.1253 177.266,59.9586 180.5,62.5 Z"/></g>
<g><path style="opacity:1" fill="#fdd6b5" d="M 93.5,67.5 C 100.196,70.3677 100.862,74.201 95.5,79C 97.6192,79.3418 97.9526,80.1751 96.5,81.5C 94.6096,81.7035 93.1096,81.0368 92,79.5C 90.2817,77.1029 89.1151,74.4362 88.5,71.5C 87.7499,74.6584 86.4165,77.3251 84.5,79.5C 85.0412,75.7298 86.0412,72.0631 87.5,68.5C 89.396,67.5344 91.396,67.2011 93.5,67.5 Z"/></g>
<g><path style="opacity:0.953" fill="#5e5046" d="M 126.5,55.5 C 124.949,58.5628 122.782,61.2295 120,63.5C 119.517,64.448 119.351,65.448 119.5,66.5C 117.833,69.1667 116.167,71.8333 114.5,74.5C 115.167,75.5 115.833,76.5 116.5,77.5C 115.29,77.9321 114.29,78.5987 113.5,79.5C 112.833,79.5 112.167,79.5 111.5,79.5C 111.167,79.5 110.833,79.5 110.5,79.5C 109.761,79.631 109.094,79.4643 108.5,79C 109.823,78.1841 110.489,77.0174 110.5,75.5C 113.964,67.3662 119.297,60.6996 126.5,55.5 Z"/></g>
<g><path style="opacity:0.961" fill="#686869" d="M 138.5,66.5 C 138.821,68.0481 139.821,68.7148 141.5,68.5C 133.43,71.9443 125.097,74.9443 116.5,77.5C 115.833,76.5 115.167,75.5 114.5,74.5C 122.517,71.8305 130.517,69.1638 138.5,66.5 Z"/></g>
<g><path style="opacity:1" fill="#fbd2b0" d="M 180.5,67.5 C 181.272,68.6935 182.272,69.6935 183.5,70.5C 182.831,73.8489 181.164,76.5156 178.5,78.5C 178.906,76.8908 178.906,75.5575 178.5,74.5C 175.995,76.2533 173.329,77.7533 170.5,79C 162.779,80.099 155.279,81.9324 148,84.5C 147.235,84.4301 146.735,84.0967 146.5,83.5C 148.779,82.1316 149.446,80.2983 148.5,78C 151.56,77.1835 154.394,77.6835 157,79.5C 160.443,78.1359 160.276,77.4692 156.5,77.5C 156.66,75.8008 156.494,74.1341 156,72.5C 154.57,72.6938 153.07,72.6938 151.5,72.5C 153.419,71.3875 155.086,70.0542 156.5,68.5C 158.312,68.7713 159.978,69.438 161.5,70.5C 160.409,75.0971 162.409,77.4304 167.5,77.5C 174.181,75.5171 177.181,71.1837 176.5,64.5C 177.283,66.2882 178.616,67.2882 180.5,67.5 Z"/></g>
<g><path style="opacity:1" fill="#fdd4b0" d="M 96.5,81.5 C 99.9987,83.2225 103.665,84.5558 107.5,85.5C 107.418,87.2517 108.251,88.2517 110,88.5C 112.155,87.7558 114.155,86.7558 116,85.5C 118.147,86.5964 118.647,88.0964 117.5,90C 119.345,91.128 121.345,91.628 123.5,91.5C 121.819,93.0075 119.819,94.0075 117.5,94.5C 115.5,94.1667 113.5,93.8333 111.5,93.5C 111.487,90.6387 110.321,89.6387 108,90.5C 107.626,89.5838 107.126,88.7504 106.5,88C 98.9815,85.3979 91.6481,82.5646 84.5,79.5C 86.4165,77.3251 87.7499,74.6584 88.5,71.5C 89.1151,74.4362 90.2817,77.1029 92,79.5C 93.1096,81.0368 94.6096,81.7035 96.5,81.5 Z"/></g>
<g><path style="opacity:1" fill="#fbd5b9" d="M 156.5,68.5 C 155.086,70.0542 153.419,71.3875 151.5,72.5C 153.07,72.6938 154.57,72.6938 156,72.5C 156.494,74.1341 156.66,75.8008 156.5,77.5C 160.276,77.4692 160.443,78.1359 157,79.5C 154.394,77.6835 151.56,77.1835 148.5,78C 149.446,80.2983 148.779,82.1316 146.5,83.5C 148.124,80.6416 147.457,79.9749 144.5,81.5C 142.488,79.7918 142.154,77.7918 143.5,75.5C 143.5,74.8333 143.5,74.1667 143.5,73.5C 144.873,73.6567 146.207,73.49 147.5,73C 149.567,69.6963 152.567,68.1963 156.5,68.5 Z"/></g>
<g><path style="opacity:1" fill="#fad5b7" d="M 57.5,78.5 C 56.095,84.2628 56.4283,89.9295 58.5,95.5C 53.1296,91.3581 51.463,86.0248 53.5,79.5C 52.5,79.5 51.5,79.5 50.5,79.5C 50.5391,81.3588 49.7058,82.6921 48,83.5C 47.6667,82.8333 47.3333,82.1667 47,81.5C 46.3554,84.5589 45.522,87.5589 44.5,90.5C 42.7844,91.5487 41.4511,92.882 40.5,94.5C 43.0167,88.4407 44.8501,82.1073 46,75.5C 47.0298,73.6536 48.1964,71.9869 49.5,70.5C 51.0072,68.7106 52.3405,66.7106 53.5,64.5C 54.086,64.7093 54.586,65.0426 55,65.5C 56.4464,69.7222 57.2797,74.0555 57.5,78.5 Z"/></g>
<g><path style="opacity:1" fill="#f9d3b8" d="M 78.5,81.5 C 78.6309,82.3764 78.2975,83.0431 77.5,83.5C 72.2746,80.2067 68.2746,81.2067 65.5,86.5C 63.8235,87.1834 63.1568,88.5168 63.5,90.5C 62.5,90.5 61.5,90.5 60.5,90.5C 61.0871,85.9644 62.0871,81.631 63.5,77.5C 64.9997,75.8214 66.833,74.4881 69,73.5C 69.2022,75.2556 69.7022,76.9223 70.5,78.5C 73.4764,78.933 76.1431,79.933 78.5,81.5 Z"/></g>
<g><path style="opacity:1" fill="#f2d2b9" d="M 180.5,67.5 C 178.616,67.2882 177.283,66.2882 176.5,64.5C 177.181,71.1837 174.181,75.5171 167.5,77.5C 162.409,77.4304 160.409,75.0971 161.5,70.5C 159.978,69.438 158.312,68.7713 156.5,68.5C 159.123,66.7345 162.123,66.0679 165.5,66.5C 164.833,70.5 166.5,72.1667 170.5,71.5C 168.631,72.1646 166.631,72.8313 164.5,73.5C 165,74.8805 166,75.5472 167.5,75.5C 173.755,73.651 175.089,69.9844 171.5,64.5C 172.315,63.5707 173.148,62.5707 174,61.5C 177.249,62.3324 179.415,64.3324 180.5,67.5 Z"/></g>
<g><path style="opacity:1" fill="#dfcec1" d="M 170.5,71.5 C 170.179,69.9519 169.179,69.2852 167.5,69.5C 167.5,68.5 167.5,67.5 167.5,66.5C 171.273,66.6573 172.273,68.324 170.5,71.5 Z"/></g>
<g><path style="opacity:1" fill="#5d4634" d="M 63.5,74.5 C 57.8165,80.9764 57.1498,87.9764 61.5,95.5C 60.8333,95.5 60.1667,95.5 59.5,95.5C 59.1667,95.5 58.8333,95.5 58.5,95.5C 56.4283,89.9295 56.095,84.2628 57.5,78.5C 58.7255,77.063 59.7255,75.3964 60.5,73.5C 58.3773,71.2546 57.3773,68.5879 57.5,65.5C 59.0968,66.7373 60.2635,68.404 61,70.5C 61.3108,68.444 61.8108,66.444 62.5,64.5C 63.1667,63.1667 63.8333,63.1667 64.5,64.5C 63.5827,67.7577 63.2493,71.091 63.5,74.5 Z"/></g>
<g><path style="opacity:1" fill="#fdd5b3" d="M 58.5,95.5 C 58.8333,95.5 59.1667,95.5 59.5,95.5C 59.5,96.5 59.5,97.5 59.5,98.5C 55.9356,98.8494 52.6022,98.1827 49.5,96.5C 50.0253,95.8076 50.6919,95.3076 51.5,95C 50.624,93.414 49.624,91.914 48.5,90.5C 47.6364,92.1965 46.3031,93.3632 44.5,94C 45.1667,94.3333 45.8333,94.6667 46.5,95C 46.3482,96.9243 46.3482,98.7576 46.5,100.5C 45.0078,114.881 43.6745,114.547 42.5,99.5C 41.787,101.435 40.787,101.768 39.5,100.5C 39.5,100.167 39.5,99.8333 39.5,99.5C 39.2155,97.5853 39.5489,95.9187 40.5,94.5C 41.4511,92.882 42.7844,91.5487 44.5,90.5C 45.522,87.5589 46.3554,84.5589 47,81.5C 47.3333,82.1667 47.6667,82.8333 48,83.5C 49.7058,82.6921 50.5391,81.3588 50.5,79.5C 51.5,79.5 52.5,79.5 53.5,79.5C 51.463,86.0248 53.1296,91.3581 58.5,95.5 Z"/></g>
<g><path style="opacity:1" fill="#f7dbc2" d="M 137.5,73.5 C 135.636,75.0138 133.636,76.3472 131.5,77.5C 130.811,78.7072 130.645,80.0406 131,81.5C 129.559,82.2598 128.059,82.9264 126.5,83.5C 125.571,84.6888 125.238,86.0222 125.5,87.5C 127.527,87.3379 129.527,87.5045 131.5,88C 130.944,88.3826 130.611,88.8826 130.5,89.5C 129.041,89.4326 127.708,89.7659 126.5,90.5C 126.631,89.7611 126.464,89.0944 126,88.5C 125.23,89.5981 124.397,89.5981 123.5,88.5C 121.926,86.8984 121.259,84.8984 121.5,82.5C 120.866,81.0532 119.699,80.3866 118,80.5C 115.325,80.6573 113.159,81.6573 111.5,83.5C 105.206,83.4797 104.873,82.1464 110.5,79.5C 110.833,79.5 111.167,79.5 111.5,79.5C 112.167,80.8333 112.833,80.8333 113.5,79.5C 121.654,78.1154 129.654,76.1154 137.5,73.5 Z"/></g>
<g><path style="opacity:1" fill="#635a53" d="M 183.5,69.5 C 185.213,70.6354 185.88,72.302 185.5,74.5C 183.344,80.1543 179.344,83.9876 173.5,86C 163.188,87.3516 153.188,89.8516 143.5,93.5C 146.248,90.9517 149.581,89.1183 153.5,88C 158.775,86.6813 164.108,85.6813 169.5,85C 170.056,84.6174 170.389,84.1174 170.5,83.5C 173.849,82.8305 176.516,81.1639 178.5,78.5C 181.164,76.5156 182.831,73.8489 183.5,70.5C 183.5,70.1667 183.5,69.8333 183.5,69.5 Z"/></g>
<g><path style="opacity:1" fill="#f6e3d4" d="M 51.5,63.5 C 50.0669,65.5582 49.4003,67.8915 49.5,70.5C 48.1964,71.9869 47.0298,73.6536 46,75.5C 44.8501,82.1073 43.0167,88.4407 40.5,94.5C 39.5489,95.9187 39.2155,97.5853 39.5,99.5C 38.1667,99.5 37.5,100.167 37.5,101.5C 36.6981,100.048 36.1981,98.3817 36,96.5C 35.8413,98.3427 35.3413,99.0093 34.5,98.5C 34.2155,96.5853 34.5489,94.9187 35.5,93.5C 36.3382,93.1583 36.6716,92.4916 36.5,91.5C 39.4625,91.1698 40.4625,89.8365 39.5,87.5C 41.1983,83.0606 42.5316,78.3939 43.5,73.5C 44.206,74.5573 44.5393,74.2239 44.5,72.5C 46.4512,69.2139 48.7846,66.2139 51.5,63.5 Z"/></g>
<g><path style="opacity:1" fill="#654832" d="M 143.5,75.5 C 142.154,77.7918 142.488,79.7918 144.5,81.5C 145.625,82.6522 145.625,83.6522 144.5,84.5C 140.557,81.9506 139.723,78.6173 142,74.5C 142.383,75.056 142.883,75.3893 143.5,75.5 Z"/></g>
<g><path style="opacity:1" fill="#efd3b9" d="M 63.5,74.5 C 63.5,75.5 63.5,76.5 63.5,77.5C 62.0871,81.631 61.0871,85.9644 60.5,90.5C 61.5,90.5 62.5,90.5 63.5,90.5C 63.1568,88.5168 63.8235,87.1834 65.5,86.5C 65.1012,94.4293 68.7679,98.4293 76.5,98.5C 76.0472,99.4584 75.3805,100.292 74.5,101C 68.8777,102.211 64.5443,100.377 61.5,95.5C 57.1498,87.9764 57.8165,80.9764 63.5,74.5 Z"/></g>
<g><path style="opacity:1" fill="#eebf9a" d="M 82.5,79.5 C 83.1667,79.5 83.8333,79.5 84.5,79.5C 91.6481,82.5646 98.9815,85.3979 106.5,88C 107.126,88.7504 107.626,89.5838 108,90.5C 110.321,89.6387 111.487,90.6387 111.5,93.5C 113.5,93.8333 115.5,94.1667 117.5,94.5C 116.909,95.1515 116.243,95.8182 115.5,96.5C 117.045,97.4519 118.712,97.7852 120.5,97.5C 119.626,98.5251 118.459,99.1918 117,99.5C 115.594,98.5862 114.094,97.9195 112.5,97.5C 103.355,90.4314 93.0215,85.7647 81.5,83.5C 81.2322,81.901 81.5655,80.5676 82.5,79.5 Z"/></g>
<g><path style="opacity:1" fill="#686a69" d="M 27.5,80.5 C 28.5137,81.6737 29.847,82.3404 31.5,82.5C 21.5167,85.4843 15.85,92.1509 14.5,102.5C 14.719,101.325 14.3857,100.325 13.5,99.5C 12.5078,103.783 12.1744,108.116 12.5,112.5C 9.50574,101.907 11.8391,92.5733 19.5,84.5C 21.9099,82.6284 24.5766,81.295 27.5,80.5 Z"/></g>
<g><path style="opacity:1" fill="#f6d5b8" d="M 137.5,73.5 C 139.5,73.5 141.5,73.5 143.5,73.5C 143.5,74.1667 143.5,74.8333 143.5,75.5C 142.883,75.3893 142.383,75.056 142,74.5C 139.723,78.6173 140.557,81.9506 144.5,84.5C 143.833,84.8333 143.167,85.1667 142.5,85.5C 139.455,85.3418 136.621,86.0085 134,87.5C 133.515,84.8285 134.682,83.4952 137.5,83.5C 138.168,78.8394 136.168,76.8394 131.5,77.5C 133.636,76.3472 135.636,75.0138 137.5,73.5 Z"/></g>
<g><path style="opacity:1" fill="#efbe96" d="M 178.5,78.5 C 176.516,81.1639 173.849,82.8305 170.5,83.5C 165.529,84.3773 160.529,85.2106 155.5,86C 149.998,88.4216 144.332,90.2549 138.5,91.5C 141.094,90.17 143.761,88.8366 146.5,87.5C 145.311,86.5713 143.978,86.238 142.5,86.5C 142.5,86.1667 142.5,85.8333 142.5,85.5C 143.167,85.1667 143.833,84.8333 144.5,84.5C 145.625,83.6522 145.625,82.6522 144.5,81.5C 147.457,79.9749 148.124,80.6416 146.5,83.5C 146.735,84.0967 147.235,84.4301 148,84.5C 155.279,81.9324 162.779,80.099 170.5,79C 173.329,77.7533 175.995,76.2533 178.5,74.5C 178.906,75.5575 178.906,76.8908 178.5,78.5 Z"/></g>
<g><path style="opacity:1" fill="#573b29" d="M 121.5,82.5 C 121.259,84.8984 121.926,86.8984 123.5,88.5C 123.631,89.3764 123.298,90.0431 122.5,90.5C 120.97,88.7738 119.97,86.7738 119.5,84.5C 119.747,83.2867 120.414,82.62 121.5,82.5 Z"/></g>
<g><path style="opacity:1" fill="#fdd5b1" d="M 131.5,77.5 C 136.168,76.8394 138.168,78.8394 137.5,83.5C 134.682,83.4952 133.515,84.8285 134,87.5C 136.621,86.0085 139.455,85.3418 142.5,85.5C 142.5,85.8333 142.5,86.1667 142.5,86.5C 138.422,87.2482 134.422,88.2482 130.5,89.5C 130.611,88.8826 130.944,88.3826 131.5,88C 129.527,87.5045 127.527,87.3379 125.5,87.5C 125.238,86.0222 125.571,84.6888 126.5,83.5C 128.059,82.9264 129.559,82.2598 131,81.5C 130.645,80.0406 130.811,78.7072 131.5,77.5 Z"/></g>
<g><path style="opacity:1" fill="#f7d1ba" d="M 121.5,82.5 C 120.414,82.62 119.747,83.2867 119.5,84.5C 119.97,86.7738 120.97,88.7738 122.5,90.5C 123.298,90.0431 123.631,89.3764 123.5,88.5C 124.397,89.5981 125.23,89.5981 126,88.5C 126.464,89.0944 126.631,89.7611 126.5,90.5C 125.791,91.404 124.791,91.7373 123.5,91.5C 121.345,91.628 119.345,91.128 117.5,90C 118.647,88.0964 118.147,86.5964 116,85.5C 114.155,86.7558 112.155,87.7558 110,88.5C 108.251,88.2517 107.418,87.2517 107.5,85.5C 108.995,85.0113 110.329,84.3446 111.5,83.5C 113.159,81.6573 115.325,80.6573 118,80.5C 119.699,80.3866 120.866,81.0532 121.5,82.5 Z"/></g>
<g><path style="opacity:1" fill="#685a4d" d="M 89.5,61.5 C 87.5168,61.1568 86.1834,61.8235 85.5,63.5C 85.5,63.8333 85.5,64.1667 85.5,64.5C 84.8216,69.5721 83.8216,74.5721 82.5,79.5C 81.5655,80.5676 81.2322,81.901 81.5,83.5C 93.0215,85.7647 103.355,90.4314 112.5,97.5C 112.5,98.1667 112.5,98.8333 112.5,99.5C 103.284,93.226 93.2836,88.5594 82.5,85.5C 81.0527,84.1148 80.0527,84.4482 79.5,86.5C 78.8333,86.8333 78.1667,87.1667 77.5,87.5C 76.4096,85.3509 74.5762,84.0175 72,83.5C 67.3691,85.6153 66.3691,88.9487 69,93.5C 70.897,95.0163 73.0637,95.683 75.5,95.5C 76.1667,95.5 76.8333,95.5 77.5,95.5C 77.7373,96.791 77.404,97.791 76.5,98.5C 68.7679,98.4293 65.1012,94.4293 65.5,86.5C 68.2746,81.2067 72.2746,80.2067 77.5,83.5C 78.2975,83.0431 78.6309,82.3764 78.5,81.5C 81.396,75.2495 83.0627,68.5829 83.5,61.5C 85.6112,60.2584 87.6112,60.2584 89.5,61.5 Z M 77.5,87.5 C 77.5,88.1667 77.5,88.8333 77.5,89.5C 76.7148,91.3736 76.0482,93.3736 75.5,95.5C 73.0637,95.683 70.897,95.0163 69,93.5C 66.3691,88.9487 67.3691,85.6153 72,83.5C 74.5762,84.0175 76.4096,85.3509 77.5,87.5 Z"/></g>
<g><path style="opacity:1" fill="#f7d4b7" d="M 59.5,98.5 C 59.5,100.167 59.5,101.833 59.5,103.5C 51.6019,103.886 51.6019,104.886 59.5,106.5C 60.7663,110.045 62.7663,113.045 65.5,115.5C 63.3281,114.199 60.9948,113.199 58.5,112.5C 58.67,111.178 58.3366,110.011 57.5,109C 55.1457,108.153 52.8123,107.32 50.5,106.5C 50.646,103.446 49.3126,101.446 46.5,100.5C 46.3482,98.7576 46.3482,96.9243 46.5,95C 45.8333,94.6667 45.1667,94.3333 44.5,94C 46.3031,93.3632 47.6364,92.1965 48.5,90.5C 49.624,91.914 50.624,93.414 51.5,95C 50.6919,95.3076 50.0253,95.8076 49.5,96.5C 52.6022,98.1827 55.9356,98.8494 59.5,98.5 Z"/></g>
<g><path style="opacity:0.278" fill="#cdc8c2" d="M 77.5,89.5 C 77.5,91.5 77.5,93.5 77.5,95.5C 76.8333,95.5 76.1667,95.5 75.5,95.5C 76.0482,93.3736 76.7148,91.3736 77.5,89.5 Z"/></g>
<g><path style="opacity:1" fill="#f3c195" d="M 142.5,86.5 C 143.978,86.238 145.311,86.5713 146.5,87.5C 143.761,88.8366 141.094,90.17 138.5,91.5C 132.647,93.6732 126.647,95.6732 120.5,97.5C 118.712,97.7852 117.045,97.4519 115.5,96.5C 116.243,95.8182 116.909,95.1515 117.5,94.5C 119.819,94.0075 121.819,93.0075 123.5,91.5C 124.791,91.7373 125.791,91.404 126.5,90.5C 127.708,89.7659 129.041,89.4326 130.5,89.5C 134.422,88.2482 138.422,87.2482 142.5,86.5 Z"/></g>
<g><path style="opacity:1" fill="#5c4d43" d="M 170.5,83.5 C 170.389,84.1174 170.056,84.6174 169.5,85C 164.108,85.6813 158.775,86.6813 153.5,88C 149.581,89.1183 146.248,90.9517 143.5,93.5C 135.659,96.3359 127.659,99.0026 119.5,101.5C 118.691,103.292 118.191,105.292 118,107.5C 117.015,105.825 116.181,104.158 115.5,102.5C 114.833,101.167 113.833,100.167 112.5,99.5C 112.5,98.8333 112.5,98.1667 112.5,97.5C 114.094,97.9195 115.594,98.5862 117,99.5C 118.459,99.1918 119.626,98.5251 120.5,97.5C 126.647,95.6732 132.647,93.6732 138.5,91.5C 144.332,90.2549 149.998,88.4216 155.5,86C 160.529,85.2106 165.529,84.3773 170.5,83.5 Z"/></g>
<g><path style="opacity:1" fill="#e4bc9b" d="M 82.5,85.5 C 81.1667,85.5 80.5,86.1667 80.5,87.5C 81.1667,88.1667 81.8333,88.8333 82.5,89.5C 80.3482,94.6863 81.6815,98.853 86.5,102C 89.4318,103.145 92.4318,103.978 95.5,104.5C 98.9328,107.059 102.599,109.392 106.5,111.5C 107.773,112.257 107.773,112.923 106.5,113.5C 97.3517,109.758 88.3517,105.758 79.5,101.5C 78.2798,96.5452 78.2798,91.5452 79.5,86.5C 80.0527,84.4482 81.0527,84.1148 82.5,85.5 Z"/></g>
<g><path style="opacity:1" fill="#fbd5b4" d="M 82.5,89.5 C 89.8634,90.9175 96.1968,94.2509 101.5,99.5C 99.2532,99.0847 97.0865,98.4181 95,97.5C 93.5962,97.5093 92.4296,98.0093 91.5,99C 95.2321,99.2474 97.5654,101.081 98.5,104.5C 97.5,104.5 96.5,104.5 95.5,104.5C 92.4318,103.978 89.4318,103.145 86.5,102C 81.6815,98.853 80.3482,94.6863 82.5,89.5 Z"/></g>
<g><path style="opacity:1" fill="#5d4637" d="M 79.5,86.5 C 78.2798,91.5452 78.2798,96.5452 79.5,101.5C 79.5,101.833 79.5,102.167 79.5,102.5C 78.5041,102.586 77.6708,102.252 77,101.5C 71.5569,104.485 66.5569,103.818 62,99.5C 60.9257,108.446 64.759,114.279 73.5,117C 76.8881,117.659 80.2214,117.492 83.5,116.5C 82.8777,118.335 81.5444,119.502 79.5,120C 82.595,121.978 85.9284,123.478 89.5,124.5C 88.6667,124.833 87.8333,125.167 87,125.5C 81.0325,123.008 75.1991,120.341 69.5,117.5C 68.1667,116.833 66.8333,116.167 65.5,115.5C 62.7663,113.045 60.7663,110.045 59.5,106.5C 51.6019,104.886 51.6019,103.886 59.5,103.5C 59.5,101.833 59.5,100.167 59.5,98.5C 59.5,97.5 59.5,96.5 59.5,95.5C 60.1667,95.5 60.8333,95.5 61.5,95.5C 64.5443,100.377 68.8777,102.211 74.5,101C 75.3805,100.292 76.0472,99.4584 76.5,98.5C 77.404,97.791 77.7373,96.791 77.5,95.5C 77.5,93.5 77.5,91.5 77.5,89.5C 77.5,88.8333 77.5,88.1667 77.5,87.5C 78.1667,87.1667 78.8333,86.8333 79.5,86.5 Z"/></g>
<g><path style="opacity:1" fill="#4c8f73" d="M 33.5,87.5 C 33.5,88.5 33.5,89.5 33.5,90.5C 30.9147,98.1748 30.9147,105.842 33.5,113.5C 31.7531,112.019 30.5864,110.019 30,107.5C 29.6667,110.167 29.3333,112.833 29,115.5C 28.5814,116.672 27.9147,117.672 27,118.5C 23.5751,113.636 24.2418,109.303 29,105.5C 30.1747,100.816 30.3414,96.1495 29.5,91.5C 26.0731,94.0219 23.9065,97.3552 23,101.5C 22.5078,100.451 22.6744,99.451 23.5,98.5C 23.0302,97.537 22.3635,97.537 21.5,98.5C 23.6042,92.7277 27.6042,89.061 33.5,87.5 Z"/></g>
<g><path style="opacity:1" fill="#fbd4b2" d="M 101.5,99.5 C 103.544,100.031 105.211,101.198 106.5,103C 107.793,103.49 109.127,103.657 110.5,103.5C 110.5,106.833 110.5,110.167 110.5,113.5C 110.5,114.167 110.833,114.5 111.5,114.5C 111.167,115.5 110.5,116.167 109.5,116.5C 108.167,115.833 107.167,114.833 106.5,113.5C 107.773,112.923 107.773,112.257 106.5,111.5C 102.599,109.392 98.9328,107.059 95.5,104.5C 96.5,104.5 97.5,104.5 98.5,104.5C 97.5654,101.081 95.2321,99.2474 91.5,99C 92.4296,98.0093 93.5962,97.5093 95,97.5C 97.0865,98.4181 99.2532,99.0847 101.5,99.5 Z"/></g>
<g><path style="opacity:1" fill="#3c916e" d="M 33.5,113.5 C 33.6795,115.954 33.0128,118.121 31.5,120C 34.2036,121.829 35.037,124.329 34,127.5C 32.3476,128.217 30.8476,128.55 29.5,128.5C 30.8485,129.909 32.1819,131.243 33.5,132.5C 38.5855,136.554 37.5855,137.887 30.5,136.5C 23.8548,124.856 20.8548,112.19 21.5,98.5C 22.3635,97.537 23.0302,97.537 23.5,98.5C 22.6744,99.451 22.5078,100.451 23,101.5C 23.9065,97.3552 26.0731,94.0219 29.5,91.5C 30.3414,96.1495 30.1747,100.816 29,105.5C 24.2418,109.303 23.5751,113.636 27,118.5C 27.9147,117.672 28.5814,116.672 29,115.5C 29.3333,112.833 29.6667,110.167 30,107.5C 30.5864,110.019 31.7531,112.019 33.5,113.5 Z"/></g>
<g><path style="opacity:0.996" fill="#3c3c3c" d="M 14.5,102.5 C 14.5,104.5 14.5,106.5 14.5,108.5C 13.9518,110.626 13.2852,112.626 12.5,114.5C 12.5,113.833 12.5,113.167 12.5,112.5C 12.1744,108.116 12.5078,103.783 13.5,99.5C 14.3857,100.325 14.719,101.325 14.5,102.5 Z"/></g>
<g><path style="opacity:1" fill="#fcd6b6" d="M 89.5,108.5 C 89.5,108.833 89.5,109.167 89.5,109.5C 87.5,109.5 85.5,109.5 83.5,109.5C 83.6399,111.124 82.9733,112.29 81.5,113C 82.4158,113.278 83.0825,113.778 83.5,114.5C 78.3011,114.986 73.3011,114.319 68.5,112.5C 68.3019,109.215 66.6352,107.548 63.5,107.5C 63.238,106.022 63.5713,104.689 64.5,103.5C 66.3115,104.739 68.3115,105.406 70.5,105.5C 73.1541,104.732 75.8208,104.566 78.5,105C 81.7932,107.242 85.4599,108.409 89.5,108.5 Z"/></g>
<g><path style="opacity:1" fill="#f5e3d3" d="M 80.5,87.5 C 92.7185,89.5257 103.219,94.859 112,103.5C 112.659,106.888 112.492,110.221 111.5,113.5C 111.167,113.5 110.833,113.5 110.5,113.5C 110.5,110.167 110.5,106.833 110.5,103.5C 109.127,103.657 107.793,103.49 106.5,103C 105.211,101.198 103.544,100.031 101.5,99.5C 96.1968,94.2509 89.8634,90.9175 82.5,89.5C 81.8333,88.8333 81.1667,88.1667 80.5,87.5 Z"/></g>
<g><path style="opacity:1" fill="#614635" d="M 39.5,99.5 C 39.5,99.8333 39.5,100.167 39.5,100.5C 39.1322,106.765 40.7989,112.431 44.5,117.5C 44.6309,118.376 44.2975,119.043 43.5,119.5C 39.3023,114.24 37.3023,108.24 37.5,101.5C 37.5,100.167 38.1667,99.5 39.5,99.5 Z"/></g>
<g><path style="opacity:1" fill="#619780" d="M 21.5,98.5 C 20.8548,112.19 23.8548,124.856 30.5,136.5C 31.1098,137.391 31.4431,138.391 31.5,139.5C 31.5,140.167 31.1667,140.5 30.5,140.5C 29.1667,139.833 28.1667,138.833 27.5,137.5C 28.8333,137.167 28.8333,136.833 27.5,136.5C 27.5,135.833 27.1667,135.5 26.5,135.5C 20.8092,125.212 18.6425,114.212 20,102.5C 20.21,100.942 20.71,99.6085 21.5,98.5 Z"/></g>
<g><path style="opacity:1" fill="#fdd5b2" d="M 50.5,106.5 C 52.8123,107.32 55.1457,108.153 57.5,109C 58.3366,110.011 58.67,111.178 58.5,112.5C 60.9948,113.199 63.3281,114.199 65.5,115.5C 66.2916,116.967 66.2916,118.3 65.5,119.5C 63.5683,120.366 61.5683,121.033 59.5,121.5C 55.4183,118.462 51.085,115.962 46.5,114C 47.4231,111.959 47.7564,109.792 47.5,107.5C 48.791,107.737 49.791,107.404 50.5,106.5 Z"/></g>
<g><path style="opacity:1" fill="#fdd5b3" d="M 89.5,109.5 C 89.5,110.833 89.5,112.167 89.5,113.5C 91.5,113.5 93.5,113.5 95.5,113.5C 95.6621,115.527 95.4955,117.527 95,119.5C 93.7913,119.653 92.6246,119.986 91.5,120.5C 88.7052,119.937 86.3718,118.604 84.5,116.5C 84.1667,115.833 83.8333,115.167 83.5,114.5C 83.0825,113.778 82.4158,113.278 81.5,113C 82.9733,112.29 83.6399,111.124 83.5,109.5C 85.5,109.5 87.5,109.5 89.5,109.5 Z"/></g>
<g><path style="opacity:0.949" fill="#7e7c7e" d="M 119.5,101.5 C 119.959,106.777 118.626,111.444 115.5,115.5C 115.649,114.448 115.483,113.448 115,112.5C 114.184,113.823 113.017,114.489 111.5,114.5C 111.5,114.167 111.5,113.833 111.5,113.5C 115.009,110.761 116.343,107.094 115.5,102.5C 116.181,104.158 117.015,105.825 118,107.5C 118.191,105.292 118.691,103.292 119.5,101.5 Z"/></g>
<g><path style="opacity:1" fill="#e6c6ab" d="M 37.5,101.5 C 37.3023,108.24 39.3023,114.24 43.5,119.5C 44.2975,119.043 44.6309,118.376 44.5,117.5C 45.4013,118.29 46.0679,119.29 46.5,120.5C 44.5168,120.157 43.1834,120.824 42.5,122.5C 35.6034,115.81 32.9367,107.81 34.5,98.5C 35.3413,99.0093 35.8413,98.3427 36,96.5C 36.1981,98.3817 36.6981,100.048 37.5,101.5 Z"/></g>
<g><path style="opacity:1" fill="#5e4531" d="M 79.5,101.5 C 88.3517,105.758 97.3517,109.758 106.5,113.5C 107.167,114.833 108.167,115.833 109.5,116.5C 110.089,120.971 109.423,124.971 107.5,128.5C 108.341,126.621 108.675,124.621 108.5,122.5C 108.451,119.901 107.451,117.734 105.5,116C 100.537,112.685 95.2039,110.185 89.5,108.5C 85.8677,107.016 82.5344,105.016 79.5,102.5C 79.5,102.167 79.5,101.833 79.5,101.5 Z"/></g>
<g><path style="opacity:1" fill="#4c543e" d="M 33.5,90.5 C 34.4916,90.3284 35.1583,90.6618 35.5,91.5C 35.5,92.1667 35.5,92.8333 35.5,93.5C 34.5489,94.9187 34.2155,96.5853 34.5,98.5C 32.9367,107.81 35.6034,115.81 42.5,122.5C 47.0021,128.42 53.0021,131.753 60.5,132.5C 60.5,133.167 60.8333,133.5 61.5,133.5C 61.5,134.167 61.1667,134.5 60.5,134.5C 58.7839,134.371 57.1172,134.038 55.5,133.5C 45.1436,130.083 37.8102,123.417 33.5,113.5C 30.9147,105.842 30.9147,98.1748 33.5,90.5 Z"/></g>
<g><path style="opacity:1" fill="#edceb9" d="M 79.5,102.5 C 82.5344,105.016 85.8677,107.016 89.5,108.5C 85.4599,108.409 81.7932,107.242 78.5,105C 75.8208,104.566 73.1541,104.732 70.5,105.5C 68.3115,105.406 66.3115,104.739 64.5,103.5C 63.5713,104.689 63.238,106.022 63.5,107.5C 66.6352,107.548 68.3019,109.215 68.5,112.5C 73.3011,114.319 78.3011,114.986 83.5,114.5C 83.8333,115.167 84.1667,115.833 84.5,116.5C 84.1667,116.5 83.8333,116.5 83.5,116.5C 80.2214,117.492 76.8881,117.659 73.5,117C 64.759,114.279 60.9257,108.446 62,99.5C 66.5569,103.818 71.5569,104.485 77,101.5C 77.6708,102.252 78.5041,102.586 79.5,102.5 Z"/></g>
<g><path style="opacity:1" fill="#fbd4b8" d="M 46.5,100.5 C 49.3126,101.446 50.646,103.446 50.5,106.5C 49.791,107.404 48.791,107.737 47.5,107.5C 47.7564,109.792 47.4231,111.959 46.5,114C 51.085,115.962 55.4183,118.462 59.5,121.5C 61.5683,121.033 63.5683,120.366 65.5,119.5C 66.2916,118.3 66.2916,116.967 65.5,115.5C 66.8333,116.167 68.1667,116.833 69.5,117.5C 69.5569,118.609 69.8902,119.609 70.5,120.5C 69.2438,120.461 68.2438,120.961 67.5,122C 74.285,127.336 73.4516,128.503 65,125.5C 63.2108,126.409 61.3774,126.576 59.5,126C 58.1667,125.333 58.1667,124.667 59.5,124C 55.5817,122.844 51.5817,122.344 47.5,122.5C 47.6716,121.508 47.3382,120.842 46.5,120.5C 46.0679,119.29 45.4013,118.29 44.5,117.5C 40.7989,112.431 39.1322,106.765 39.5,100.5C 40.787,101.768 41.787,101.435 42.5,99.5C 43.6745,114.547 45.0078,114.881 46.5,100.5 Z"/></g>
<g><path style="opacity:1" fill="#f9d4b6" d="M 89.5,108.5 C 95.2039,110.185 100.537,112.685 105.5,116C 107.451,117.734 108.451,119.901 108.5,122.5C 107.035,123.406 106.035,124.739 105.5,126.5C 102.783,126.974 100.45,127.974 98.5,129.5C 97.5,129.5 96.5,129.5 95.5,129.5C 92.8127,129.664 90.146,129.497 87.5,129C 86.944,128.617 86.6107,128.117 86.5,127.5C 87.8333,127.5 89.1667,127.5 90.5,127.5C 90.3601,125.876 91.0267,124.71 92.5,124C 92.3809,122.855 92.0476,121.688 91.5,120.5C 92.6246,119.986 93.7913,119.653 95,119.5C 95.4955,117.527 95.6621,115.527 95.5,113.5C 93.5,113.5 91.5,113.5 89.5,113.5C 89.5,112.167 89.5,110.833 89.5,109.5C 89.5,109.167 89.5,108.833 89.5,108.5 Z"/></g>
<g><path style="opacity:1" fill="#478f6f" d="M 33.5,113.5 C 37.8102,123.417 45.1436,130.083 55.5,133.5C 56.1951,135.437 55.1951,136.437 52.5,136.5C 49.0511,132.659 44.5511,129.326 39,126.5C 37.2785,126.611 37.1118,127.111 38.5,128C 37.8095,129.067 37.3095,130.234 37,131.5C 36.2904,130.027 35.1238,129.36 33.5,129.5C 33.5,130.5 33.5,131.5 33.5,132.5C 32.1819,131.243 30.8485,129.909 29.5,128.5C 30.8476,128.55 32.3476,128.217 34,127.5C 35.037,124.329 34.2036,121.829 31.5,120C 33.0128,118.121 33.6795,115.954 33.5,113.5 Z"/></g>
<g><path style="opacity:1" fill="#fdd3ad" d="M 70.5,120.5 C 73.9366,120.77 75.9366,122.603 76.5,126C 79.7928,126.826 83.1262,127.326 86.5,127.5C 86.6107,128.117 86.944,128.617 87.5,129C 90.146,129.497 92.8127,129.664 95.5,129.5C 85.0168,129.82 74.3502,129.82 63.5,129.5C 57.8432,127.762 52.5099,125.429 47.5,122.5C 51.5817,122.344 55.5817,122.844 59.5,124C 58.1667,124.667 58.1667,125.333 59.5,126C 61.3774,126.576 63.2108,126.409 65,125.5C 73.4516,128.503 74.285,127.336 67.5,122C 68.2438,120.961 69.2438,120.461 70.5,120.5 Z"/></g>
<g><path style="opacity:1" fill="#f2d1b7" d="M 83.5,116.5 C 83.8333,116.5 84.1667,116.5 84.5,116.5C 86.3718,118.604 88.7052,119.937 91.5,120.5C 92.0476,121.688 92.3809,122.855 92.5,124C 91.0267,124.71 90.3601,125.876 90.5,127.5C 89.1667,127.5 87.8333,127.5 86.5,127.5C 83.1262,127.326 79.7928,126.826 76.5,126C 75.9366,122.603 73.9366,120.77 70.5,120.5C 69.8902,119.609 69.5569,118.609 69.5,117.5C 75.1991,120.341 81.0325,123.008 87,125.5C 87.8333,125.167 88.6667,124.833 89.5,124.5C 85.9284,123.478 82.595,121.978 79.5,120C 81.5444,119.502 82.8777,118.335 83.5,116.5 Z"/></g>
<g><path style="opacity:0.992" fill="#5f5f5d" d="M 14.5,108.5 C 15.6896,114.565 17.5229,120.565 20,126.5C 21.6985,129.921 23.8652,132.921 26.5,135.5C 27.1667,135.5 27.5,135.833 27.5,136.5C 27.5,136.833 27.5,137.167 27.5,137.5C 28.1667,138.833 29.1667,139.833 30.5,140.5C 32.2608,141.313 33.9275,142.313 35.5,143.5C 34.8333,144.167 34.1667,144.833 33.5,145.5C 27.7902,143.385 23.2902,139.719 20,134.5C 16.4054,128.213 13.9054,121.546 12.5,114.5C 13.2852,112.626 13.9518,110.626 14.5,108.5 Z"/></g>
<g><path style="opacity:1" fill="#3d8c6b" d="M 52.5,136.5 C 52.4386,138.592 51.4386,140.092 49.5,141C 43.3741,141.62 37.3741,141.12 31.5,139.5C 31.4431,138.391 31.1098,137.391 30.5,136.5C 37.5855,137.887 38.5855,136.554 33.5,132.5C 33.5,131.5 33.5,130.5 33.5,129.5C 35.1238,129.36 36.2904,130.027 37,131.5C 37.3095,130.234 37.8095,129.067 38.5,128C 37.1118,127.111 37.2785,126.611 39,126.5C 44.5511,129.326 49.0511,132.659 52.5,136.5 Z"/></g>
<g><path style="opacity:1" fill="#f4bd96" d="M 46.5,120.5 C 47.3382,120.842 47.6716,121.508 47.5,122.5C 52.5099,125.429 57.8432,127.762 63.5,129.5C 63.6107,130.117 63.944,130.617 64.5,131C 69.6835,131.174 74.6835,131.674 79.5,132.5C 73.1667,132.5 66.8333,132.5 60.5,132.5C 53.0021,131.753 47.0021,128.42 42.5,122.5C 43.1834,120.824 44.5168,120.157 46.5,120.5 Z"/></g>
<g><path style="opacity:1" fill="#fabf91" d="M 79.5,132.5 C 74.6835,131.674 69.6835,131.174 64.5,131C 63.944,130.617 63.6107,130.117 63.5,129.5C 74.3502,129.82 85.0168,129.82 95.5,129.5C 96.5,129.5 97.5,129.5 98.5,129.5C 99.8474,128.972 101.181,128.805 102.5,129C 101.833,131 100.5,132.333 98.5,133C 92.1605,133.348 85.8272,133.182 79.5,132.5 Z"/></g>
<g><path style="opacity:1" fill="#eac09b" d="M 108.5,122.5 C 108.675,124.621 108.341,126.621 107.5,128.5C 105.264,130.893 102.597,132.727 99.5,134C 86.8426,133.936 74.176,133.769 61.5,133.5C 60.8333,133.5 60.5,133.167 60.5,132.5C 66.8333,132.5 73.1667,132.5 79.5,132.5C 85.8272,133.182 92.1605,133.348 98.5,133C 100.5,132.333 101.833,131 102.5,129C 101.181,128.805 99.8474,128.972 98.5,129.5C 100.45,127.974 102.783,126.974 105.5,126.5C 106.035,124.739 107.035,123.406 108.5,122.5 Z"/></g>
<g><path style="opacity:1" fill="#665b53" d="M 115.5,115.5 C 114.2,116.827 112.867,118.16 111.5,119.5C 113.017,127.954 109.684,133.787 101.5,137C 98.7314,137.863 95.898,138.363 93,138.5C 84.8123,137.891 76.6456,137.225 68.5,136.5C 66.1667,135.167 63.8333,135.167 61.5,136.5C 61.1667,135.833 60.8333,135.167 60.5,134.5C 61.1667,134.5 61.5,134.167 61.5,133.5C 74.176,133.769 86.8426,133.936 99.5,134C 102.597,132.727 105.264,130.893 107.5,128.5C 109.423,124.971 110.089,120.971 109.5,116.5C 110.5,116.167 111.167,115.5 111.5,114.5C 113.017,114.489 114.184,113.823 115,112.5C 115.483,113.448 115.649,114.448 115.5,115.5 Z"/></g>
<g><path style="opacity:1" fill="#525f5b" d="M 68.5,136.5 C 60.6276,142.592 51.6276,146.259 41.5,147.5C 38.7629,146.954 36.0963,146.288 33.5,145.5C 34.1667,144.833 34.8333,144.167 35.5,143.5C 45.1259,144.398 53.7926,142.064 61.5,136.5C 63.8333,135.167 66.1667,135.167 68.5,136.5 Z"/></g>
<g><path style="opacity:1" fill="#437964" d="M 55.5,133.5 C 57.1172,134.038 58.7839,134.371 60.5,134.5C 60.8333,135.167 61.1667,135.833 61.5,136.5C 53.7926,142.064 45.1259,144.398 35.5,143.5C 33.9275,142.313 32.2608,141.313 30.5,140.5C 31.1667,140.5 31.5,140.167 31.5,139.5C 37.3741,141.12 43.3741,141.62 49.5,141C 51.4386,140.092 52.4386,138.592 52.5,136.5C 55.1951,136.437 56.1951,135.437 55.5,133.5 Z"/></g>
</svg>
