<?xml version="1.0" encoding="UTF-8"?>
<!DOCTYPE svg PUBLIC "-//W3C//DTD SVG 1.1//EN" "http://www.w3.org/Graphics/SVG/1.1/DTD/svg11.dtd">
<svg xmlns="http://www.w3.org/2000/svg" version="1.1" width="200px" height="150px" style="shape-rendering:geometricPrecision; text-rendering:geometricPrecision; image-rendering:optimizeQuality; fill-rule:evenodd; clip-rule:evenodd" xmlns:xlink="http://www.w3.org/1999/xlink">
<g><path style="opacity:1" fill="#f4d0b4" d="M 61.5,20.5 C 53.2755,16.1143 49.6088,18.4476 50.5,27.5C 47.9249,26.2716 45.5916,24.6049 43.5,22.5C 42.5713,23.6888 42.238,25.0222 42.5,26.5C 41.0687,25.2196 40.4021,23.5529 40.5,21.5C 40.3284,20.5084 40.6618,19.8417 41.5,19.5C 41.5,19.8333 41.5,20.1667 41.5,20.5C 41.56,21.0431 41.8933,21.3764 42.5,21.5C 44.5075,19.9918 46.1741,18.1584 47.5,16C 51.0944,14.2591 54.7611,14.0924 58.5,15.5C 60.321,16.7277 61.321,18.3944 61.5,20.5 Z"/></g>
<g><path style="opacity:1" fill="#5b453a" d="M 61.5,20.5 C 63.136,22.3835 63.4693,24.3835 62.5,26.5C 60.5687,20.4972 57.0687,19.1639 52,22.5C 51.2488,26.529 52.7488,27.8624 56.5,26.5C 55.5,25.8333 54.5,25.1667 53.5,24.5C 56.1536,23.1597 57.8202,23.993 58.5,27C 58.3613,28.301 57.6946,29.1344 56.5,29.5C 54.1417,29.7475 52.1417,29.0808 50.5,27.5C 49.6088,18.4476 53.2755,16.1143 61.5,20.5 Z"/></g>
<g><path style="opacity:1" fill="#f8e8d8" d="M 45.5,14.5 C 45.8417,13.6618 46.5084,13.3284 47.5,13.5C 47.8333,14.8333 48.1667,14.8333 48.5,13.5C 51.8333,13.5 55.1667,13.5 58.5,13.5C 58.8417,14.3382 59.5084,14.6716 60.5,14.5C 60.9731,15.9063 61.9731,16.573 63.5,16.5C 63.5,17.1667 63.8333,17.5 64.5,17.5C 64.5,18.1667 64.8333,18.5 65.5,18.5C 65.5,19.1667 65.8333,19.5 66.5,19.5C 66.5,20.1667 66.8333,20.5 67.5,20.5C 67.5,21.1667 67.8333,21.5 68.5,21.5C 68.5,22.1667 68.8333,22.5 69.5,22.5C 69.5,23.1667 69.8333,23.5 70.5,23.5C 71.5,23.8333 72.1667,24.5 72.5,25.5C 71.1667,25.8333 71.1667,26.1667 72.5,26.5C 73.5,26.8333 74.1667,27.5 74.5,28.5C 73.8333,28.5 73.5,28.8333 73.5,29.5C 70.9454,27.3936 68.6121,25.0602 66.5,22.5C 64.9783,21.438 63.3117,20.7713 61.5,20.5C 61.321,18.3944 60.321,16.7277 58.5,15.5C 54.7611,14.0924 51.0944,14.2591 47.5,16C 46.1741,18.1584 44.5075,19.9918 42.5,21.5C 41.8933,21.3764 41.56,21.0431 41.5,20.5C 42.8333,20.1667 42.8333,19.8333 41.5,19.5C 41.9321,18.2905 42.5987,17.2905 43.5,16.5C 43.8333,17.8333 44.1667,17.8333 44.5,16.5C 45.1667,16.5 45.5,16.1667 45.5,15.5C 46.8333,15.1667 46.8333,14.8333 45.5,14.5 Z"/></g>
<g><path style="opacity:1" fill="#f0bd92" d="M 50.5,27.5 C 52.1417,29.0808 54.1417,29.7475 56.5,29.5C 56.0825,30.2216 55.4158,30.7216 54.5,31C 60.7563,37.762 67.423,43.9287 74.5,49.5C 74.5,50.1667 74.5,50.8333 74.5,51.5C 79.786,56.0795 84.1194,61.4129 87.5,67.5C 87.1445,68.5223 86.4778,69.189 85.5,69.5C 72.8062,53.4729 58.4729,39.1395 42.5,26.5C 42.238,25.0222 42.5713,23.6888 43.5,22.5C 45.5916,24.6049 47.9249,26.2716 50.5,27.5 Z"/></g>
<g><path style="opacity:1" fill="#fad5b7" d="M 61.5,20.5 C 63.3117,20.7713 64.9783,21.438 66.5,22.5C 68.6121,25.0602 70.9454,27.3936 73.5,29.5C 73.4843,34.1363 75.3176,37.803 79,40.5C 79.4828,41.448 79.6495,42.448 79.5,43.5C 78.5569,46.1092 76.8903,48.1092 74.5,49.5C 67.423,43.9287 60.7563,37.762 54.5,31C 55.4158,30.7216 56.0825,30.2216 56.5,29.5C 57.6946,29.1344 58.3613,28.301 58.5,27C 57.8202,23.993 56.1536,23.1597 53.5,24.5C 54.5,25.1667 55.5,25.8333 56.5,26.5C 52.7488,27.8624 51.2488,26.529 52,22.5C 57.0687,19.1639 60.5687,20.4972 62.5,26.5C 63.4693,24.3835 63.136,22.3835 61.5,20.5 Z"/></g>
<g><path style="opacity:1" fill="#585758" d="M 106.5,58.5 C 105.596,59.209 105.263,60.209 105.5,61.5C 105.167,61.5 104.833,61.5 104.5,61.5C 104.027,60.0937 103.027,59.427 101.5,59.5C 101.158,58.6618 100.492,58.3284 99.5,58.5C 99.5,57.8333 99.1667,57.5 98.5,57.5C 97.7377,55.7376 96.4044,54.7376 94.5,54.5C 94.5,53.8333 94.1667,53.5 93.5,53.5C 93.5,52.8333 93.1667,52.5 92.5,52.5C 92.5,51.8333 92.1667,51.5 91.5,51.5C 91.5,50.8333 91.1667,50.5 90.5,50.5C 90.5,50.1667 90.5,49.8333 90.5,49.5C 88.1667,46.5 85.5,43.8333 82.5,41.5C 82.5,40.8333 82.1667,40.5 81.5,40.5C 81.5,40.1667 81.5,39.8333 81.5,39.5C 80.396,37.6115 79.0627,35.9448 77.5,34.5C 77.5,34.1667 77.5,33.8333 77.5,33.5C 77.5,32.8333 77.1667,32.5 76.5,32.5C 76.5,32.1667 76.5,31.8333 76.5,31.5C 76.1667,30.5 75.5,29.8333 74.5,29.5C 74.5,29.1667 74.5,28.8333 74.5,28.5C 74.1667,27.5 73.5,26.8333 72.5,26.5C 72.5,26.1667 72.5,25.8333 72.5,25.5C 72.1667,24.5 71.5,23.8333 70.5,23.5C 69.8333,23.5 69.5,23.1667 69.5,22.5C 68.8333,22.5 68.5,22.1667 68.5,21.5C 67.8333,21.5 67.5,21.1667 67.5,20.5C 66.8333,20.5 66.5,20.1667 66.5,19.5C 65.8333,19.5 65.5,19.1667 65.5,18.5C 64.8333,18.5 64.5,18.1667 64.5,17.5C 63.8333,17.5 63.5,17.1667 63.5,16.5C 63.0269,15.0937 62.0269,14.427 60.5,14.5C 60.1583,13.6618 59.4916,13.3284 58.5,13.5C 57.0028,12.6942 55.3361,12.0276 53.5,11.5C 51.6639,12.0276 49.9972,12.6942 48.5,13.5C 48.1667,13.5 47.8333,13.5 47.5,13.5C 46.5084,13.3284 45.8417,13.6618 45.5,14.5C 45.5,14.8333 45.5,15.1667 45.5,15.5C 44.8333,15.5 44.5,15.8333 44.5,16.5C 44.1667,16.5 43.8333,16.5 43.5,16.5C 42.5987,17.2905 41.9321,18.2905 41.5,19.5C 40.6618,19.8417 40.3284,20.5084 40.5,21.5C 39.8333,22.8333 39.1667,24.1667 38.5,25.5C 37.9978,12.8472 44.3311,7.0139 57.5,8C 63.6471,10.4924 68.8137,14.3257 73,19.5C 81.1849,35.1759 92.3516,48.1759 106.5,58.5 Z M 60.5,14.5 C 62.0269,14.427 63.0269,15.0937 63.5,16.5C 61.9731,16.573 60.9731,15.9063 60.5,14.5 Z M 58.5,13.5 C 55.1667,13.5 51.8333,13.5 48.5,13.5C 49.9972,12.6942 51.6639,12.0276 53.5,11.5C 55.3361,12.0276 57.0028,12.6942 58.5,13.5 Z"/></g>
<g><path style="opacity:0.622" fill="#f4e5d7" d="M 73.5,29.5 C 73.8333,29.5 74.1667,29.5 74.5,29.5C 75.5,29.8333 76.1667,30.5 76.5,31.5C 75.1667,31.8333 75.1667,32.1667 76.5,32.5C 77.1667,32.5 77.5,32.8333 77.5,33.5C 76.1667,33.8333 76.1667,34.1667 77.5,34.5C 79.0627,35.9448 80.396,37.6115 81.5,39.5C 80.1667,39.8333 80.1667,40.1667 81.5,40.5C 82.1667,40.5 82.5,40.8333 82.5,41.5C 85.5,43.8333 88.1667,46.5 90.5,49.5C 89.1667,49.8333 89.1667,50.1667 90.5,50.5C 91.1667,50.5 91.5,50.8333 91.5,51.5C 92.1667,51.5 92.5,51.8333 92.5,52.5C 93.1667,52.5 93.5,52.8333 93.5,53.5C 93.5,53.8333 93.5,54.1667 93.5,54.5C 90.4969,52.9932 87.8302,50.9932 85.5,48.5C 83.9547,47.5481 82.288,47.2148 80.5,47.5C 82.0781,45.6253 81.7448,44.2919 79.5,43.5C 79.6495,42.448 79.4828,41.448 79,40.5C 75.3176,37.803 73.4843,34.1363 73.5,29.5 Z"/></g>
<g><path style="opacity:1" fill="#5d4632" d="M 79.5,43.5 C 81.7448,44.2919 82.0781,45.6253 80.5,47.5C 78.7541,49.2516 76.7541,50.5849 74.5,51.5C 74.5,50.8333 74.5,50.1667 74.5,49.5C 76.8903,48.1092 78.5569,46.1092 79.5,43.5 Z"/></g>
<g><path style="opacity:1" fill="#574f49" d="M 40.5,21.5 C 40.4021,23.5529 41.0687,25.2196 42.5,26.5C 58.4729,39.1395 72.8062,53.4729 85.5,69.5C 86.8943,71.9514 87.7276,74.6181 88,77.5C 90.6645,78.474 90.8312,79.1407 88.5,79.5C 88.1667,79.5 87.8333,79.5 87.5,79.5C 86.391,79.4431 85.391,79.1098 84.5,78.5C 85.2492,76.3719 85.2492,74.7052 84.5,73.5C 71.5293,57.0297 56.6959,42.363 40,29.5C 39.2086,28.255 38.7086,26.9217 38.5,25.5C 39.1667,24.1667 39.8333,22.8333 40.5,21.5 Z"/></g>
<g><path style="opacity:1" fill="#fbd4b5" d="M 80.5,47.5 C 82.288,47.2148 83.9547,47.5481 85.5,48.5C 87.8302,50.9932 90.4969,52.9932 93.5,54.5C 94.1667,56.5 94.8333,58.5 95.5,60.5C 98.6344,61.2785 101.301,62.9452 103.5,65.5C 106.866,66.2403 110.2,66.907 113.5,67.5C 114.386,71.0833 115.386,74.75 116.5,78.5C 107.481,82.1701 98.4813,86.1701 89.5,90.5C 87.9519,90.1788 87.2852,89.1788 87.5,87.5C 88.7383,87.19 88.7383,86.69 87.5,86C 88.9603,84.418 90.627,83.0847 92.5,82C 90.9336,81.3918 89.6002,80.5585 88.5,79.5C 90.8312,79.1407 90.6645,78.474 88,77.5C 87.7276,74.6181 86.8943,71.9514 85.5,69.5C 86.4778,69.189 87.1445,68.5223 87.5,67.5C 84.1194,61.4129 79.786,56.0795 74.5,51.5C 76.7541,50.5849 78.7541,49.2516 80.5,47.5 Z"/></g>
<g><path style="opacity:0.871" fill="#565454" d="M 84.5,73.5 C 85.2492,74.7052 85.2492,76.3719 84.5,78.5C 72.0945,74.6425 59.7612,70.4758 47.5,66C 41.5,63.3333 35.5,60.6667 29.5,58C 24.3546,56.3903 20.6879,57.8903 18.5,62.5C 18.1667,62.5 17.8333,62.5 17.5,62.5C 16.0762,64.5145 15.4095,66.8478 15.5,69.5C 16.0231,72.878 17.3565,75.878 19.5,78.5C 19.9156,80.7525 21.249,82.2525 23.5,83C 22.944,83.3826 22.6107,83.8826 22.5,84.5C 12.2371,78.6069 9.73713,70.2735 15,59.5C 19.0173,54.4073 24.184,52.5739 30.5,54C 36.2521,56.4735 41.9187,59.1402 47.5,62C 59.4735,66.2688 71.4735,70.4355 83.5,74.5C 84.1067,74.3764 84.44,74.0431 84.5,73.5 Z"/></g>
<g><path style="opacity:0.988" fill="#555656" d="M 115.5,137.5 C 120.651,136.673 125.984,136.173 131.5,136C 129.942,135.79 128.609,135.29 127.5,134.5C 130.855,134.091 133.855,134.758 136.5,136.5C 146.348,143.714 157.014,145.214 168.5,141C 170.041,139.629 171.375,138.129 172.5,136.5C 172.5,136.167 172.5,135.833 172.5,135.5C 173.167,135.5 173.5,135.167 173.5,134.5C 184.022,121.012 186.188,106.346 180,90.5C 175.223,84.5268 169.056,82.0268 161.5,83C 162.056,83.3826 162.389,83.8826 162.5,84.5C 162.737,85.791 162.404,86.791 161.5,87.5C 161.062,86.4937 160.396,86.4937 159.5,87.5C 157.872,83.3775 156.539,79.0442 155.5,74.5C 155.672,73.5084 155.338,72.8417 154.5,72.5C 152.02,63.049 146.353,56.2157 137.5,52C 127.945,48.0481 120.945,50.5481 116.5,59.5C 115.662,59.8417 115.328,60.5084 115.5,61.5C 112.863,60.8359 110.197,60.1693 107.5,59.5C 106.702,59.9569 106.369,60.6236 106.5,61.5C 106.167,61.5 105.833,61.5 105.5,61.5C 105.263,60.209 105.596,59.209 106.5,58.5C 108.655,58.628 110.655,58.128 112.5,57C 118.495,47.5025 126.828,44.5025 137.5,48C 149.871,54.047 157.371,63.8804 160,77.5C 181.557,79.9133 190.557,91.9133 187,113.5C 179.917,146.965 161.751,155.131 132.5,138C 126.843,137.501 121.176,137.334 115.5,137.5 Z"/></g>
<g><path style="opacity:1" fill="#f7e5d4" d="M 93.5,54.5 C 93.8333,54.5 94.1667,54.5 94.5,54.5C 95.2623,56.2624 96.5956,57.2624 98.5,57.5C 99.1667,57.5 99.5,57.8333 99.5,58.5C 99.8417,59.3382 100.508,59.6716 101.5,59.5C 103.027,59.427 104.027,60.0937 104.5,61.5C 104.833,62.8333 105.167,62.8333 105.5,61.5C 105.833,61.5 106.167,61.5 106.5,61.5C 106.973,62.9063 107.973,63.573 109.5,63.5C 110.833,63.5 112.167,63.5 113.5,63.5C 113.5,64.8333 113.5,66.1667 113.5,67.5C 110.2,66.907 106.866,66.2403 103.5,65.5C 101.301,62.9452 98.6344,61.2785 95.5,60.5C 94.8333,58.5 94.1667,56.5 93.5,54.5 Z"/></g>
<g><path style="opacity:1" fill="#fbd3b2" d="M 34.5,74.5 C 34.5,73.8333 34.5,73.1667 34.5,72.5C 35.1495,70.5648 35.4828,68.5648 35.5,66.5C 43.0054,65.6737 46.672,69.007 46.5,76.5C 47.9574,74.725 49.1241,72.725 50,70.5C 51.7337,71.2489 53.567,71.7489 55.5,72C 56.3805,72.7083 57.0472,73.5416 57.5,74.5C 55.3266,75.166 54.9933,76.3326 56.5,78C 55.8883,80.0577 54.8883,81.891 53.5,83.5C 53.6236,84.1067 53.9569,84.44 54.5,84.5C 54.5,84.8333 54.5,85.1667 54.5,85.5C 46.1632,82.2786 37.4966,80.1119 28.5,79C 24.2541,77.8022 21.0875,75.3022 19,71.5C 18.3333,72.8333 18.3333,74.1667 19,75.5C 20.4813,76.4709 21.3146,77.8042 21.5,79.5C 20.8333,79.1667 20.1667,78.8333 19.5,78.5C 17.3565,75.878 16.0231,72.878 15.5,69.5C 16.1174,69.3893 16.6174,69.056 17,68.5C 17.9906,69.9389 19.324,70.9389 21,71.5C 21.3534,70.3284 21.1868,69.1618 20.5,68C 21.0085,66.8315 21.8419,65.9981 23,65.5C 23.711,67.8991 23.5443,70.2324 22.5,72.5C 24.8497,75.6857 28.0163,77.6857 32,78.5C 34.0197,77.9681 34.853,76.6348 34.5,74.5 Z"/></g>
<g><path style="opacity:1" fill="#fad4b7" d="M 155.5,90.5 C 154.504,90.4142 153.671,90.7476 153,91.5C 152.755,93.6633 151.755,95.33 150,96.5C 148.842,96.0019 148.009,95.1685 147.5,94C 150.356,89.4256 151.023,84.5923 149.5,79.5C 146.95,79.5608 145.45,80.8941 145,83.5C 144.932,88.0033 143.765,92.17 141.5,96C 144.544,96.3589 144.878,97.0255 142.5,98C 145.032,99.4582 147.365,100.458 149.5,101C 148.773,102.399 148.273,103.899 148,105.5C 147.667,104.833 147.333,104.167 147,103.5C 145.065,105.759 142.565,106.759 139.5,106.5C 141.277,105.4 143.277,104.566 145.5,104C 143.527,103.505 141.527,103.338 139.5,103.5C 139.873,97.4113 140.873,91.4113 142.5,85.5C 142.169,81.1738 140.836,77.1738 138.5,73.5C 138.855,72.4777 139.522,71.811 140.5,71.5C 142.252,71.5824 143.252,70.7491 143.5,69C 142.767,67.2341 142.433,65.4008 142.5,63.5C 144.582,63.472 146.416,64.1387 148,65.5C 150.573,69.6424 152.906,73.9757 155,78.5C 155.499,82.4862 155.666,86.4862 155.5,90.5 Z"/></g>
<g><path style="opacity:1" fill="#f9d4b7" d="M 123.5,55.5 C 127.24,55.2408 130.906,55.5741 134.5,56.5C 136.024,58.8579 138.024,60.6912 140.5,62C 138.942,62.21 137.609,62.71 136.5,63.5C 135.624,63.3691 134.957,63.7025 134.5,64.5C 135.254,67.777 135.754,71.1103 136,74.5C 143.105,84.8412 141.605,93.6745 131.5,101C 129.19,101.497 126.857,101.663 124.5,101.5C 123.859,100.518 123.193,99.5178 122.5,98.5C 132.617,97.4296 135.617,92.2629 131.5,83C 127.917,81.0476 124.417,81.2143 121,83.5C 117.901,76.438 116.068,69.1047 115.5,61.5C 115.328,60.5084 115.662,59.8417 116.5,59.5C 116.435,59.9382 116.601,60.2716 117,60.5C 118.777,58.2101 120.944,56.5434 123.5,55.5 Z"/></g>
<g><path style="opacity:1" fill="#f6d9c1" d="M 87.5,79.5 C 87.8333,79.5 88.1667,79.5 88.5,79.5C 89.6002,80.5585 90.9336,81.3918 92.5,82C 90.627,83.0847 88.9603,84.418 87.5,86C 88.7383,86.69 88.7383,87.19 87.5,87.5C 84.9556,87.8957 82.7889,87.229 81,85.5C 80.5065,87.1341 80.3398,88.8008 80.5,90.5C 79.5,90.5 78.5,90.5 77.5,90.5C 78.1557,88.516 78.8224,86.516 79.5,84.5C 79.1667,83.8333 78.8333,83.1667 78.5,82.5C 77.4897,85.1828 76.4897,87.8495 75.5,90.5C 74.7824,88.7542 73.7824,88.0875 72.5,88.5C 74.1678,85.8227 75.8345,83.156 77.5,80.5C 72.0776,77.4559 66.4109,76.1226 60.5,76.5C 61.8114,77.2575 62.3114,78.2575 62,79.5C 59.8556,81.9193 57.3556,83.586 54.5,84.5C 58.2603,82.0515 59.2603,78.7182 57.5,74.5C 57.0472,73.5416 56.3805,72.7083 55.5,72C 53.567,71.7489 51.7337,71.2489 50,70.5C 49.1241,72.725 47.9574,74.725 46.5,76.5C 46.672,69.007 43.0054,65.6737 35.5,66.5C 35.4828,68.5648 35.1495,70.5648 34.5,72.5C 32.2646,72.7947 30.2646,72.4614 28.5,71.5C 33.3276,71.6148 34.6609,69.4481 32.5,65C 26.4983,64.0069 24.3317,66.5069 26,72.5C 28.4057,75.3108 31.239,75.9775 34.5,74.5C 34.853,76.6348 34.0197,77.9681 32,78.5C 28.0163,77.6857 24.8497,75.6857 22.5,72.5C 23.5443,70.2324 23.711,67.8991 23,65.5C 21.8419,65.9981 21.0085,66.8315 20.5,68C 21.1868,69.1618 21.3534,70.3284 21,71.5C 19.324,70.9389 17.9906,69.9389 17,68.5C 16.6174,69.056 16.1174,69.3893 15.5,69.5C 15.4095,66.8478 16.0762,64.5145 17.5,62.5C 17.8333,63.8333 18.1667,63.8333 18.5,62.5C 21.8711,60.3197 25.5378,59.4864 29.5,60C 47.6189,68.2215 66.2856,75.0548 85.5,80.5C 86.4164,80.4573 87.0831,80.1239 87.5,79.5 Z"/></g>
<g><path style="opacity:1" fill="#604e3f" d="M 28.5,71.5 C 30.2646,72.4614 32.2646,72.7947 34.5,72.5C 34.5,73.1667 34.5,73.8333 34.5,74.5C 31.239,75.9775 28.4057,75.3108 26,72.5C 24.3317,66.5069 26.4983,64.0069 32.5,65C 34.6609,69.4481 33.3276,71.6148 28.5,71.5 Z"/></g>
<g><path style="opacity:1" fill="#e1ccbc" d="M 28.5,71.5 C 26.7271,68.324 27.7271,66.6573 31.5,66.5C 31.5,67.5 31.5,68.5 31.5,69.5C 29.8212,69.2852 28.8212,69.9519 28.5,71.5 Z"/></g>
<g><path style="opacity:1" fill="#fcd5b3" d="M 75.5,90.5 C 76.1667,90.5 76.8333,90.5 77.5,90.5C 78.5,90.5 79.5,90.5 80.5,90.5C 80.3398,88.8008 80.5065,87.1341 81,85.5C 82.7889,87.229 84.9556,87.8957 87.5,87.5C 87.2852,89.1788 87.9519,90.1788 89.5,90.5C 87.752,93.0423 85.252,94.3756 82,94.5C 72.7135,91.7933 63.5469,88.7933 54.5,85.5C 54.5,85.1667 54.5,84.8333 54.5,84.5C 57.3556,83.586 59.8556,81.9193 62,79.5C 62.3114,78.2575 61.8114,77.2575 60.5,76.5C 66.4109,76.1226 72.0776,77.4559 77.5,80.5C 75.8345,83.156 74.1678,85.8227 72.5,88.5C 73.7824,88.0875 74.7824,88.7542 75.5,90.5 Z"/></g>
<g><path style="opacity:1" fill="#624736" d="M 57.5,74.5 C 59.2603,78.7182 58.2603,82.0515 54.5,84.5C 53.9569,84.44 53.6236,84.1067 53.5,83.5C 54.8883,81.891 55.8883,80.0577 56.5,78C 54.9933,76.3326 55.3266,75.166 57.5,74.5 Z"/></g>
<g><path style="opacity:1" fill="#5c4f44" d="M 115.5,61.5 C 116.068,69.1047 117.901,76.438 121,83.5C 124.417,81.2143 127.917,81.0476 131.5,83C 135.617,92.2629 132.617,97.4296 122.5,98.5C 123.193,99.5178 123.859,100.518 124.5,101.5C 123.833,101.5 123.5,101.833 123.5,102.5C 122.883,102.389 122.383,102.056 122,101.5C 113.731,106.051 105.231,110.218 96.5,114C 93.9774,115.36 91.9774,117.193 90.5,119.5C 89.8902,118.609 89.5569,117.609 89.5,116.5C 90.1667,116.5 90.5,116.167 90.5,115.5C 99.8924,110.137 109.559,105.304 119.5,101C 120.821,97.0659 120.821,93.2326 119.5,89.5C 119.737,88.209 119.404,87.209 118.5,86.5C 105.964,88.0867 94.6304,93.0867 84.5,101.5C 83.6258,103.747 83.2924,106.08 83.5,108.5C 82.7552,105.61 82.0885,102.61 81.5,99.5C 86.9431,96.6081 92.2765,93.4414 97.5,90C 104.036,87.321 110.703,85.1543 117.5,83.5C 117.784,81.5853 117.451,79.9187 116.5,78.5C 115.386,74.75 114.386,71.0833 113.5,67.5C 113.5,66.1667 113.5,64.8333 113.5,63.5C 113.38,62.4138 112.713,61.7472 111.5,61.5C 110.287,61.7472 109.62,62.4138 109.5,63.5C 107.973,63.573 106.973,62.9063 106.5,61.5C 106.369,60.6236 106.702,59.9569 107.5,59.5C 110.197,60.1693 112.863,60.8359 115.5,61.5 Z M 125.5,83.5 C 131.464,84.6149 132.964,87.9482 130,93.5C 128.028,95.4425 125.861,95.7758 123.5,94.5C 122.674,92.0411 122.007,89.5411 121.5,87C 122.686,85.5879 124.019,84.4212 125.5,83.5 Z M 113.5,63.5 C 112.167,63.5 110.833,63.5 109.5,63.5C 109.62,62.4138 110.287,61.7472 111.5,61.5C 112.713,61.7472 113.38,62.4138 113.5,63.5 Z"/></g>
<g><path style="opacity:1" fill="#f4d3ba" d="M 154.5,72.5 C 154.328,73.4916 154.662,74.1583 155.5,74.5C 156.539,79.0442 157.872,83.3775 159.5,87.5C 159.389,88.1174 159.056,88.6174 158.5,89C 159.931,89.4652 161.097,90.2986 162,91.5C 162.399,91.2716 162.565,90.9382 162.5,90.5C 163.338,90.8417 163.672,91.5084 163.5,92.5C 162.167,92.8333 162.167,93.1667 163.5,93.5C 166.299,102.715 164.965,111.381 159.5,119.5C 159.196,117.204 158.196,116.871 156.5,118.5C 158.246,115.337 159.746,112.004 161,108.5C 160.996,96.4999 160.329,96.4999 159,108.5C 157.364,111.606 155.864,114.773 154.5,118C 154.57,118.765 154.903,119.265 155.5,119.5C 152.688,121.923 149.355,123.59 145.5,124.5C 145.924,119.462 148.59,117.129 153.5,117.5C 153.33,116.178 153.663,115.011 154.5,114C 153.376,113.751 152.376,113.251 151.5,112.5C 153.086,110.827 153.753,108.827 153.5,106.5C 154.749,105.222 156.249,104.222 158,103.5C 158.167,102.333 158.333,101.167 158.5,100C 157.125,96.9419 156.125,93.7752 155.5,90.5C 155.666,86.4862 155.499,82.4862 155,78.5C 152.906,73.9757 150.573,69.6424 148,65.5C 146.416,64.1387 144.582,63.472 142.5,63.5C 142.433,65.4008 142.767,67.2341 143.5,69C 143.252,70.7491 142.252,71.5824 140.5,71.5C 141.519,69.4595 141.519,67.4595 140.5,65.5C 139.813,67.2744 138.98,68.9411 138,70.5C 137.56,68.1341 137.06,65.8008 136.5,63.5C 137.609,62.71 138.942,62.21 140.5,62C 138.024,60.6912 136.024,58.8579 134.5,56.5C 130.906,55.5741 127.24,55.2408 123.5,55.5C 127.924,53.0258 132.591,52.8591 137.5,55C 144.741,59.4059 150.407,65.2392 154.5,72.5 Z"/></g>
<g><path style="opacity:1" fill="#fbd6b7" d="M 118.5,86.5 C 119.404,87.209 119.737,88.209 119.5,89.5C 117.78,91.6581 116.947,94.3248 117,97.5C 115.5,98.3333 114.333,99.5 113.5,101C 107.799,104.044 102.132,106.711 96.5,109C 94.5,109.333 92.5,109.667 90.5,110C 89.193,111.943 89.193,113.777 90.5,115.5C 90.5,116.167 90.1667,116.5 89.5,116.5C 88.5,116.167 87.8333,115.5 87.5,114.5C 88.8333,114.167 88.8333,113.833 87.5,113.5C 86.9916,111.135 86.3249,108.801 85.5,106.5C 90.1243,100.051 96.1243,95.2174 103.5,92C 108.571,90.0353 113.571,88.202 118.5,86.5 Z"/></g>
<g><path style="opacity:1" fill="#f0bd93" d="M 54.5,85.5 C 63.5469,88.7933 72.7135,91.7933 82,94.5C 85.252,94.3756 87.752,93.0423 89.5,90.5C 98.4813,86.1701 107.481,82.1701 116.5,78.5C 117.451,79.9187 117.784,81.5853 117.5,83.5C 110.703,85.1543 104.036,87.321 97.5,90C 92.2765,93.4414 86.9431,96.6081 81.5,99.5C 63.5721,92.6911 45.2388,87.1911 26.5,83C 24.4156,82.3028 22.7489,81.1361 21.5,79.5C 21.3146,77.8042 20.4813,76.4709 19,75.5C 18.3333,74.1667 18.3333,72.8333 19,71.5C 21.0875,75.3022 24.2541,77.8022 28.5,79C 37.4966,80.1119 46.1632,82.2786 54.5,85.5 Z"/></g>
<g><path style="opacity:1" fill="#503a2e" d="M 77.5,90.5 C 76.8333,90.5 76.1667,90.5 75.5,90.5C 76.4897,87.8495 77.4897,85.1828 78.5,82.5C 78.8333,83.1667 79.1667,83.8333 79.5,84.5C 78.8224,86.516 78.1557,88.516 77.5,90.5 Z"/></g>
<g><path style="opacity:1" fill="#fcd5b4" d="M 155.5,90.5 C 156.125,93.7752 157.125,96.9419 158.5,100C 158.333,101.167 158.167,102.333 158,103.5C 156.249,104.222 154.749,105.222 153.5,106.5C 152.85,106.196 152.183,105.863 151.5,105.5C 149.486,106.936 147.486,108.27 145.5,109.5C 143.95,108.268 142.283,107.768 140.5,108C 139.1,111.402 136.933,114.236 134,116.5C 133.316,117.784 133.483,118.951 134.5,120C 137.167,120.667 139.833,121.333 142.5,122C 140.341,125.834 137.341,126.501 133.5,124C 132.663,122.989 132.33,121.822 132.5,120.5C 129.447,119.576 126.447,119.576 123.5,120.5C 130.959,118.381 136.292,113.714 139.5,106.5C 142.565,106.759 145.065,105.759 147,103.5C 147.333,104.167 147.667,104.833 148,105.5C 148.273,103.899 148.773,102.399 149.5,101C 147.365,100.458 145.032,99.4582 142.5,98C 144.878,97.0255 144.544,96.3589 141.5,96C 143.765,92.17 144.932,88.0033 145,83.5C 145.45,80.8941 146.95,79.5608 149.5,79.5C 151.023,84.5923 150.356,89.4256 147.5,94C 148.009,95.1685 148.842,96.0019 150,96.5C 151.755,95.33 152.755,93.6633 153,91.5C 153.671,90.7476 154.504,90.4142 155.5,90.5 Z"/></g>
<g><path style="opacity:1" fill="#544d49" d="M 19.5,78.5 C 20.1667,78.8333 20.8333,79.1667 21.5,79.5C 22.7489,81.1361 24.4156,82.3028 26.5,83C 45.2388,87.1911 63.5721,92.6911 81.5,99.5C 82.0885,102.61 82.7552,105.61 83.5,108.5C 84.1237,110.754 85.457,112.421 87.5,113.5C 87.5,113.833 87.5,114.167 87.5,114.5C 87.8333,115.5 88.5,116.167 89.5,116.5C 89.5569,117.609 89.8902,118.609 90.5,119.5C 90.5,120.167 90.5,120.833 90.5,121.5C 89.5403,126.193 91.2069,129.526 95.5,131.5C 100.184,135.303 105.518,136.303 111.5,134.5C 116.833,134.5 122.167,134.5 127.5,134.5C 128.609,135.29 129.942,135.79 131.5,136C 125.984,136.173 120.651,136.673 115.5,137.5C 107.814,139.498 100.48,138.665 93.5,135C 88.0295,131.078 86.0295,125.911 87.5,119.5C 81.9951,114.991 78.9951,109.158 78.5,102C 60.1112,95.0356 41.4445,89.2023 22.5,84.5C 22.6107,83.8826 22.944,83.3826 23.5,83C 21.249,82.2525 19.9156,80.7525 19.5,78.5 Z"/></g>
<g><path style="opacity:1" fill="#57453a" d="M 136.5,63.5 C 137.06,65.8008 137.56,68.1341 138,70.5C 138.98,68.9411 139.813,67.2744 140.5,65.5C 141.519,67.4595 141.519,69.4595 140.5,71.5C 139.522,71.811 138.855,72.4777 138.5,73.5C 140.836,77.1738 142.169,81.1738 142.5,85.5C 140.873,91.4113 139.873,97.4113 139.5,103.5C 141.527,103.338 143.527,103.505 145.5,104C 143.277,104.566 141.277,105.4 139.5,106.5C 136.292,113.714 130.959,118.381 123.5,120.5C 119.657,122.834 115.49,124.5 111,125.5C 110.5,125.167 110,124.833 109.5,124.5C 113.072,123.478 116.405,121.978 119.5,120C 117.956,119.71 116.623,119.044 115.5,118C 125.219,118.726 132.386,114.893 137,106.5C 137.667,104.167 137.667,101.833 137,99.5C 133.087,103.318 128.587,104.318 123.5,102.5C 123.5,101.833 123.833,101.5 124.5,101.5C 126.857,101.663 129.19,101.497 131.5,101C 141.605,93.6745 143.105,84.8412 136,74.5C 135.754,71.1103 135.254,67.777 134.5,64.5C 134.957,63.7025 135.624,63.3691 136.5,63.5 Z"/></g>
<g><path style="opacity:1" fill="#edbe98" d="M 119.5,89.5 C 120.821,93.2326 120.821,97.0659 119.5,101C 109.559,105.304 99.8924,110.137 90.5,115.5C 89.193,113.777 89.193,111.943 90.5,110C 92.5,109.667 94.5,109.333 96.5,109C 102.132,106.711 107.799,104.044 113.5,101C 114.333,99.5 115.5,98.3333 117,97.5C 116.947,94.3248 117.78,91.6581 119.5,89.5 Z"/></g>
<g><path style="opacity:1" fill="#458f70" d="M 162.5,84.5 C 176.966,90.764 182.466,101.764 179,117.5C 177.698,123.414 175.864,129.081 173.5,134.5C 172.833,134.5 172.5,134.833 172.5,135.5C 171.167,135.833 171.167,136.167 172.5,136.5C 171.375,138.129 170.041,139.629 168.5,141C 157.014,145.214 146.348,143.714 136.5,136.5C 141.371,134.038 146.537,132.038 152,130.5C 166.726,119.22 170.726,104.886 164,87.5C 163.283,88.0442 162.783,88.7109 162.5,89.5C 161.662,89.1583 161.328,88.4916 161.5,87.5C 162.404,86.791 162.737,85.791 162.5,84.5 Z"/></g>
<g><path style="opacity:1" fill="#fdd4b3" d="M 124.5,125.5 C 125.648,126.895 126.648,126.728 127.5,125C 132.803,124.423 133.469,125.589 129.5,128.5C 117.775,128.732 106.108,128.898 94.5,129C 95.2524,129.671 95.5858,130.504 95.5,131.5C 91.2069,129.526 89.5403,126.193 90.5,121.5C 92.0418,120.699 93.7085,120.366 95.5,120.5C 96.0385,116.482 98.2052,115.149 102,116.5C 103.374,112.75 105.874,111.75 109.5,113.5C 111.273,116.06 113.273,118.393 115.5,120.5C 112.185,121.754 109.018,121.421 106,119.5C 105.5,120 105,120.5 104.5,121C 105.86,123.369 107.526,125.536 109.5,127.5C 114.663,128.135 119.663,127.468 124.5,125.5 Z"/></g>
<g><path style="opacity:1" fill="#f7d3b6" d="M 123.5,120.5 C 122.266,122.398 122.599,124.065 124.5,125.5C 119.663,127.468 114.663,128.135 109.5,127.5C 107.526,125.536 105.86,123.369 104.5,121C 105,120.5 105.5,120 106,119.5C 109.018,121.421 112.185,121.754 115.5,120.5C 113.273,118.393 111.273,116.06 109.5,113.5C 105.874,111.75 103.374,112.75 102,116.5C 98.2052,115.149 96.0385,116.482 95.5,120.5C 93.7085,120.366 92.0418,120.699 90.5,121.5C 90.5,120.833 90.5,120.167 90.5,119.5C 91.9774,117.193 93.9774,115.36 96.5,114C 105.231,110.218 113.731,106.051 122,101.5C 122.383,102.056 122.883,102.389 123.5,102.5C 128.587,104.318 133.087,103.318 137,99.5C 137.667,101.833 137.667,104.167 137,106.5C 132.386,114.893 125.219,118.726 115.5,118C 116.623,119.044 117.956,119.71 119.5,120C 116.405,121.978 113.072,123.478 109.5,124.5C 110,124.833 110.5,125.167 111,125.5C 115.49,124.5 119.657,122.834 123.5,120.5 Z"/></g>
<g><path style="opacity:1" fill="#5c483b" d="M 156.5,118.5 C 155.833,118.5 155.5,118.833 155.5,119.5C 154.903,119.265 154.57,118.765 154.5,118C 155.864,114.773 157.364,111.606 159,108.5C 160.329,96.4999 160.996,96.4999 161,108.5C 159.746,112.004 158.246,115.337 156.5,118.5 Z"/></g>
<g><path style="opacity:1" fill="#fdd5b2" d="M 153.5,106.5 C 153.753,108.827 153.086,110.827 151.5,112.5C 152.376,113.251 153.376,113.751 154.5,114C 153.663,115.011 153.33,116.178 153.5,117.5C 148.59,117.129 145.924,119.462 145.5,124.5C 145.423,125.75 144.756,126.583 143.5,127C 138.863,127.829 134.196,128.329 129.5,128.5C 133.469,125.589 132.803,124.423 127.5,125C 126.648,126.728 125.648,126.895 124.5,125.5C 122.599,124.065 122.266,122.398 123.5,120.5C 126.447,119.576 129.447,119.576 132.5,120.5C 132.33,121.822 132.663,122.989 133.5,124C 137.341,126.501 140.341,125.834 142.5,122C 139.833,121.333 137.167,120.667 134.5,120C 133.483,118.951 133.316,117.784 134,116.5C 136.933,114.236 139.1,111.402 140.5,108C 142.283,107.768 143.95,108.268 145.5,109.5C 147.486,108.27 149.486,106.936 151.5,105.5C 152.183,105.863 152.85,106.196 153.5,106.5 Z"/></g>
<g><path style="opacity:1" fill="#575b48" d="M 136.5,136.5 C 133.855,134.758 130.855,134.091 127.5,134.5C 122.167,134.5 116.833,134.5 111.5,134.5C 120.324,133.67 129.324,133.17 138.5,133C 147.225,131.094 154.225,126.594 159.5,119.5C 164.965,111.381 166.299,102.715 163.5,93.5C 163.5,93.1667 163.5,92.8333 163.5,92.5C 163.672,91.5084 163.338,90.8417 162.5,90.5C 162.5,90.1667 162.5,89.8333 162.5,89.5C 162.783,88.7109 163.283,88.0442 164,87.5C 170.726,104.886 166.726,119.22 152,130.5C 146.537,132.038 141.371,134.038 136.5,136.5 Z"/></g>
<g><path style="opacity:1" fill="#f5be92" d="M 159.5,119.5 C 154.225,126.594 147.225,131.094 138.5,133C 129.324,133.17 120.324,133.67 111.5,134.5C 105.518,136.303 100.184,135.303 95.5,131.5C 95.5858,130.504 95.2524,129.671 94.5,129C 106.108,128.898 117.775,128.732 129.5,128.5C 134.196,128.329 138.863,127.829 143.5,127C 144.756,126.583 145.423,125.75 145.5,124.5C 149.355,123.59 152.688,121.923 155.5,119.5C 155.5,118.833 155.833,118.5 156.5,118.5C 158.196,116.871 159.196,117.204 159.5,119.5 Z"/></g>
</svg>
