<?xml version="1.0" encoding="UTF-8"?>
<!DOCTYPE svg PUBLIC "-//W3C//DTD SVG 1.1//EN" "http://www.w3.org/Graphics/SVG/1.1/DTD/svg11.dtd">
<svg xmlns="http://www.w3.org/2000/svg" version="1.1" width="230px" height="176px" style="shape-rendering:geometricPrecision; text-rendering:geometricPrecision; image-rendering:optimizeQuality; fill-rule:evenodd; clip-rule:evenodd" xmlns:xlink="http://www.w3.org/1999/xlink">
<g><path style="opacity:1" fill="#393535" d="M 123.5,54.5 C 124.904,56.2546 125.904,58.2546 126.5,60.5C 126.5,61.5 126.5,62.5 126.5,63.5C 125.833,63.8333 125.167,64.1667 124.5,64.5C 124.5,63.5 124.5,62.5 124.5,61.5C 124.5,60.5 124.5,59.5 124.5,58.5C 119.096,58.0859 113.763,58.0859 108.5,58.5C 93.4295,50.2267 81.2628,38.8934 72,24.5C 68.5,20.3333 64.6667,16.5 60.5,13C 55.3307,9.03133 49.9973,8.698 44.5,12C 42.8588,13.129 41.8588,14.629 41.5,16.5C 40.8333,16.5 40.5,16.8333 40.5,17.5C 37.8363,20.5635 38.003,23.5635 41,26.5C 45.5843,29.2083 50.0843,32.0416 54.5,35C 63.3705,43.3734 72.3705,51.5401 81.5,59.5C 85.5707,63.9647 88.904,68.9647 91.5,74.5C 90.3112,75.4287 88.9778,75.762 87.5,75.5C 68.2396,70.5804 49.2396,64.747 30.5,58C 24.7001,56.5708 20.3668,58.4041 17.5,63.5C 17.0618,63.5654 16.7284,63.3988 16.5,63C 19.1606,59.472 18.8273,58.972 15.5,61.5C 17.6178,56.513 21.4511,53.8464 27,53.5C 45.8219,59.7885 64.8219,65.4552 84,70.5C 84.3152,69.0922 83.9819,67.7589 83,66.5C 74.1966,58.6975 65.6966,50.5309 57.5,42C 51.4356,36.8834 44.9356,32.3834 38,28.5C 33.7779,20.751 35.2779,14.251 42.5,9C 50.7707,5.06138 58.4374,6.06138 65.5,12C 71.5089,17.8625 76.6755,24.3625 81,31.5C 88.3848,40.5614 97.2181,47.728 107.5,53C 112.793,53.977 118.126,54.477 123.5,54.5 Z M 124.5,61.5 C 117.837,62.5283 111.171,62.3617 104.5,61C 100.334,58.0825 96.0006,55.4159 91.5,53C 88.2562,49.2499 84.5895,46.0832 80.5,43.5C 80.8432,41.5168 80.1765,40.1834 78.5,39.5C 74.7657,35.042 71.2657,30.3753 68,25.5C 65.8943,22.8823 63.3943,20.8823 60.5,19.5C 58.6644,17.412 56.3311,16.0787 53.5,15.5C 49.4559,14.0576 45.4559,14.3909 41.5,16.5C 41.8588,14.629 42.8588,13.129 44.5,12C 49.9973,8.698 55.3307,9.03133 60.5,13C 64.6667,16.5 68.5,20.3333 72,24.5C 81.2628,38.8934 93.4295,50.2267 108.5,58.5C 113.763,58.0859 119.096,58.0859 124.5,58.5C 124.5,59.5 124.5,60.5 124.5,61.5 Z"/></g>
<g><path style="opacity:1" fill="#58443a" d="M 53.5,15.5 C 56.3311,16.0787 58.6644,17.412 60.5,19.5C 61.4339,21.2385 61.4339,22.9052 60.5,24.5C 58.5687,18.4972 55.0687,17.1639 50,20.5C 49.0134,24.3482 50.5134,26.3482 54.5,26.5C 54.5,25.5 54.5,24.5 54.5,23.5C 51.2027,23.6713 50.8694,23.0046 53.5,21.5C 57.5688,24.1289 57.4022,26.4622 53,28.5C 47.7837,26.7327 46.4503,23.3993 49,18.5C 50.6516,17.6006 52.1516,16.6006 53.5,15.5 Z"/></g>
<g><path style="opacity:1" fill="#474341" d="M 141.5,13.5 C 142.939,19.3158 143.439,24.9825 143,30.5C 142.667,29.1667 142.333,27.8333 142,26.5C 141.517,27.448 141.351,28.448 141.5,29.5C 141.167,29.5 140.833,29.5 140.5,29.5C 140.5,28.8333 140.5,28.1667 140.5,27.5C 142.45,17.2949 138.45,12.7949 128.5,14C 127.619,14.7083 126.953,15.5416 126.5,16.5C 124.17,18.5844 123.003,21.251 123,24.5C 122.186,29.0204 122.353,33.3537 123.5,37.5C 124.191,42.5977 125.358,47.5977 127,52.5C 127.801,55.367 127.634,58.0336 126.5,60.5C 125.904,58.2546 124.904,56.2546 123.5,54.5C 119.405,42.3932 118.572,30.0598 121,17.5C 125.026,9.15829 131.193,6.99163 139.5,11C 140.381,11.7083 141.047,12.5416 141.5,13.5 Z M 140.5,27.5 C 139.471,19.4903 134.804,15.8236 126.5,16.5C 126.953,15.5416 127.619,14.7083 128.5,14C 138.45,12.7949 142.45,17.2949 140.5,27.5 Z"/></g>
<g><path style="opacity:1" fill="#fcd5b7" d="M 149.5,63.5 C 146.857,68.4961 145.19,73.8294 144.5,79.5C 143.5,79.1667 142.833,78.5 142.5,77.5C 143.246,76.2638 143.579,74.9305 143.5,73.5C 141.226,73.2849 139.059,72.6182 137,71.5C 135.188,71.4934 133.688,72.16 132.5,73.5C 132.288,70.348 132.288,67.0147 132.5,63.5C 131.167,63.5 129.833,63.5 128.5,63.5C 127.52,68.1429 126.52,72.8095 125.5,77.5C 127.517,78.5303 129.517,79.5303 131.5,80.5C 134.132,79.5601 136.798,79.3934 139.5,80C 136.714,80.4001 134.048,81.2334 131.5,82.5C 133.854,84.2461 134.854,86.5794 134.5,89.5C 137.81,89.539 140.476,88.2057 142.5,85.5C 143.833,87.5 143.833,89.5 142.5,91.5C 139.822,93.1844 137.488,95.1844 135.5,97.5C 131.446,96.8974 127.446,96.0641 123.5,95C 122.416,92.1751 121.249,92.0085 120,94.5C 120.339,89.3829 119.505,84.3829 117.5,79.5C 117.612,74.407 118.445,74.407 120,79.5C 120.333,76.5 120.667,73.5 121,70.5C 121.383,69.944 121.883,69.6107 122.5,69.5C 122.334,73.5138 122.501,77.5138 123,81.5C 125.678,86.1881 128.844,90.5215 132.5,94.5C 133.583,93.635 133.749,92.635 133,91.5C 124.291,83.7579 122.124,74.4246 126.5,63.5C 126.5,62.5 126.5,61.5 126.5,60.5C 127.634,58.0336 127.801,55.367 127,52.5C 125.358,47.5977 124.191,42.5977 123.5,37.5C 123.5,35.1667 123.5,32.8333 123.5,30.5C 124.5,30.5 125.5,30.5 126.5,30.5C 128.379,31.3414 130.379,31.6747 132.5,31.5C 134.315,30.3702 136.315,29.7036 138.5,29.5C 138.274,35.7 138.94,41.7 140.5,47.5C 141.5,47.5 142.5,47.5 143.5,47.5C 143.343,48.8734 143.51,50.2068 144,51.5C 145.818,54.4619 147.651,57.4619 149.5,60.5C 148.209,61.5272 148.209,62.5272 149.5,63.5 Z"/></g>
<g><path style="opacity:1" fill="#f5cfae" d="M 53.5,15.5 C 52.1516,16.6006 50.6516,17.6006 49,18.5C 46.4503,23.3993 47.7837,26.7327 53,28.5C 57.4022,26.4622 57.5688,24.1289 53.5,21.5C 50.8694,23.0046 51.2027,23.6713 54.5,23.5C 54.5,24.5 54.5,25.5 54.5,26.5C 50.5134,26.3482 49.0134,24.3482 50,20.5C 55.0687,17.1639 58.5687,18.4972 60.5,24.5C 61.4339,22.9052 61.4339,21.2385 60.5,19.5C 63.3943,20.8823 65.8943,22.8823 68,25.5C 71.2657,30.3753 74.7657,35.042 78.5,39.5C 78.345,43.1493 76.6783,45.816 73.5,47.5C 73.6236,48.1067 73.9569,48.44 74.5,48.5C 78.4973,50.1305 81.1639,53.1305 82.5,57.5C 82.1373,58.1835 81.8039,58.8501 81.5,59.5C 72.3705,51.5401 63.3705,43.3734 54.5,35C 50.0843,32.0416 45.5843,29.2083 41,26.5C 38.003,23.5635 37.8363,20.5635 40.5,17.5C 41.1667,17.5 41.5,17.1667 41.5,16.5C 45.4559,14.3909 49.4559,14.0576 53.5,15.5 Z"/></g>
<g><path style="opacity:1" fill="#5b4537" d="M 78.5,39.5 C 80.1765,40.1834 80.8432,41.5168 80.5,43.5C 78.8171,45.5136 76.8171,47.1802 74.5,48.5C 73.9569,48.44 73.6236,48.1067 73.5,47.5C 76.6783,45.816 78.345,43.1493 78.5,39.5 Z"/></g>
<g><path style="opacity:1" fill="#fbd4b6" d="M 80.5,43.5 C 84.5895,46.0832 88.2562,49.2499 91.5,53C 96.0006,55.4159 100.334,58.0825 104.5,61C 111.171,62.3617 117.837,62.5283 124.5,61.5C 124.5,62.5 124.5,63.5 124.5,64.5C 123.833,66.1667 123.167,67.8333 122.5,69.5C 121.883,69.6107 121.383,69.944 121,70.5C 120.667,73.5 120.333,76.5 120,79.5C 118.445,74.407 117.612,74.407 117.5,79.5C 116.658,75.5431 115.491,71.5431 114,67.5C 113.712,74.3419 112.879,81.0086 111.5,87.5C 112.833,87.5 114.167,87.5 115.5,87.5C 115.5,90.1667 115.5,92.8333 115.5,95.5C 114.167,95.5 112.833,95.5 111.5,95.5C 111.5,97.5 111.5,99.5 111.5,101.5C 112.833,101.5 114.167,101.5 115.5,101.5C 115.5,102.833 115.5,104.167 115.5,105.5C 118.012,105.577 120.012,104.577 121.5,102.5C 126.787,101.213 131.954,101.546 137,103.5C 137.52,105.289 137.187,106.956 136,108.5C 133.04,109.286 130.206,110.452 127.5,112C 126.545,113.717 125.545,115.384 124.5,117C 125.167,117.333 125.833,117.667 126.5,118C 118.969,119.599 111.469,121.099 104,122.5C 102.493,121.465 100.993,121.632 99.5,123C 99.8333,123.333 100.167,123.667 100.5,124C 98.7406,124.98 97.0739,125.647 95.5,126C 96.2524,126.671 96.5858,127.504 96.5,128.5C 96.5,129.167 96.1667,129.5 95.5,129.5C 93.7745,127.772 92.4411,125.772 91.5,123.5C 91.5,122.833 91.5,122.167 91.5,121.5C 92.5025,119.989 93.1692,118.322 93.5,116.5C 91.7078,115.691 89.7078,115.191 87.5,115C 89.1066,113.951 89.7733,112.451 89.5,110.5C 86.1667,110.5 82.8333,110.5 79.5,110.5C 79.552,108.097 79.2186,105.764 78.5,103.5C 81.0336,103.741 82.7002,102.741 83.5,100.5C 84.9418,99.1805 85.6085,97.5138 85.5,95.5C 81.8835,95.1007 78.5502,94.1007 75.5,92.5C 77.604,92.7989 79.604,92.4656 81.5,91.5C 81.3333,91.1667 81.1667,90.8333 81,90.5C 78.0685,89.6272 75.2351,88.4605 72.5,87C 57.1366,83.1216 41.8033,79.6216 26.5,76.5C 30.226,76.8226 33.8927,76.4892 37.5,75.5C 38.106,73.36 37.7726,71.1934 36.5,69C 37.1667,68.8333 37.8333,68.6667 38.5,68.5C 43.2397,70.7243 48.2397,72.2243 53.5,73C 54.9891,75.7134 54.6557,78.2134 52.5,80.5C 52.9569,81.2975 53.6236,81.6309 54.5,81.5C 54.7352,82.0967 55.2352,82.4301 56,82.5C 59.1186,79.9645 60.2853,76.6312 59.5,72.5C 68.7624,74.8155 78.0957,76.8155 87.5,78.5C 87.5,77.5 87.5,76.5 87.5,75.5C 88.9778,75.762 90.3112,75.4287 91.5,74.5C 88.904,68.9647 85.5707,63.9647 81.5,59.5C 81.8039,58.8501 82.1373,58.1835 82.5,57.5C 81.1639,53.1305 78.4973,50.1305 74.5,48.5C 76.8171,47.1802 78.8171,45.5136 80.5,43.5 Z"/></g>
<g><path style="opacity:1" fill="#fdd5b4" d="M 149.5,63.5 C 150.496,63.4142 151.329,63.7476 152,64.5C 152.333,66.8333 152.667,69.1667 153,71.5C 153.414,71.9574 153.914,72.2907 154.5,72.5C 155.013,76.5213 155.346,80.5213 155.5,84.5C 157.173,86.0863 159.173,86.7529 161.5,86.5C 160.376,91.1866 160.376,95.8533 161.5,100.5C 161.06,103.38 160.06,106.046 158.5,108.5C 157.5,109.5 156.5,110.5 155.5,111.5C 150.525,114.163 145.525,116.829 140.5,119.5C 129.858,120.893 119.191,122.06 108.5,123C 104.354,124.574 100.354,126.407 96.5,128.5C 96.5858,127.504 96.2524,126.671 95.5,126C 97.0739,125.647 98.7406,124.98 100.5,124C 100.167,123.667 99.8333,123.333 99.5,123C 100.993,121.632 102.493,121.465 104,122.5C 111.469,121.099 118.969,119.599 126.5,118C 125.833,117.667 125.167,117.333 124.5,117C 125.545,115.384 126.545,113.717 127.5,112C 130.206,110.452 133.04,109.286 136,108.5C 137.187,106.956 137.52,105.289 137,103.5C 131.954,101.546 126.787,101.213 121.5,102.5C 120.012,104.577 118.012,105.577 115.5,105.5C 115.5,104.167 115.5,102.833 115.5,101.5C 114.167,101.5 112.833,101.5 111.5,101.5C 111.5,99.5 111.5,97.5 111.5,95.5C 112.833,95.5 114.167,95.5 115.5,95.5C 115.5,92.8333 115.5,90.1667 115.5,87.5C 114.167,87.5 112.833,87.5 111.5,87.5C 112.879,81.0086 113.712,74.3419 114,67.5C 115.491,71.5431 116.658,75.5431 117.5,79.5C 119.505,84.3829 120.339,89.3829 120,94.5C 121.249,92.0085 122.416,92.1751 123.5,95C 127.446,96.0641 131.446,96.8974 135.5,97.5C 137.488,95.1844 139.822,93.1844 142.5,91.5C 143.833,89.5 143.833,87.5 142.5,85.5C 140.476,88.2057 137.81,89.539 134.5,89.5C 134.854,86.5794 133.854,84.2461 131.5,82.5C 134.048,81.2334 136.714,80.4001 139.5,80C 136.798,79.3934 134.132,79.5601 131.5,80.5C 129.517,79.5303 127.517,78.5303 125.5,77.5C 126.52,72.8095 127.52,68.1429 128.5,63.5C 129.833,63.5 131.167,63.5 132.5,63.5C 132.288,67.0147 132.288,70.348 132.5,73.5C 133.688,72.16 135.188,71.4934 137,71.5C 139.059,72.6182 141.226,73.2849 143.5,73.5C 143.579,74.9305 143.246,76.2638 142.5,77.5C 142.833,78.5 143.5,79.1667 144.5,79.5C 145.19,73.8294 146.857,68.4961 149.5,63.5 Z"/></g>
<g><path style="opacity:1" fill="#f0cfb4" d="M 30.5,63.5 C 25.6693,66.5052 25.3359,70.0052 29.5,74C 31.5787,74.8077 33.5787,74.641 35.5,73.5C 33.9223,72.7022 32.2556,72.2022 30.5,72C 34.2634,70.5916 35.2634,68.0916 33.5,64.5C 41.3534,67.2277 49.3534,69.561 57.5,71.5C 58.1422,75.4749 57.1422,78.8082 54.5,81.5C 53.6236,81.6309 52.9569,81.2975 52.5,80.5C 54.6557,78.2134 54.9891,75.7134 53.5,73C 48.2397,72.2243 43.2397,70.7243 38.5,68.5C 37.8333,68.6667 37.1667,68.8333 36.5,69C 37.7726,71.1934 38.106,73.36 37.5,75.5C 33.8927,76.4892 30.226,76.8226 26.5,76.5C 25.448,76.3505 24.448,76.5172 23.5,77C 22.1667,77.6667 22.1667,78.3333 23.5,79C 29.832,81.2637 36.1654,83.097 42.5,84.5C 35.3893,84.7126 28.7226,83.2126 22.5,80C 16.732,75.7197 15.3986,70.553 18.5,64.5C 22.3209,60.9948 26.3209,60.6614 30.5,63.5 Z"/></g>
<g><path style="opacity:1" fill="#534336" d="M 30.5,63.5 C 31.791,63.2627 32.791,63.596 33.5,64.5C 35.2634,68.0916 34.2634,70.5916 30.5,72C 32.2556,72.2022 33.9223,72.7022 35.5,73.5C 33.5787,74.641 31.5787,74.8077 29.5,74C 25.3359,70.0052 25.6693,66.5052 30.5,63.5 Z"/></g>
<g><path style="opacity:1" fill="#e3cbb7" d="M 29.5,66.5 C 33.2233,67.5241 33.0567,68.8574 29,70.5C 28.4209,69.0715 28.5876,67.7382 29.5,66.5 Z"/></g>
<g><path style="opacity:1" fill="#5f4835" d="M 57.5,71.5 C 58.1667,71.8333 58.8333,72.1667 59.5,72.5C 60.2853,76.6312 59.1186,79.9645 56,82.5C 55.2352,82.4301 54.7352,82.0967 54.5,81.5C 57.1422,78.8082 58.1422,75.4749 57.5,71.5 Z"/></g>
<g><path style="opacity:1" fill="#644c3b" d="M 126.5,63.5 C 122.124,74.4246 124.291,83.7579 133,91.5C 133.749,92.635 133.583,93.635 132.5,94.5C 128.844,90.5215 125.678,86.1881 123,81.5C 122.501,77.5138 122.334,73.5138 122.5,69.5C 123.167,67.8333 123.833,66.1667 124.5,64.5C 125.167,64.1667 125.833,63.8333 126.5,63.5 Z"/></g>
<g><path style="opacity:1" fill="#554130" d="M 79.5,78.5 C 82.129,81.7259 81.629,84.7259 78,87.5C 78.9268,84.6823 79.4268,81.6823 79.5,78.5 Z"/></g>
<g><path style="opacity:1" fill="#edd0ba" d="M 126.5,16.5 C 134.804,15.8236 139.471,19.4903 140.5,27.5C 140.5,28.1667 140.5,28.8333 140.5,29.5C 140.494,34.6372 141.327,39.6372 143,44.5C 146.078,50.9913 149.412,57.3246 153,63.5C 155.81,69.9285 157.81,76.5952 159,83.5C 159.333,82.5 159.667,81.5 160,80.5C 162.347,83.1943 164.18,86.1943 165.5,89.5C 164.833,90.1667 164.167,90.8333 163.5,91.5C 162.833,94.5 162.167,97.5 161.5,100.5C 160.376,95.8533 160.376,91.1866 161.5,86.5C 159.173,86.7529 157.173,86.0863 155.5,84.5C 155.346,80.5213 155.013,76.5213 154.5,72.5C 153.914,72.2907 153.414,71.9574 153,71.5C 152.667,69.1667 152.333,66.8333 152,64.5C 151.329,63.7476 150.496,63.4142 149.5,63.5C 148.209,62.5272 148.209,61.5272 149.5,60.5C 147.651,57.4619 145.818,54.4619 144,51.5C 143.51,50.2068 143.343,48.8734 143.5,47.5C 142.5,47.5 141.5,47.5 140.5,47.5C 138.94,41.7 138.274,35.7 138.5,29.5C 136.315,29.7036 134.315,30.3702 132.5,31.5C 134.016,29.8143 135.35,27.981 136.5,26C 135.202,22.7948 132.868,21.7948 129.5,23C 128.594,24.6995 128.261,26.5328 128.5,28.5C 127.011,26.8839 126.011,24.8839 125.5,22.5C 124.102,25.4353 124.435,28.1019 126.5,30.5C 125.5,30.5 124.5,30.5 123.5,30.5C 123.5,32.8333 123.5,35.1667 123.5,37.5C 122.353,33.3537 122.186,29.0204 123,24.5C 123.003,21.251 124.17,18.5844 126.5,16.5 Z"/></g>
<g><path style="opacity:1" fill="#594537" d="M 128.5,28.5 C 128.261,26.5328 128.594,24.6995 129.5,23C 132.868,21.7948 135.202,22.7948 136.5,26C 135.35,27.981 134.016,29.8143 132.5,31.5C 130.379,31.6747 128.379,31.3414 126.5,30.5C 124.435,28.1019 124.102,25.4353 125.5,22.5C 126.011,24.8839 127.011,26.8839 128.5,28.5 Z"/></g>
<g><path style="opacity:1" fill="#ddc7b2" d="M 128.5,28.5 C 130.176,27.8166 130.843,26.4832 130.5,24.5C 131.5,24.5 132.5,24.5 133.5,24.5C 133.995,29.0274 132.328,30.3607 128.5,28.5 Z"/></g>
<g><path style="opacity:1" fill="#f4be93" d="M 26.5,76.5 C 41.8033,79.6216 57.1366,83.1216 72.5,87C 75.2351,88.4605 78.0685,89.6272 81,90.5C 81.1667,90.8333 81.3333,91.1667 81.5,91.5C 79.604,92.4656 77.604,92.7989 75.5,92.5C 64.2826,90.6121 53.2826,87.9454 42.5,84.5C 36.1654,83.097 29.832,81.2637 23.5,79C 22.1667,78.3333 22.1667,77.6667 23.5,77C 24.448,76.5172 25.448,76.3505 26.5,76.5 Z"/></g>
<g><path style="opacity:1" fill="#5f442e" d="M 163.5,91.5 C 165.03,98.7655 163.53,105.432 159,111.5C 158.517,110.552 158.351,109.552 158.5,108.5C 160.06,106.046 161.06,103.38 161.5,100.5C 162.167,97.5 162.833,94.5 163.5,91.5 Z"/></g>
<g><path style="opacity:1" fill="#563e2f" d="M 75.5,104.5 C 76.209,103.596 77.209,103.263 78.5,103.5C 79.2186,105.764 79.552,108.097 79.5,110.5C 78.8826,110.611 78.3826,110.944 78,111.5C 77.8442,108.809 77.0109,106.476 75.5,104.5 Z"/></g>
<g><path style="opacity:1" fill="#dbaf8d" d="M 165.5,89.5 C 165.833,92.8333 166.167,96.1667 166.5,99.5C 167.051,105.045 165.385,109.711 161.5,113.5C 159.856,113.286 158.356,113.62 157,114.5C 155.961,113.756 155.461,112.756 155.5,111.5C 156.5,110.5 157.5,109.5 158.5,108.5C 158.351,109.552 158.517,110.552 159,111.5C 163.53,105.432 165.03,98.7655 163.5,91.5C 164.167,90.8333 164.833,90.1667 165.5,89.5 Z"/></g>
<g><path style="opacity:1" fill="#e9cab0" d="M 58.5,108.5 C 60.0481,108.821 60.7148,109.821 60.5,111.5C 53.4321,112.313 46.4321,113.647 39.5,115.5C 39.3522,111.509 37.6855,110.676 34.5,113C 35.5,113.333 36.5,113.667 37.5,114C 36.3474,115.883 34.6807,116.716 32.5,116.5C 32.4003,113.892 33.0669,111.558 34.5,109.5C 42.5417,109.736 50.5417,109.403 58.5,108.5 Z"/></g>
<g><path style="opacity:1" fill="#3e8a6b" d="M 168.5,79.5 C 175.924,81.7625 180.424,86.7625 182,94.5C 182.667,100.167 182.667,105.833 182,111.5C 180.59,116.559 179.09,121.559 177.5,126.5C 176.833,126.5 176.5,126.833 176.5,127.5C 175.833,127.5 175.5,127.833 175.5,128.5C 174.969,130.624 173.635,132.124 171.5,133C 162.696,135.88 154.029,135.38 145.5,131.5C 144.828,130.733 143.995,130.066 143,129.5C 142.333,128.833 142.333,128.167 143,127.5C 159.254,123.143 168.421,112.643 170.5,96C 170.269,90.8444 169.269,85.8444 167.5,81C 167.57,80.2352 167.903,79.7352 168.5,79.5 Z"/></g>
<g><path style="opacity:1" fill="#543a28" d="M 62.5,107.5 C 62.5,108.167 62.5,108.833 62.5,109.5C 62.762,110.978 62.4287,112.311 61.5,113.5C 60.7025,113.043 60.3691,112.376 60.5,111.5C 60.7148,109.821 60.0481,108.821 58.5,108.5C 58.5,107.5 58.5,106.5 58.5,105.5C 60.1993,105.527 61.5326,106.194 62.5,107.5 Z"/></g>
<g><path style="opacity:1" fill="#4a4e40" d="M 166.5,78.5 C 167.492,78.3284 168.158,78.6618 168.5,79.5C 167.903,79.7352 167.57,80.2352 167.5,81C 169.269,85.8444 170.269,90.8444 170.5,96C 168.421,112.643 159.254,123.143 143,127.5C 142.333,128.167 142.333,128.833 143,129.5C 143.995,130.066 144.828,130.733 145.5,131.5C 143.901,131.232 142.568,131.566 141.5,132.5C 140.833,132.5 140.5,132.167 140.5,131.5C 140.389,130.883 140.056,130.383 139.5,130C 135.514,129.501 131.514,129.334 127.5,129.5C 131.786,128.257 136.119,127.257 140.5,126.5C 149.27,124.922 156.27,120.589 161.5,113.5C 165.385,109.711 167.051,105.045 166.5,99.5C 167.468,97.3926 167.802,95.0593 167.5,92.5C 168.499,88.431 167.833,84.431 165.5,80.5C 165.863,79.8165 166.196,79.1499 166.5,78.5 Z"/></g>
<g><path style="opacity:1" fill="#f9c191" d="M 39.5,115.5 C 46.4321,113.647 53.4321,112.313 60.5,111.5C 60.3691,112.376 60.7025,113.043 61.5,113.5C 62.4287,112.311 62.762,110.978 62.5,109.5C 65.8215,110.881 68.9882,110.548 72,108.5C 72.6924,109.025 73.1924,109.692 73.5,110.5C 70.1667,111.167 66.8333,111.833 63.5,112.5C 69.8072,113.664 76.1405,113.831 82.5,113C 84.0875,110.957 85.4209,111.124 86.5,113.5C 78.5807,114.995 70.5807,115.829 62.5,116C 53.228,117.748 44.0613,119.582 35,121.5C 33.1667,121.167 31.3333,120.833 29.5,120.5C 32.1071,119.682 34.7737,119.182 37.5,119C 38.8228,118.184 39.4894,117.017 39.5,115.5 Z"/></g>
<g><path style="opacity:1" fill="#353535" d="M 141.5,13.5 C 142.966,14.347 143.8,15.6803 144,17.5C 144.441,24.5843 145.441,31.5843 147,38.5C 152.656,48.144 157.489,58.144 161.5,68.5C 184.773,70.6811 194.273,83.3478 190,106.5C 188.094,117.815 182.927,127.315 174.5,135C 163.048,140.095 152.048,139.262 141.5,132.5C 142.568,131.566 143.901,131.232 145.5,131.5C 154.029,135.38 162.696,135.88 171.5,133C 173.635,132.124 174.969,130.624 175.5,128.5C 176.167,128.5 176.5,128.167 176.5,127.5C 177.167,127.5 177.5,127.167 177.5,126.5C 187.196,112.536 189.029,97.5365 183,81.5C 177.777,75.4819 171.277,73.1486 163.5,74.5C 164.521,75.9014 165.521,77.2347 166.5,78.5C 166.196,79.1499 165.863,79.8165 165.5,80.5C 167.833,84.431 168.499,88.431 167.5,92.5C 167.019,87.3905 165.353,82.7238 162.5,78.5C 161.833,78.8333 161.167,79.1667 160.5,79.5C 158.669,73.5114 156.836,67.5114 155,61.5C 151,54.1667 147,46.8333 143,39.5C 142.174,36.2072 141.674,32.8738 141.5,29.5C 141.351,28.448 141.517,27.448 142,26.5C 142.333,27.8333 142.667,29.1667 143,30.5C 143.439,24.9825 142.939,19.3158 141.5,13.5 Z"/></g>
<g><path style="opacity:1" fill="#5e4a3b" d="M 34.5,109.5 C 33.0669,111.558 32.4003,113.892 32.5,116.5C 34.6807,116.716 36.3474,115.883 37.5,114C 36.5,113.667 35.5,113.333 34.5,113C 37.6855,110.676 39.3522,111.509 39.5,115.5C 37.4414,118.149 34.7747,118.982 31.5,118C 31.1408,115.37 30.1408,113.203 28.5,111.5C 30.3024,110.542 32.3024,109.875 34.5,109.5 Z"/></g>
<g><path style="opacity:1" fill="#5f4530" d="M 127.5,105.5 C 129.527,105.338 131.527,105.505 133.5,106C 126.1,107.239 121.434,111.406 119.5,118.5C 118.448,118.649 117.448,118.483 116.5,118C 118.685,112.418 122.352,108.251 127.5,105.5 Z"/></g>
<g><path style="opacity:1" fill="#edc29e" d="M 75.5,104.5 C 77.0109,106.476 77.8442,108.809 78,111.5C 78.3826,110.944 78.8826,110.611 79.5,110.5C 82.8333,110.5 86.1667,110.5 89.5,110.5C 89.7733,112.451 89.1066,113.951 87.5,115C 89.7078,115.191 91.7078,115.691 93.5,116.5C 82.4698,116.335 71.4698,116.835 60.5,118C 50.9358,120.279 41.2691,122.113 31.5,123.5C 23.827,124.494 20.4937,121.16 21.5,113.5C 23.7014,112.434 26.0347,111.767 28.5,111.5C 30.1408,113.203 31.1408,115.37 31.5,118C 34.7747,118.982 37.4414,118.149 39.5,115.5C 39.4894,117.017 38.8228,118.184 37.5,119C 34.7737,119.182 32.1071,119.682 29.5,120.5C 31.3333,120.833 33.1667,121.167 35,121.5C 44.0613,119.582 53.228,117.748 62.5,116C 70.5807,115.829 78.5807,114.995 86.5,113.5C 85.4209,111.124 84.0875,110.957 82.5,113C 76.1405,113.831 69.8072,113.664 63.5,112.5C 66.8333,111.833 70.1667,111.167 73.5,110.5C 73.1924,109.692 72.6924,109.025 72,108.5C 68.9882,110.548 65.8215,110.881 62.5,109.5C 62.5,108.833 62.5,108.167 62.5,107.5C 66.7862,106.293 71.1195,105.293 75.5,104.5 Z"/></g>
<g><path style="opacity:1" fill="#423935" d="M 17.5,63.5 C 17.5,64.1667 17.8333,64.5 18.5,64.5C 15.3986,70.553 16.732,75.7197 22.5,80C 28.7226,83.2126 35.3893,84.7126 42.5,84.5C 53.2826,87.9454 64.2826,90.6121 75.5,92.5C 78.5502,94.1007 81.8835,95.1007 85.5,95.5C 85.6085,97.5138 84.9418,99.1805 83.5,100.5C 82.0695,100.579 80.7362,100.246 79.5,99.5C 64.2634,104.678 48.5968,106.844 32.5,106C 29.7558,106.803 27.0891,107.803 24.5,109C 22.8588,110.129 21.8588,111.629 21.5,113.5C 20.4937,121.16 23.827,124.494 31.5,123.5C 41.2691,122.113 50.9358,120.279 60.5,118C 71.4698,116.835 82.4698,116.335 93.5,116.5C 93.1692,118.322 92.5025,119.989 91.5,121.5C 79.2633,128.871 67.4299,136.871 56,145.5C 54.9055,147.078 54.0722,148.745 53.5,150.5C 52.2783,158.424 55.6116,160.924 63.5,158C 76.7285,149.226 90.0619,140.726 103.5,132.5C 115.506,128.7 127.839,126.7 140.5,126.5C 136.119,127.257 131.786,128.257 127.5,129.5C 115.655,130.117 104.989,133.784 95.5,140.5C 85.7395,147.558 75.7395,154.391 65.5,161C 56.8171,164.904 51.1504,162.404 48.5,153.5C 49.1749,150.309 50.3415,147.309 52,144.5C 57.2582,140.453 62.4248,136.287 67.5,132C 73.8337,128.835 79.8337,125.169 85.5,121C 78.5,120.333 71.5,120.333 64.5,121C 53.0958,122.859 41.7625,125.025 30.5,127.5C 22.1073,127.544 17.774,123.377 17.5,115C 17.6572,112.019 18.6572,109.352 20.5,107C 24.8139,104.34 29.4805,102.673 34.5,102C 41.1667,102 47.8333,102 54.5,102C 61.436,100.079 68.436,98.4127 75.5,97C 58.0693,91.5588 40.4026,87.2255 22.5,84C 13.4836,78.4482 11.1503,70.9482 15.5,61.5C 18.8273,58.972 19.1606,59.472 16.5,63C 16.7284,63.3988 17.0618,63.5654 17.5,63.5 Z"/></g>
<g><path style="opacity:1" fill="#f8bf90" d="M 155.5,111.5 C 155.461,112.756 155.961,113.756 157,114.5C 158.356,113.62 159.856,113.286 161.5,113.5C 156.27,120.589 149.27,124.922 140.5,126.5C 127.839,126.7 115.506,128.7 103.5,132.5C 99.8996,133.62 96.2329,134.787 92.5,136C 90.672,138.942 88.0053,140.109 84.5,139.5C 84.67,138.178 84.3366,137.011 83.5,136C 85.8813,134.234 88.548,133.068 91.5,132.5C 92.3857,131.675 92.719,130.675 92.5,129.5C 93.6522,130.625 94.6522,130.625 95.5,129.5C 96.1667,129.5 96.5,129.167 96.5,128.5C 100.354,126.407 104.354,124.574 108.5,123C 119.191,122.06 129.858,120.893 140.5,119.5C 145.525,116.829 150.525,114.163 155.5,111.5 Z"/></g>
<g><path style="opacity:1" fill="#574031" d="M 91.5,123.5 C 92.4411,125.772 93.7745,127.772 95.5,129.5C 94.6522,130.625 93.6522,130.625 92.5,129.5C 91.5592,127.95 90.8925,126.284 90.5,124.5C 90.5,123.833 90.8333,123.5 91.5,123.5 Z"/></g>
<g><path style="opacity:0.506" fill="#25272e" d="M 127.5,129.5 C 131.514,129.334 135.514,129.501 139.5,130C 140.056,130.383 140.389,130.883 140.5,131.5C 124.571,129.752 109.571,132.752 95.5,140.5C 104.989,133.784 115.655,130.117 127.5,129.5 Z"/></g>
<g><path style="opacity:1" fill="#61432d" d="M 75.5,135.5 C 76.4577,136.962 77.6244,138.295 79,139.5C 79.7805,140.944 79.6139,142.277 78.5,143.5C 77.8281,142.051 77.1614,140.718 76.5,139.5C 75.0937,139.027 74.427,138.027 74.5,136.5C 74.5,135.833 74.8333,135.5 75.5,135.5 Z"/></g>
<g><path style="opacity:1" fill="#f5d3b2" d="M 74.5,136.5 C 74.427,138.027 75.0937,139.027 76.5,139.5C 75.4263,142.068 73.4263,143.735 70.5,144.5C 70.0615,147.295 69.0615,149.628 67.5,151.5C 68.6664,149.834 68.6664,148.167 67.5,146.5C 65.6639,145.972 63.9972,145.306 62.5,144.5C 65.7073,140.623 69.7073,137.956 74.5,136.5 Z"/></g>
<g><path style="opacity:1" fill="#674f3e" d="M 62.5,144.5 C 63.9972,145.306 65.6639,145.972 67.5,146.5C 68.6664,148.167 68.6664,149.834 67.5,151.5C 64.5327,153.266 62.5327,152.599 61.5,149.5C 60.2089,150.542 60.2089,151.708 61.5,153C 61,153.5 60.5,154 60,154.5C 58.9808,152.498 58.1475,150.498 57.5,148.5C 58.5794,146.457 60.246,145.124 62.5,144.5 Z"/></g>
<g><path style="opacity:1" fill="#d5c0b3" d="M 61.5,149.5 C 62.7514,147.439 64.4181,147.106 66.5,148.5C 65.286,150.754 63.6194,151.087 61.5,149.5 Z"/></g>
<g><path style="opacity:1" fill="#f0c099" d="M 90.5,124.5 C 90.8925,126.284 91.5592,127.95 92.5,129.5C 92.719,130.675 92.3857,131.675 91.5,132.5C 88.548,133.068 85.8813,134.234 83.5,136C 84.3366,137.011 84.67,138.178 84.5,139.5C 88.0053,140.109 90.672,138.942 92.5,136C 96.2329,134.787 99.8996,133.62 103.5,132.5C 90.0619,140.726 76.7285,149.226 63.5,158C 55.6116,160.924 52.2783,158.424 53.5,150.5C 54.6049,149.4 55.9382,148.733 57.5,148.5C 58.1475,150.498 58.9808,152.498 60,154.5C 60.5,154 61,153.5 61.5,153C 60.2089,151.708 60.2089,150.542 61.5,149.5C 62.5327,152.599 64.5327,153.266 67.5,151.5C 69.0615,149.628 70.0615,147.295 70.5,144.5C 73.4263,143.735 75.4263,142.068 76.5,139.5C 77.1614,140.718 77.8281,142.051 78.5,143.5C 79.6139,142.277 79.7805,140.944 79,139.5C 77.6244,138.295 76.4577,136.962 75.5,135.5C 80.7572,132.251 85.7572,128.585 90.5,124.5 Z"/></g>
</svg>
