<?xml version="1.0" encoding="UTF-8"?>
<!DOCTYPE svg PUBLIC "-//W3C//DTD SVG 1.1//EN" "http://www.w3.org/Graphics/SVG/1.1/DTD/svg11.dtd">
<svg xmlns="http://www.w3.org/2000/svg" version="1.1" width="230px" height="176px" style="shape-rendering:geometricPrecision; text-rendering:geometricPrecision; image-rendering:optimizeQuality; fill-rule:evenodd; clip-rule:evenodd" xmlns:xlink="http://www.w3.org/1999/xlink">
<g><path style="opacity:1" fill="#3b3634" d="M 208.5,82.5 C 210.797,79.622 212.13,76.2886 212.5,72.5C 212.893,69.4867 212.226,66.8201 210.5,64.5C 209.183,58.6499 205.183,56.4832 198.5,58C 180.151,64.6715 161.484,70.3382 142.5,75C 141.663,76.0113 141.33,77.1779 141.5,78.5C 139.978,77.5688 138.645,76.4021 137.5,75C 139.842,69.1654 143.175,63.9987 147.5,59.5C 156.63,51.5401 165.63,43.3734 174.5,35C 178.916,32.0416 183.416,29.2083 188,26.5C 191.014,23.5199 191.181,20.5199 188.5,17.5C 188.5,16.8333 188.167,16.5 187.5,16.5C 185.671,12.2343 182.337,9.90096 177.5,9.5C 174.309,10.1749 171.309,11.3415 168.5,13C 160.036,20.4406 152.87,28.9406 147,38.5C 138.875,46.1273 130.042,52.794 120.5,58.5C 115.237,58.0859 109.904,58.0859 104.5,58.5C 104.5,59.5 104.5,60.5 104.5,61.5C 104.869,63.9935 104.203,64.6602 102.5,63.5C 101.489,59.8878 101.322,56.2211 102,52.5C 106.464,41.7908 107.464,30.7908 105,19.5C 104.722,18.5842 104.222,17.9175 103.5,17.5C 103.5,16.8333 103.167,16.5 102.5,16.5C 102.5,16.1667 102.5,15.8333 102.5,15.5C 102.426,13.5891 101.426,12.4224 99.5,12C 96.4124,11.1533 93.5791,11.6533 91,13.5C 90.3123,12.6683 90.479,12.0016 91.5,11.5C 97.4741,9.36643 102.474,10.6998 106.5,15.5C 108.011,17.4758 108.844,19.8091 109,22.5C 110.23,33.4443 109.063,44.1109 105.5,54.5C 112.457,54.7693 119.123,53.6026 125.5,51C 138.046,42.7875 148.213,32.2875 156,19.5C 160.365,13.7971 165.865,9.63043 172.5,7C 182.129,5.06428 188.962,8.56428 193,17.5C 193.912,21.4525 193.245,25.1191 191,28.5C 184.064,32.3834 177.564,36.8834 171.5,42C 163.303,50.5309 154.803,58.6975 146,66.5C 145.018,67.7589 144.685,69.0922 145,70.5C 163.073,65.8554 180.906,60.3554 198.5,54C 211.956,54.1422 217.456,60.9755 215,74.5C 213.533,77.7874 211.366,80.4541 208.5,82.5 Z M 187.5,16.5 C 183.88,14.4188 180.214,14.0855 176.5,15.5C 173.246,15.7936 170.579,17.127 168.5,19.5C 165.606,20.8823 163.106,22.8823 161,25.5C 157.631,30.929 153.798,35.929 149.5,40.5C 148.596,41.209 148.263,42.209 148.5,43.5C 141.416,50.5466 133.416,56.38 124.5,61C 118.865,61.904 113.198,62.404 107.5,62.5C 106.791,61.596 105.791,61.2627 104.5,61.5C 104.5,60.5 104.5,59.5 104.5,58.5C 109.904,58.0859 115.237,58.0859 120.5,58.5C 130.042,52.794 138.875,46.1273 147,38.5C 152.87,28.9406 160.036,20.4406 168.5,13C 171.309,11.3415 174.309,10.1749 177.5,9.5C 182.337,9.90096 185.671,12.2343 187.5,16.5 Z M 210.5,64.5 C 206.679,60.9948 202.679,60.6614 198.5,63.5C 197.391,63.5569 196.391,63.8902 195.5,64.5C 187.922,67.0252 180.255,69.3585 172.5,71.5C 170.597,71.7959 168.93,72.4625 167.5,73.5C 158.835,75.1662 150.168,76.8329 141.5,78.5C 141.33,77.1779 141.663,76.0113 142.5,75C 161.484,70.3382 180.151,64.6715 198.5,58C 205.183,56.4832 209.183,58.6499 210.5,64.5 Z"/></g>
<g><path style="opacity:1" fill="#564233" d="M 176.5,15.5 C 183.243,20.1248 183.076,24.4582 176,28.5C 171.598,26.4622 171.431,24.1289 175.5,21.5C 178.131,23.0046 177.797,23.6713 174.5,23.5C 174.5,24.5 174.5,25.5 174.5,26.5C 179.668,25.6615 180.668,23.1615 177.5,19C 172.917,18.0599 169.917,19.8932 168.5,24.5C 167.566,22.9052 167.566,21.2385 168.5,19.5C 170.579,17.127 173.246,15.7936 176.5,15.5 Z"/></g>
<g><path style="opacity:0.945" fill="#e5ccb8" d="M 102.5,16.5 C 103.167,16.5 103.5,16.8333 103.5,17.5C 104.222,17.9175 104.722,18.5842 105,19.5C 107.464,30.7908 106.464,41.7908 102,52.5C 101.322,56.2211 101.489,59.8878 102.5,63.5C 100.467,62.1016 99.4672,60.1016 99.5,57.5C 99.8821,52.3055 101.049,47.3055 103,42.5C 103.498,39.1832 103.665,35.8499 103.5,32.5C 102.209,32.7373 101.209,32.404 100.5,31.5C 104.339,29.5037 105.339,26.5037 103.5,22.5C 102.989,24.8839 101.989,26.8839 100.5,28.5C 100.686,22.296 98.1863,20.9626 93,24.5C 92.4209,25.9285 92.5876,27.2618 93.5,28.5C 92.828,29.2674 91.9947,29.9341 91,30.5C 89.7313,36.1113 88.898,41.7779 88.5,47.5C 87.5,47.5 86.5,47.5 85.5,47.5C 87.3619,41.6617 88.3619,35.6617 88.5,29.5C 88.5,28.5 88.5,27.5 88.5,26.5C 89.7933,18.8258 94.4599,15.4924 102.5,16.5 Z"/></g>
<g><path style="opacity:1" fill="#594538" d="M 100.5,28.5 C 101.989,26.8839 102.989,24.8839 103.5,22.5C 105.339,26.5037 104.339,29.5037 100.5,31.5C 97.5466,31.8504 95.2133,30.8504 93.5,28.5C 92.5876,27.2618 92.4209,25.9285 93,24.5C 98.1863,20.9626 100.686,22.296 100.5,28.5 Z"/></g>
<g><path style="opacity:1" fill="#dcc8b2" d="M 100.5,28.5 C 96.6718,30.3607 95.0051,29.0274 95.5,24.5C 96.5,24.5 97.5,24.5 98.5,24.5C 98.1568,26.4832 98.8235,27.8166 100.5,28.5 Z"/></g>
<g><path style="opacity:1" fill="#5c4431" d="M 149.5,40.5 C 150.792,43.4006 152.792,45.7339 155.5,47.5C 154.998,48.521 154.332,48.6877 153.5,48C 151.638,46.6343 149.972,45.1343 148.5,43.5C 148.263,42.209 148.596,41.209 149.5,40.5 Z"/></g>
<g><path style="opacity:1" fill="#363737" d="M 106.5,15.5 C 102.474,10.6998 97.4741,9.36643 91.5,11.5C 90.479,12.0016 90.3123,12.6683 91,13.5C 93.5791,11.6533 96.4124,11.1533 99.5,12C 101.426,12.4224 102.426,13.5891 102.5,15.5C 97.0051,11.3775 92.5051,12.3775 89,18.5C 88.5026,21.146 88.3359,23.8127 88.5,26.5C 88.5,27.5 88.5,28.5 88.5,29.5C 85.1063,40.6352 80.2729,51.3018 74,61.5C 72.1644,67.5114 70.3311,73.5114 68.5,79.5C 67.3914,78.4104 66.3914,78.4104 65.5,79.5C 63.7609,83.0532 62.4276,86.7199 61.5,90.5C 60.8262,87.1452 61.4929,83.8119 63.5,80.5C 63.0431,79.7025 62.3764,79.3691 61.5,79.5C 61.1667,79.5 60.8333,79.5 60.5,79.5C 62.7559,78.5345 64.4226,76.8678 65.5,74.5C 49.8579,73.8024 41.8579,81.4691 41.5,97.5C 42.0334,108.778 45.7001,118.778 52.5,127.5C 52.5,128.167 52.8333,128.5 53.5,128.5C 56.684,133.426 61.3506,135.759 67.5,135.5C 72.9532,134.517 78.2865,133.017 83.5,131C 84.8228,130.184 85.4894,129.017 85.5,127.5C 86.609,127.557 87.609,127.89 88.5,128.5C 87.1938,129.467 86.5271,130.801 86.5,132.5C 66.2046,144.046 51.3712,139.046 42,117.5C 37.0625,104.611 37.3958,91.944 43,79.5C 49.5802,72.4666 57.7469,68.7999 67.5,68.5C 71.5108,58.144 76.3441,48.144 82,38.5C 83.7174,31.6152 84.7174,24.6152 85,17.5C 89.077,9.27477 95.2437,7.1081 103.5,11C 105.141,12.129 106.141,13.629 106.5,15.5 Z"/></g>
<g><path style="opacity:1" fill="#f3d1b6" d="M 187.5,16.5 C 188.167,16.5 188.5,16.8333 188.5,17.5C 191.181,20.5199 191.014,23.5199 188,26.5C 183.416,29.2083 178.916,32.0416 174.5,35C 165.63,43.3734 156.63,51.5401 147.5,59.5C 148.984,56.2185 151.318,53.5519 154.5,51.5C 154,50.1195 153,49.4528 151.5,49.5C 148.903,51.5921 146.403,53.9254 144,56.5C 143.781,55.062 143.281,53.7287 142.5,52.5C 136.358,55.0034 130.691,58.5034 125.5,63C 119.888,64.1314 114.221,64.6314 108.5,64.5C 108.177,70.69 108.51,76.69 109.5,82.5C 108.824,84.5039 107.491,86.6706 105.5,89C 105.986,91.0266 105.986,93.1933 105.5,95.5C 102.447,95.9107 99.4466,96.5774 96.5,97.5C 92.6199,97.29 90.9532,95.29 91.5,91.5C 87.1822,91.8883 83.1822,92.0549 79.5,92C 77.2625,89.9695 75.7625,87.4695 75,84.5C 70.4605,84.8809 67.6272,87.2142 66.5,91.5C 65.1667,91.5 64.5,90.8333 64.5,89.5C 64.6897,86.1228 66.1897,83.4561 69,81.5C 69.3333,82.1667 69.6667,82.8333 70,83.5C 72.3741,70.1836 77.5408,58.1836 85.5,47.5C 84.2641,54.0638 81.5975,59.8972 77.5,65C 77.0275,68.5287 76.0275,71.862 74.5,75C 76.0009,76.2515 77.6675,77.2515 79.5,78C 78.3128,79.0195 77.3128,80.1861 76.5,81.5C 78.4127,84.6689 80.9127,86.3355 84,86.5C 87.6504,88.0462 91.4838,88.7129 95.5,88.5C 96.4657,85.2436 97.7991,82.2436 99.5,79.5C 100.833,79.5 102.167,79.5 103.5,79.5C 103.331,74.8189 102.998,70.1522 102.5,65.5C 106.502,75.0217 104.669,83.355 97,90.5C 95.759,91.8767 95.5923,93.21 96.5,94.5C 100.156,90.5215 103.322,86.1881 106,81.5C 106.678,76.1427 106.511,70.8093 105.5,65.5C 105.64,63.9704 106.307,62.9704 107.5,62.5C 113.198,62.404 118.865,61.904 124.5,61C 133.416,56.38 141.416,50.5466 148.5,43.5C 149.972,45.1343 151.638,46.6343 153.5,48C 154.332,48.6877 154.998,48.521 155.5,47.5C 152.792,45.7339 150.792,43.4006 149.5,40.5C 153.798,35.929 157.631,30.929 161,25.5C 163.106,22.8823 165.606,20.8823 168.5,19.5C 167.566,21.2385 167.566,22.9052 168.5,24.5C 169.917,19.8932 172.917,18.0599 177.5,19C 180.668,23.1615 179.668,25.6615 174.5,26.5C 174.5,25.5 174.5,24.5 174.5,23.5C 177.797,23.6713 178.131,23.0046 175.5,21.5C 171.431,24.1289 171.598,26.4622 176,28.5C 183.076,24.4582 183.243,20.1248 176.5,15.5C 180.214,14.0855 183.88,14.4188 187.5,16.5 Z"/></g>
<g><path style="opacity:1" fill="#fdd5b6" d="M 93.5,28.5 C 95.2133,30.8504 97.5466,31.8504 100.5,31.5C 101.209,32.404 102.209,32.7373 103.5,32.5C 103.665,35.8499 103.498,39.1832 103,42.5C 101.049,47.3055 99.8821,52.3055 99.5,57.5C 99.4672,60.1016 100.467,62.1016 102.5,63.5C 102.5,64.1667 102.5,64.8333 102.5,65.5C 102.998,70.1522 103.331,74.8189 103.5,79.5C 102.167,79.5 100.833,79.5 99.5,79.5C 97.7991,82.2436 96.4657,85.2436 95.5,88.5C 91.4838,88.7129 87.6504,88.0462 84,86.5C 80.9127,86.3355 78.4127,84.6689 76.5,81.5C 77.3128,80.1861 78.3128,79.0195 79.5,78C 77.6675,77.2515 76.0009,76.2515 74.5,75C 76.0275,71.862 77.0275,68.5287 77.5,65C 81.5975,59.8972 84.2641,54.0638 85.5,47.5C 86.5,47.5 87.5,47.5 88.5,47.5C 88.898,41.7779 89.7313,36.1113 91,30.5C 91.9947,29.9341 92.828,29.2674 93.5,28.5 Z"/></g>
<g><path style="opacity:1" fill="#fbd5b6" d="M 147.5,59.5 C 143.175,63.9987 139.842,69.1654 137.5,75C 138.645,76.4021 139.978,77.5688 141.5,78.5C 150.168,76.8329 158.835,75.1662 167.5,73.5C 168.878,76.5221 170.545,79.5221 172.5,82.5C 169.332,84.1819 165.832,85.1819 162,85.5C 158.429,84.9464 154.929,85.6131 151.5,87.5C 150.36,88.8014 149.027,89.9681 147.5,91C 149.32,91.2004 150.653,92.0337 151.5,93.5C 148.888,94.3705 146.221,95.0372 143.5,95.5C 143.273,97.9328 144.273,99.5994 146.5,100.5C 147.913,101.935 149.58,102.935 151.5,103.5C 150.061,105.588 149.394,107.921 149.5,110.5C 146.477,110.643 143.143,110.643 139.5,110.5C 139.614,112.718 140.28,114.718 141.5,116.5C 139.5,116.5 137.5,116.5 135.5,116.5C 135.831,118.322 136.498,119.989 137.5,121.5C 137.557,122.609 137.89,123.609 138.5,124.5C 136.548,125.785 134.882,127.451 133.5,129.5C 125.613,125.649 117.279,122.983 108.5,121.5C 102.762,119.866 96.7615,119.033 90.5,119C 87.4899,115.103 83.4899,113.103 78.5,113C 81.9324,110.538 85.5991,110.038 89.5,111.5C 90.4943,107.519 91.4943,107.519 92.5,111.5C 90.8225,114.43 91.3225,115.43 94,114.5C 96.4278,116.985 98.5945,116.651 100.5,113.5C 98.4333,111.773 96.7666,109.773 95.5,107.5C 102.63,107.397 107.296,110.731 109.5,117.5C 110.365,118.583 111.365,118.749 112.5,118C 109.753,109.74 104.086,105.574 95.5,105.5C 95.5,104.5 95.5,103.5 95.5,102.5C 100.976,102.13 106.309,101.13 111.5,99.5C 113.139,95.7473 113.806,91.7473 113.5,87.5C 114.833,87.5 116.167,87.5 117.5,87.5C 118.167,84.8333 118.833,82.1667 119.5,79.5C 118.167,79.5 116.833,79.5 115.5,79.5C 115.5,76.8333 115.5,74.1667 115.5,71.5C 114.5,71.5 113.5,71.5 112.5,71.5C 112.88,75.6583 111.88,79.325 109.5,82.5C 108.51,76.69 108.177,70.69 108.5,64.5C 114.221,64.6314 119.888,64.1314 125.5,63C 130.691,58.5034 136.358,55.0034 142.5,52.5C 143.281,53.7287 143.781,55.062 144,56.5C 146.403,53.9254 148.903,51.5921 151.5,49.5C 153,49.4528 154,50.1195 154.5,51.5C 151.318,53.5519 148.984,56.2185 147.5,59.5 Z"/></g>
<g><path style="opacity:1" fill="#594536" d="M 198.5,63.5 C 203.331,66.5052 203.664,70.0052 199.5,74C 197.421,74.8077 195.421,74.641 193.5,73.5C 195.078,72.7022 196.744,72.2022 198.5,72C 194.737,70.5916 193.737,68.0916 195.5,64.5C 196.391,63.8902 197.391,63.5569 198.5,63.5 Z"/></g>
<g><path style="opacity:1" fill="#fdd4b3" d="M 95.5,105.5 C 95.5,106.167 95.5,106.833 95.5,107.5C 96.7666,109.773 98.4333,111.773 100.5,113.5C 98.5945,116.651 96.4278,116.985 94,114.5C 91.3225,115.43 90.8225,114.43 92.5,111.5C 91.4943,107.519 90.4943,107.519 89.5,111.5C 85.5991,110.038 81.9324,110.538 78.5,113C 83.4899,113.103 87.4899,115.103 90.5,119C 96.7615,119.033 102.762,119.866 108.5,121.5C 101.822,121.211 95.1556,120.711 88.5,120C 82.7906,116.483 77.1239,112.983 71.5,109.5C 67.4122,104.229 65.7455,98.2286 66.5,91.5C 67.6272,87.2142 70.4605,84.8809 75,84.5C 75.7625,87.4695 77.2625,89.9695 79.5,92C 83.1822,92.0549 87.1822,91.8883 91.5,91.5C 90.9532,95.29 92.6199,97.29 96.5,97.5C 99.4466,96.5774 102.447,95.9107 105.5,95.5C 105.986,93.1933 105.986,91.0266 105.5,89C 107.491,86.6706 108.824,84.5039 109.5,82.5C 111.88,79.325 112.88,75.6583 112.5,71.5C 113.5,71.5 114.5,71.5 115.5,71.5C 115.5,74.1667 115.5,76.8333 115.5,79.5C 116.833,79.5 118.167,79.5 119.5,79.5C 118.833,82.1667 118.167,84.8333 117.5,87.5C 116.167,87.5 114.833,87.5 113.5,87.5C 113.806,91.7473 113.139,95.7473 111.5,99.5C 106.309,101.13 100.976,102.13 95.5,102.5C 95.5,103.5 95.5,104.5 95.5,105.5 Z"/></g>
<g><path style="opacity:1" fill="#f4d1b4" d="M 210.5,64.5 C 212.226,66.8201 212.893,69.4867 212.5,72.5C 211.31,74.8693 209.643,76.8693 207.5,78.5C 207.349,75.2819 206.516,74.9485 205,77.5C 204.586,77.0426 204.086,76.7093 203.5,76.5C 196.943,78.1245 190.276,79.2912 183.5,80C 180.577,81.8389 177.577,82.3389 174.5,81.5C 171.478,78.7119 170.811,75.3786 172.5,71.5C 180.255,69.3585 187.922,67.0252 195.5,64.5C 193.737,68.0916 194.737,70.5916 198.5,72C 196.744,72.2022 195.078,72.7022 193.5,73.5C 195.421,74.641 197.421,74.8077 199.5,74C 203.664,70.0052 203.331,66.5052 198.5,63.5C 202.679,60.6614 206.679,60.9948 210.5,64.5 Z"/></g>
<g><path style="opacity:1" fill="#decebc" d="M 196.5,66.5 C 199.68,66.1762 200.847,67.5096 200,70.5C 197.929,69.8971 196.762,68.5638 196.5,66.5 Z"/></g>
<g><path style="opacity:1" fill="#614836" d="M 104.5,61.5 C 105.791,61.2627 106.791,61.596 107.5,62.5C 106.307,62.9704 105.64,63.9704 105.5,65.5C 106.511,70.8093 106.678,76.1427 106,81.5C 103.322,86.1881 100.156,90.5215 96.5,94.5C 95.5923,93.21 95.759,91.8767 97,90.5C 104.669,83.355 106.502,75.0217 102.5,65.5C 102.5,64.8333 102.5,64.1667 102.5,63.5C 104.203,64.6602 104.869,63.9935 104.5,61.5 Z"/></g>
<g><path style="opacity:1" fill="#624a36" d="M 172.5,71.5 C 170.811,75.3786 171.478,78.7119 174.5,81.5C 174.158,82.3382 173.492,82.6716 172.5,82.5C 170.545,79.5221 168.878,76.5221 167.5,73.5C 168.93,72.4625 170.597,71.7959 172.5,71.5 Z"/></g>
<g><path style="opacity:1" fill="#604934" d="M 151.5,87.5 C 149.224,87.2435 148.057,85.9102 148,83.5C 147.226,81.597 147.56,79.9304 149,78.5C 149.401,81.6994 150.234,84.6994 151.5,87.5 Z"/></g>
<g><path style="opacity:1" fill="#4b3d32" d="M 212.5,72.5 C 212.13,76.2886 210.797,79.622 208.5,82.5C 206.473,84.1804 204.139,85.3471 201.5,86C 189.972,87.2162 178.638,89.3828 167.5,92.5C 159.955,92.0075 153.621,94.3408 148.5,99.5C 147.833,99.8333 147.167,100.167 146.5,100.5C 144.273,99.5994 143.273,97.9328 143.5,95.5C 146.221,95.0372 148.888,94.3705 151.5,93.5C 167.237,88.867 183.237,85.367 199.5,83C 202.684,82.2458 205.351,80.7458 207.5,78.5C 209.643,76.8693 211.31,74.8693 212.5,72.5 Z"/></g>
<g><path style="opacity:1" fill="#f3bf96" d="M 207.5,78.5 C 205.351,80.7458 202.684,82.2458 199.5,83C 183.237,85.367 167.237,88.867 151.5,93.5C 150.653,92.0337 149.32,91.2004 147.5,91C 149.027,89.9681 150.36,88.8014 151.5,87.5C 154.929,85.6131 158.429,84.9464 162,85.5C 165.832,85.1819 169.332,84.1819 172.5,82.5C 173.492,82.6716 174.158,82.3382 174.5,81.5C 177.577,82.3389 180.577,81.8389 183.5,80C 190.276,79.2912 196.943,78.1245 203.5,76.5C 204.086,76.7093 204.586,77.0426 205,77.5C 206.516,74.9485 207.349,75.2819 207.5,78.5 Z"/></g>
<g><path style="opacity:0.325" fill="#252224" d="M 167.5,92.5 C 162.941,93.9805 158.274,95.4805 153.5,97C 160.774,98.2806 167.774,100.114 174.5,102.5C 168.079,101.645 161.746,100.312 155.5,98.5C 152.937,98.737 152.937,99.237 155.5,100C 155.272,100.399 154.938,100.565 154.5,100.5C 152.435,100.483 150.435,100.15 148.5,99.5C 153.621,94.3408 159.955,92.0075 167.5,92.5 Z"/></g>
<g><path style="opacity:1" fill="#694c36" d="M 64.5,89.5 C 64.5,90.8333 65.1667,91.5 66.5,91.5C 65.7455,98.2286 67.4122,104.229 71.5,109.5C 70.9924,111.233 70.159,111.566 69,110.5C 67.6667,107.167 66.3333,103.833 65,100.5C 64.3292,99.7476 63.4959,99.4142 62.5,99.5C 62.5488,95.9219 63.2154,92.5885 64.5,89.5 Z"/></g>
<g><path style="opacity:0.421" fill="#3a3836" d="M 174.5,102.5 C 186.407,99.9894 197.74,101.489 208.5,107C 212.388,112.348 212.388,117.515 208.5,122.5C 209.643,119.29 209.31,116.29 207.5,113.5C 207.141,111.629 206.141,110.129 204.5,109C 201.911,107.803 199.244,106.803 196.5,106C 182.025,106.66 168.025,104.826 154.5,100.5C 154.938,100.565 155.272,100.399 155.5,100C 152.937,99.237 152.937,98.737 155.5,98.5C 161.746,100.312 168.079,101.645 174.5,102.5 Z"/></g>
<g><path style="opacity:1" fill="#5f4130" d="M 151.5,103.5 C 151.833,103.5 152.167,103.5 152.5,103.5C 152.5,104.5 152.5,105.5 152.5,106.5C 151.698,107.952 151.198,109.618 151,111.5C 150.617,110.944 150.117,110.611 149.5,110.5C 149.394,107.921 150.061,105.588 151.5,103.5 Z"/></g>
<g><path style="opacity:1" fill="#f4d4ba" d="M 152.5,103.5 C 157.015,105.428 161.682,106.761 166.5,107.5C 166.5,108.5 166.5,109.5 166.5,110.5C 163.091,110.751 159.758,110.417 156.5,109.5C 153.31,112.023 151.977,111.023 152.5,106.5C 152.5,105.5 152.5,104.5 152.5,103.5 Z"/></g>
<g><path style="opacity:1" fill="#5d412c" d="M 170.5,107.5 C 169.011,109.116 168.011,111.116 167.5,113.5C 166.614,112.675 166.281,111.675 166.5,110.5C 166.5,109.5 166.5,108.5 166.5,107.5C 167.156,106.722 167.989,106.056 169,105.5C 170.03,105.836 170.53,106.503 170.5,107.5 Z"/></g>
<g><path style="opacity:1" fill="#87796e" d="M 187.5,109.5 C 192.122,109.156 196.455,109.823 200.5,111.5C 199.5,111.833 198.833,112.5 198.5,113.5C 196.952,113.821 196.285,114.821 196.5,116.5C 194.319,116.716 192.653,115.883 191.5,114C 195.18,112.775 194.847,111.942 190.5,111.5C 189.5,110.833 188.5,110.167 187.5,109.5 Z"/></g>
<g><path style="opacity:1" fill="#40896b" d="M 60.5,79.5 C 60.8333,79.5 61.1667,79.5 61.5,79.5C 54.6975,103.23 62.6975,119.23 85.5,127.5C 85.4894,129.017 84.8228,130.184 83.5,131C 78.2865,133.017 72.9532,134.517 67.5,135.5C 61.3506,135.759 56.684,133.426 53.5,128.5C 52.8333,128.5 52.5,128.167 52.5,127.5C 45.7282,114.152 44.8949,100.486 50,86.5C 52.612,82.7812 56.112,80.4478 60.5,79.5 Z"/></g>
<g><path style="opacity:1" fill="#634832" d="M 95.5,105.5 C 104.086,105.574 109.753,109.74 112.5,118C 111.365,118.749 110.365,118.583 109.5,117.5C 107.296,110.731 102.63,107.397 95.5,107.5C 95.5,106.833 95.5,106.167 95.5,105.5 Z"/></g>
<g><path style="opacity:1" fill="#4b4d3a" d="M 61.5,79.5 C 62.3764,79.3691 63.0431,79.7025 63.5,80.5C 61.4929,83.8119 60.8262,87.1452 61.5,90.5C 61.1872,94.0419 61.5206,97.3752 62.5,100.5C 65.0592,113.899 73.0592,122.399 86.5,126C 92.0465,126.369 97.3798,127.203 102.5,128.5C 97.9174,129.195 93.2508,129.195 88.5,128.5C 87.609,127.89 86.609,127.557 85.5,127.5C 62.6975,119.23 54.6975,103.23 61.5,79.5 Z"/></g>
<g><path style="opacity:1" fill="#f2be95" d="M 62.5,99.5 C 63.4959,99.4142 64.3292,99.7476 65,100.5C 66.3333,103.833 67.6667,107.167 69,110.5C 70.159,111.566 70.9924,111.233 71.5,109.5C 77.1239,112.983 82.7906,116.483 88.5,120C 95.1556,120.711 101.822,121.211 108.5,121.5C 117.279,122.983 125.613,125.649 133.5,129.5C 133.897,130.525 134.563,130.692 135.5,130C 136.733,128.333 138.067,126.833 139.5,125.5C 144.36,129.423 149.36,133.09 154.5,136.5C 150.51,137.46 149.177,139.793 150.5,143.5C 151.107,143.376 151.44,143.043 151.5,142.5C 155.102,142.692 158.102,144.026 160.5,146.5C 160.164,151 162.164,152.833 166.5,152C 167.252,151.329 167.586,150.496 167.5,149.5C 168.791,150.542 168.791,151.708 167.5,153C 168,153.5 168.5,154 169,154.5C 170.019,152.498 170.852,150.498 171.5,148.5C 173.027,148.427 174.027,149.094 174.5,150.5C 177.615,156.582 175.615,159.415 168.5,159C 154.365,150.095 140.032,141.429 125.5,133C 118.14,129.895 110.474,128.395 102.5,128.5C 97.3798,127.203 92.0465,126.369 86.5,126C 73.0592,122.399 65.0592,113.899 62.5,100.5C 62.5,100.167 62.5,99.8333 62.5,99.5 Z"/></g>
<g><path style="opacity:1" fill="#504035" d="M 205.5,112.5 C 206.167,112.833 206.833,113.167 207.5,113.5C 209.31,116.29 209.643,119.29 208.5,122.5C 208.426,124.411 207.426,125.578 205.5,126C 201.72,127.485 198.054,127.652 194.5,126.5C 176.474,120.401 157.807,117.901 138.5,119C 139.337,120.011 139.67,121.178 139.5,122.5C 138.833,122.167 138.167,121.833 137.5,121.5C 136.498,119.989 135.831,118.322 135.5,116.5C 137.5,116.5 139.5,116.5 141.5,116.5C 150.189,116.573 158.855,117.073 167.5,118C 177.177,120.005 186.843,121.838 196.5,123.5C 206.033,124.66 209.033,120.993 205.5,112.5 Z"/></g>
<g><path style="opacity:1" fill="#f1c39c" d="M 152.5,106.5 C 151.977,111.023 153.31,112.023 156.5,109.5C 159.758,110.417 163.091,110.751 166.5,110.5C 166.281,111.675 166.614,112.675 167.5,113.5C 168.011,111.116 169.011,109.116 170.5,107.5C 171.263,108.268 172.263,108.768 173.5,109C 178.155,109.499 182.821,109.666 187.5,109.5C 188.5,110.167 189.5,110.833 190.5,111.5C 189.67,116.998 192.004,118.998 197.5,117.5C 198.429,116.311 198.762,114.978 198.5,113.5C 198.833,112.5 199.5,111.833 200.5,111.5C 202.216,111.629 203.883,111.962 205.5,112.5C 209.033,120.993 206.033,124.66 196.5,123.5C 186.843,121.838 177.177,120.005 167.5,118C 158.855,117.073 150.189,116.573 141.5,116.5C 140.28,114.718 139.614,112.718 139.5,110.5C 143.143,110.643 146.477,110.643 149.5,110.5C 150.117,110.611 150.617,110.944 151,111.5C 151.198,109.618 151.698,107.952 152.5,106.5 Z"/></g>
<g><path style="opacity:1" fill="#5e4331" d="M 190.5,111.5 C 194.847,111.942 195.18,112.775 191.5,114C 192.653,115.883 194.319,116.716 196.5,116.5C 196.285,114.821 196.952,113.821 198.5,113.5C 198.762,114.978 198.429,116.311 197.5,117.5C 192.004,118.998 189.67,116.998 190.5,111.5 Z"/></g>
<g><path style="opacity:1" fill="#59412c" d="M 138.5,124.5 C 139.167,124.5 139.5,124.833 139.5,125.5C 138.067,126.833 136.733,128.333 135.5,130C 134.563,130.692 133.897,130.525 133.5,129.5C 134.882,127.451 136.548,125.785 138.5,124.5 Z"/></g>
<g><path style="opacity:1" fill="#423934" d="M 194.5,126.5 C 184.562,124.48 174.562,122.646 164.5,121C 157.5,120.333 150.5,120.333 143.5,121C 149.166,125.169 155.166,128.835 161.5,132C 166.575,136.287 171.742,140.453 177,144.5C 181.668,150.251 181.501,155.751 176.5,161C 171.376,163.07 166.376,162.736 161.5,160C 148.964,150.479 135.631,142.146 121.5,135C 109.961,130.796 98.2942,129.963 86.5,132.5C 86.5271,130.801 87.1938,129.467 88.5,128.5C 93.2508,129.195 97.9174,129.195 102.5,128.5C 110.474,128.395 118.14,129.895 125.5,133C 140.032,141.429 154.365,150.095 168.5,159C 175.615,159.415 177.615,156.582 174.5,150.5C 175.043,150.44 175.376,150.107 175.5,149.5C 174.376,148.086 173.376,146.586 172.5,145C 161.781,136.983 150.781,129.483 139.5,122.5C 139.67,121.178 139.337,120.011 138.5,119C 157.807,117.901 176.474,120.401 194.5,126.5 Z"/></g>
<g><path style="opacity:1" fill="#633f25" d="M 154.5,136.5 C 153.206,138.328 152.206,140.328 151.5,142.5C 151.44,143.043 151.107,143.376 150.5,143.5C 149.177,139.793 150.51,137.46 154.5,136.5 Z"/></g>
<g><path style="opacity:1" fill="#f2d1b3" d="M 154.5,136.5 C 160.212,137.55 164.545,140.55 167.5,145.5C 165.097,145.448 162.764,145.781 160.5,146.5C 158.102,144.026 155.102,142.692 151.5,142.5C 152.206,140.328 153.206,138.328 154.5,136.5 Z"/></g>
<g><path style="opacity:1" fill="#634937" d="M 167.5,145.5 C 169.404,145.738 170.738,146.738 171.5,148.5C 170.852,150.498 170.019,152.498 169,154.5C 168.5,154 168,153.5 167.5,153C 168.791,151.708 168.791,150.542 167.5,149.5C 167.586,150.496 167.252,151.329 166.5,152C 162.164,152.833 160.164,151 160.5,146.5C 162.764,145.781 165.097,145.448 167.5,145.5 Z"/></g>
<g><path style="opacity:1" fill="#d6beaa" d="M 167.5,149.5 C 165.381,151.087 163.714,150.754 162.5,148.5C 164.582,147.106 166.249,147.439 167.5,149.5 Z"/></g>
</svg>
